# Display rest mesh; see meta.json for original coordinate conventions.
v 0.0661323965 0.927165985 -0.135639995
v 0.0736650974 0.943726003 -0.135206997
v 0.0799878985 0.905646026 -0.134997994
v 0.0691853017 0.969989002 -0.134606004
v 0.0850320011 0.789858997 -0.133986995
v 0.0877614021 0.934174001 -0.133374006
v 0.0803124979 0.983116984 -0.132973
v 0.0427818 0.830772996 -0.132899001
v 0.0428940989 0.921308994 -0.132776007
v 0.0552660003 0.839287996 -0.132772997
v 0.0846801996 0.88952601 -0.132321
v 0.0332839005 0.864440024 -0.131909996
v 0.00921775959 0.857654989 -0.131722003
v 0.082125999 0.812507987 -0.131531999
v 0.0326485001 0.892111003 -0.131439999
v 0.00514073996 0.880225003 -0.131265
v 0.0457052998 0.965315998 -0.131071001
v 0.0589546002 1.00285006 -0.131074995
v 0.0926947966 0.948930025 -0.130980998
v 0.101061001 0.800145984 -0.130438998
v 0.0731147975 1.01541996 -0.130305007
v 0.0927134976 0.899344027 -0.130192995
v 0.0665222034 0.874015987 -0.129667997
v 0.0679282993 0.845153987 -0.129534006
v 0.0495088995 0.807231009 -0.129222006
v 0.0857558995 0.827176988 -0.129210994
v -0.00528735993 0.870768011 -0.128784001
v 0.0937516987 0.989280999 -0.128408998
v 0.121991001 0.792806983 -0.128322005
v 0.00957954954 0.910125971 -0.128112003
v 0.0657837018 0.861186028 -0.127869993
v 0.0969071984 0.963038981 -0.127428994
v 0.0607475005 1.04667997 -0.127270997
v 0.0921870992 1.01867998 -0.127110004
v 0.0140640996 0.829362988 -0.126807004
v 0.080308497 1.06150997 -0.126349002
v 0.0420208983 1.01824999 -0.126135007
v 0.0995120034 0.877977014 -0.125985995
v 0.0211302992 0.956788003 -0.125635996
v 0.0995260999 0.975220978 -0.125258997
v 0.0989504009 0.864063025 -0.124397002
v 0.064383097 1.08634996 -0.123664998
v 0.0928483009 1.05425 -0.123639002
v 0.0887235031 0.848398983 -0.122814
v 0.072413601 1.10792994 -0.122142002
v -0.0134594999 0.894770026 -0.121601999
v 0.0373019017 1.05075002 -0.121188998
v 0.0496506989 1.09066999 -0.120906003
v 0.0901029035 1.10174 -0.120777003
v 0.0238613002 0.788206995 -0.120701
v -0.0137309004 0.836378992 -0.120197996
v -0.00183305005 0.943580985 -0.119217999
v 0.0779071972 1.13536 -0.119195998
v 0.110495999 0.828822017 -0.119093001
v 0.109939002 0.888010025 -0.118569002
v 0.00108203001 0.803637028 -0.118146002
v 0.100478001 1.08566999 -0.118231997
v 0.0138020003 1.00125003 -0.117478997
v 0.105697997 0.987037003 -0.117468998
v 0.111252002 0.843158007 -0.117337003
v 0.101746 0.932383001 -0.116948999
v 0.055278901 1.14200997 -0.116639003
v 0.108041003 1.02090001 -0.116039
v 0.118721001 0.861299992 -0.115859002
v 0.107415996 1.05351996 -0.115479998
v 0.0878901035 1.16867006 -0.114720002
v 0.102178 0.909797013 -0.113704003
v 0.104640998 1.12579 -0.113618001
v 0.0298020002 1.09649003 -0.113266997
v 0.237339005 1.17510998 -0.113318004
v -0.0285595004 0.854709029 -0.113017
v -0.0226796996 0.829796016 -0.112884998
v 0.147617996 0.796434999 -0.112738997
v 0.0741809979 1.19438004 -0.112613998
v 0.0415678993 1.14847004 -0.112117998
v 0.127837002 0.83238399 -0.111323997
v 0.0591445006 1.19905996 -0.110610001
v 0.220152006 1.16799998 -0.110368997
v 0.220403999 1.19254005 -0.110134996
v -0.0197714008 0.786316991 -0.109522998
v -0.0250928998 0.929467022 -0.109485999
v -0.0120123001 0.973049998 -0.109448001
v 0.107652999 1.17922997 -0.109366998
v -0.0260192007 0.81020999 -0.108672
v 0.100611001 1.22679996 -0.107513003
v 0.0483338013 1.20756996 -0.107133001
v 0.238609999 1.20930004 -0.106954999
v 0.0877946019 1.24128997 -0.106637999
v 0.214393005 1.22914004 -0.106590003
v 0.119012997 1.12235999 -0.106278002
v 0.112108998 1.22404003 -0.106173001
v 0.253609985 1.18062997 -0.106068
v 0.143912002 0.827287018 -0.105531998
v -0.00417130999 1.02375996 -0.105361
v 0.119451001 1.06159997 -0.105006002
v 0.114565 0.897621989 -0.104979999
v 0.136765003 0.845713973 -0.104171999
v 0.0211485997 1.13679004 -0.104028001
v 0.226588994 1.23723996 -0.104203001
v 0.106729001 1.27094996 -0.103942998
v 0.198645994 1.22742999 -0.103958003
v 0.115571 1.25691998 -0.103820004
v 0.0621913001 1.25989997 -0.103389002
v 0.107151002 0.979215026 -0.103331998
v 0.208563998 1.26994002 -0.103160001
v 0.190428004 1.26259005 -0.102867
v 0.125312999 1.16025996 -0.102357998
v 0.191276997 1.28931999 -0.102383003
v 0.124444 1.10371995 -0.102261998
v 0.156178996 0.810793996 -0.102289997
v -0.0409239009 0.900795996 -0.101660997
v 0.198596001 1.19832003 -0.101493999
v 0.119572997 1.01961005 -0.101167999
v 0.132373005 0.876780987 -0.100992002
v 0.130078003 1.21634996 -0.100607
v 0.183914006 1.32015002 -0.100547999
v 0.137297004 0.860942006 -0.100469001
v 0.099822402 1.30550003 -0.100327
v -0.0433315001 0.83702302 -0.100180998
v 0.180759996 1.29805005 -0.100313999
v 0.186346993 1.23739004 -0.100032002
v 0.195152998 1.31394994 -0.0997067019
v 0.103625 0.961269021 -0.0994054005
v 0.0324871987 1.22263002 -0.0992885977
v 0.131275997 1.19210994 -0.0993421972
v 0.116497003 1.28082001 -0.0990758017
v 0.247832999 1.21030998 -0.0991171002
v 0.131639004 1.24217999 -0.0986844972
v 0.0451642014 1.26678002 -0.0985315964
v 0.107600003 0.938811004 -0.0985620022
v 0.208632007 1.29679 -0.0984561965
v 0.200296998 1.17575002 -0.0981137976
v 0.206144005 1.16112995 -0.0978150964
v 0.223966002 1.26971996 -0.0974200964
v 0.172983006 1.34639001 -0.0972727016
v -0.0510541983 0.870531976 -0.0970463976
v 0.111965001 0.920593977 -0.0970475003
v 0.173828006 1.28295004 -0.0970975012
v 0.109569997 1.30692995 -0.0963800028
v 0.169228002 1.32146001 -0.0964280963
v 0.168385997 0.798965991 -0.0961382017
v 0.254997998 1.19746995 -0.0960932001
v 0.0764437988 1.32588995 -0.0956752002
v 0.0520983003 1.31080997 -0.0950492024
v 0.183009997 1.35597003 -0.0950468034
v 0.127377003 1.05634999 -0.0949700996
v 0.242354006 1.23791003 -0.0944906995
v 0.128810003 1.26368999 -0.0942505971
v 0.171987996 1.26029003 -0.0940990001
v 0.119897999 1.00594997 -0.0938913971
v 0.183280006 1.21370995 -0.0935603976
v 0.200576007 1.33296001 -0.0934434012
v 0.0968820006 1.34514999 -0.0930287987
v 0.165331006 1.30204999 -0.0930107981
v 0.132854 1.09206998 -0.0927904025
v 0.0166871008 1.21148002 -0.0923988968
v -0.0516888015 0.785157979 -0.0914487988
v 0.0361169986 1.30141997 -0.0915167034
v 0.142601997 1.22637999 -0.0913762003
v 0.163354993 1.36049998 -0.0909966007
v -0.0427706987 0.970130026 -0.0907898992
v 0.147376001 1.20170999 -0.0903733
v 0.0837911963 1.36476004 -0.0902258977
v 0.0500404015 1.35324001 -0.0898955017
v 0.150753006 1.32713997 -0.0897388011
v 0.220298007 1.30139995 -0.0891287029
v 0.144903004 1.16112006 -0.088740997
v 0.26384601 1.18289995 -0.0878920034
v 0.150753006 1.34765995 -0.0875808969
v 0.109082997 1.36041999 -0.0875246003
v 0.170561001 1.23569 -0.0875279009
v 0.109451003 0.980266988 -0.0873387009
v 0.0688207 1.37433004 -0.0872088
v 0.114514001 1.33394003 -0.0870423019
v 0.0863965005 1.38606 -0.0869546011
v 0.125619993 0.918715 -0.0867158994
v 0.151743993 0.859633982 -0.0866952017
v 0.239504993 1.25762999 -0.0864797011
v 0.136610001 1.25179994 -0.0862680972
v 0.119667001 1.30914998 -0.086160101
v 0.136549994 1.35240996 -0.0859614015
v 0.186499998 1.18383002 -0.0852774978
v 0.173115999 1.38013995 -0.0851610005
v 0.0339377001 1.35939002 -0.085012503
v 0.159962997 1.28339005 -0.0850424021
v 0.145478994 1.13741004 -0.0845149979
v -0.0166308992 1.11515999 -0.0843456015
v 0.118569002 0.939359009 -0.0844630972
v 0.197597995 1.36014998 -0.0843247995
v 0.255813003 1.21447003 -0.0843176022
v 0.0176749006 1.29176998 -0.0839624032
v 0.0260882992 1.34709001 -0.0838010013
v 0.0240055006 1.32910001 -0.0837595984
v -0.0366033018 1.03811002 -0.0836367011
v 0.145116001 1.31832004 -0.0832877979
v 0.165489003 1.25422001 -0.0832870975
v 0.131951004 1.27362001 -0.083119303
v 0.140314996 1.37298 -0.0830345973
v 0.110278003 1.39696002 -0.0829835013
v 0.120471001 1.34618998 -0.0829486027
v 0.125120997 1.35892999 -0.0825650021
v 0.119379997 1.37891996 -0.082453303
v 0.144247994 1.11714005 -0.0823889002
v 0.237453997 1.26917005 -0.0819320008
v 0.125698999 1.31903005 -0.0817696005
v 0.189728007 1.37778997 -0.0817890018
v -0.0764608011 0.888778985 -0.0812465027
v 0.130830005 1.33622003 -0.0813578963
v 0.174536005 0.814459026 -0.0810602978
v 0.112663999 0.964974999 -0.0809475034
v 0.128943995 1.30025995 -0.0808392987
v 0.173127994 1.20560002 -0.0808006972
v 0.219409004 1.31712997 -0.0805137008
v 0.138362005 1.07114005 -0.0802105963
v 0.135594994 1.31096005 -0.0801808983
v 0.148101002 1.29710996 -0.0801042989
v 0.151844993 1.39261997 -0.0800264999
v -0.0723308027 0.85451299 -0.0797754005
v 0.207627997 1.34531999 -0.0798455998
v -0.0706155002 0.940648019 -0.0794167966
v 0.137991995 0.90425998 -0.0795402974
v -0.0600071996 0.989108026 -0.0791457966
v 0.156558007 1.20780003 -0.0792879015
v 0.196579993 1.15208006 -0.0793050006
v 0.157958999 1.18348002 -0.0789583027
v 0.0425583012 1.38138998 -0.0787189975
v 0.157955006 1.27011001 -0.0787488967
v 0.180414006 0.800262988 -0.0784377009
v 0.124257997 1.40577996 -0.0780420005
v 0.136069998 1.05148995 -0.0772233978
v -0.0718763992 0.811782002 -0.0767126977
v 0.161939994 1.39614999 -0.0768586993
v 0.145475999 1.41084003 -0.0760335997
v -0.00631482992 1.24629998 -0.0754104033
v 0.0189977996 1.36986005 -0.0751233995
v 0.173001006 0.835789979 -0.0751497969
v 0.166080996 1.22413003 -0.0748739019
v 0.143351004 1.27698004 -0.0748289973
v 0.124375999 0.944507003 -0.0746660009
v 0.142839 1.24287999 -0.0742999017
v 0.261161 1.20772004 -0.0728885978
v 0.250301003 1.24035001 -0.0728563964
v 0.143611997 1.26091003 -0.0720710009
v 0.127857 1.01539004 -0.0720115975
v -0.0570100993 1.06099999 -0.0713512003
v 0.115443997 0.977643013 -0.0712039992
v 0.232384995 1.29182005 -0.0708642006
v 0.184633002 1.39365995 -0.0706534982
v 0.192486003 1.1609 -0.0705313012
v 0.178911 0.826003015 -0.0704673976
v 0.206651002 1.36094999 -0.0703651011
v -0.0417952985 1.12627006 -0.0700363964
v 0.0745768994 1.41457999 -0.0698956996
v 0.180142999 1.17585003 -0.0699293017
v 0.166525006 0.864549994 -0.0697640032
v 0.0567697994 1.41371 -0.0692853034
v 0.118083999 0.995525002 -0.0689911023
v 0.106066003 1.41919994 -0.0688085034
v -0.0266807005 1.20752001 -0.0684717968
v 0.156789005 1.23034 -0.0685651973
v -0.0761213973 1.02182996 -0.068309702
v 0.147505999 1.42068994 -0.068322897
v -0.00553912995 1.32845998 -0.067795597
v 0.159568995 1.25144994 -0.0675091967
v 0.162237003 1.16647005 -0.0669177026
v 0.157368004 0.881470978 -0.0669097006
v 0.0379851013 1.40851998 -0.0664274022
v 0.218776003 1.33285999 -0.0659648031
v 0.196685001 1.38572001 -0.0659366995
v 0.167897001 1.41343999 -0.0658541024
v 0.154965997 1.20583999 -0.0658337995
v -0.0880130008 0.999805987 -0.0651739016
v 0.243964002 1.26154995 -0.0654831007
v 0.151578993 1.24159002 -0.065258801
v 0.0148858996 1.39005995 -0.0650430024
v -0.0943827033 0.91733402 -0.0648704022
v -0.0937717035 0.869107008 -0.0644624978
v -0.0942424983 0.954457998 -0.0641036034
v 0.165628001 1.19497001 -0.0643517971
v 0.161555007 1.20701003 -0.0639161021
v -0.0037181899 1.36286998 -0.0633933991
v 0.133432001 0.939176023 -0.0632184967
v -0.0639752969 1.11503994 -0.0625735
v 0.270523995 1.18336999 -0.0624914989
v 0.151210994 1.10388005 -0.0620160997
v -0.0853471011 0.784011006 -0.0607946999
v -0.0901112035 0.825052023 -0.0605073012
v 0.181453004 0.816904008 -0.0605116002
v 0.188981995 1.15050006 -0.0604594983
v -0.0527709983 1.18263996 -0.0597398989
v 0.0851980001 1.42604995 -0.0594074018
v 0.0432092994 1.42689002 -0.0589614995
v 0.153336003 1.19049001 -0.0588621013
v 0.142902002 1.06244004 -0.0587356985
v -0.0380479991 1.26282001 -0.0583393015
v 0.156231001 1.22096002 -0.0578874014
v -0.101823002 0.891161978 -0.0573688
v 0.185299993 0.800926983 -0.0573744997
v 0.146404997 0.914481997 -0.0570033006
v 0.180188999 0.854358971 -0.0569250993
v 0.120324001 0.981382012 -0.0559401996
v -0.103368998 1.01803994 -0.0555668995
v 0.157258004 0.899492025 -0.0555792004
v 0.183274999 0.839856982 -0.0554637015
v 0.208342001 1.36429 -0.055148799
v 0.158526003 1.42465997 -0.0546072014
v 0.130140007 1.01787996 -0.0545419008
v 0.159973994 1.23447001 -0.0544373989
v 0.177066997 0.872928977 -0.0542550012
v 0.174941003 1.41191006 -0.0540024005
v -0.00966017973 1.38528001 -0.0533434004
v 0.175284997 1.17972004 -0.0531928018
v 0.187646002 1.40076005 -0.0530061983
v 0.157277003 1.22152996 -0.0525825992
v 0.164737999 1.16283 -0.0522788987
v 0.240612999 1.26942003 -0.0523536988
v -0.104829997 1.07051003 -0.0520076007
v -0.093825601 1.12767005 -0.0517214015
v 0.0353941992 1.43236005 -0.0514566004
v -0.107184 0.862340987 -0.0510727018
v 0.160834998 1.13871002 -0.0509806983
v -0.102182001 0.837188005 -0.050675001
v -0.0379078984 1.34064996 -0.0506675988
v 0.161449 1.19257998 -0.0492223985
v 0.259871006 1.21613002 -0.0489161015
v -0.0509953983 1.31225002 -0.0486023985
v -0.0687988028 1.24441004 -0.0484152995
v -0.0320140012 1.36881995 -0.0473795012
v 0.0127646998 1.41982996 -0.0470302999
v 0.139064997 0.943291008 -0.0466707982
v 0.157938004 1.17903996 -0.0465067998
v 0.191679999 1.17483997 -0.0464446992
v 0.197850004 1.38871002 -0.0462577008
v -0.0995604023 0.809607983 -0.0459044017
v -0.117862999 0.995927989 -0.0452903993
v 0.153969005 1.10504997 -0.0455003008
v 0.147420004 1.21860003 -0.0443817005
v -0.119319998 1.04518998 -0.0437509008
v 0.141632006 1.05840003 -0.0436204001
v 0.214670002 1.33749998 -0.0436582007
v 0.225549996 1.30894995 -0.0436167009
v 0.123774 0.994934022 -0.0428745002
v -0.113284998 1.14990997 -0.0425782986
v 0.147605002 1.20091999 -0.0421620011
v -0.0127095003 1.40710998 -0.0409951992
v -0.0975610986 1.23570001 -0.0409068018
v -0.121408001 1.10457003 -0.0406966992
v 0.197917998 1.16322994 -0.0404240005
v -0.0656068996 1.33968997 -0.0398036018
v 0.150206998 1.20553005 -0.0398805998
v 0.160894006 1.43342996 -0.0398281999
v 0.179196 0.893633008 -0.0398330018
v -0.121353 0.948817015 -0.0395093001
v 0.110564999 1.43906999 -0.0395217985
v -0.115015 0.852541983 -0.0389400013
v 0.181270003 0.810666025 -0.0387264006
v 0.183010995 1.40824997 -0.0386651009
v 0.201278999 1.37109995 -0.0386693999
v 0.130026996 0.974261999 -0.0385604985
v -0.110100999 0.831095994 -0.0378388017
v 0.163139999 0.921500981 -0.0379358009
v 0.176587999 1.19185996 -0.0375422016
v -0.118207 0.888761997 -0.0371210985
v 0.0378337018 1.44318998 -0.0372602008
v -0.116587996 1.21359003 -0.0367406011
v 0.184755996 0.865511 -0.0368379988
v -0.093725197 1.29935002 -0.0364710987
v 0.0166328009 1.43733001 -0.0363706015
v 0.181627005 0.834932983 -0.0363451988
v 0.189191997 1.39442003 -0.0361951999
v 0.183118999 0.799687982 -0.0358181
v 0.270125985 1.18141997 -0.0355689004
v -0.0856107026 1.33076 -0.0352104008
v 0.165496007 1.17342997 -0.0350103006
v 0.238588005 1.27555001 -0.0349055007
v 0.127914995 1.01382005 -0.0346807986
v 0.0729051009 1.44476998 -0.0345254987
v 0.146393001 0.948938012 -0.0344273001
v -0.128110006 1.16553998 -0.0340185016
v 0.266539991 1.19430006 -0.0339469984
v -0.0704189017 1.36038005 -0.0331030004
v -0.129394993 0.993529975 -0.0326581001
v -0.132330999 1.06426001 -0.0324475989
v 0.252618998 1.23288 -0.0324737988
v -0.120039001 1.25575995 -0.0316757001
v 0.145483002 1.43873 -0.0318360999
v 0.161544994 1.20081997 -0.0315449983
v 0.214422002 1.33984995 -0.0313327014
v 0.171671003 1.42981005 -0.0312027
v 0.133475006 1.03740001 -0.0301364996
v -0.103189997 0.784084976 -0.029538
v 0.166197002 1.15524995 -0.0295950007
v 0.160499007 1.13227999 -0.0294653997
v -0.0552076995 1.38891006 -0.0287771001
v -0.118059002 1.30142999 -0.0286659002
v -0.114910997 1.33852994 -0.0278740991
v 0.222261995 1.32693994 -0.0276372992
v 0.200431004 1.37199998 -0.0275027007
v 0.194607005 1.38441002 -0.0273119994
v 0.152942002 1.10702002 -0.0271521993
v 0.155578002 1.19230998 -0.0270792004
v -0.105139002 1.35365999 -0.0261174999
v -0.138359994 1.04918003 -0.0259594005
v 0.0138812 1.44949996 -0.0259473007
v -0.129465997 0.933399975 -0.0255800001
v 0.138934001 1.06165004 -0.0257681999
v 0.146069005 1.20916998 -0.0254740007
v 0.193259001 1.40426004 -0.0250534005
v -0.139052004 1.19286001 -0.0246840995
v -0.133925006 1.26160002 -0.0246591009
v 0.130391002 1.00019002 -0.0246728007
v -0.126114994 0.897898972 -0.0242646001
v 0.166438997 0.941847026 -0.0244658999
v 0.191312999 1.19208002 -0.0244679991
v -0.141758993 1.13180006 -0.0239150003
v 0.153014004 1.43971002 -0.0240812004
v -0.137370005 1.00466001 -0.0235973001
v 0.173411995 1.20908999 -0.0236249994
v 0.104271002 1.44884002 -0.0234878995
v 0.258195013 1.20939004 -0.0233549997
v 0.234559998 1.29479003 -0.0223903004
v 0.181962997 0.866406024 -0.0218713991
v 0.184288993 0.89813 -0.0215689
v 0.178818002 1.42007005 -0.0213370994
v 0.176248997 0.838396013 -0.0211720001
v -0.116993003 0.826460004 -0.0207259003
v -0.145142004 1.09994996 -0.0196848996
v -0.0161755998 1.43701005 -0.0197467003
v 0.184101999 0.888927996 -0.0197800007
v 0.127143994 1.44806004 -0.0192227997
v 0.244570002 1.25752997 -0.0189800002
v 0.251240999 1.22957003 -0.0184071008
v 0.182622999 1.20818996 -0.0179115999
v 0.139633998 0.991317987 -0.0175579004
v 0.177852005 0.934202015 -0.0175666995
v 0.178505003 0.799136996 -0.0173627008
v -0.0561401993 1.41216004 -0.0167012997
v -0.145062 1.27295995 -0.0166091993
v -0.124989003 0.863604009 -0.0163417999
v -0.131091997 1.35556996 -0.0155165996
v -0.0952531993 1.38355005 -0.0154039003
v 0.209383994 1.38397002 -0.0156551003
v 0.132358998 1.03138995 -0.0149117997
v 0.168458998 1.18420005 -0.0148556
v 0.037925601 1.45957005 -0.0146370996
v -0.145175993 1.03293002 -0.0141051998
v -0.145563006 1.31737995 -0.0135295
v -0.139006004 0.960078001 -0.0129286004
v 0.0603860989 1.45962 -0.0130511997
v 0.0163176991 1.46159995 -0.0125882998
v 0.225832 1.33429003 -0.0126649998
v 0.259846985 1.17677999 -0.0121525005
v 0.158952996 1.21993995 -0.0119712995
v 0.156088993 0.97924298 -0.0117084002
v 0.182016999 1.41496003 -0.0113072004
v 0.167628005 0.832219005 -0.0108481999
v -0.153888002 1.24480999 -0.0104628
v -0.125158995 1.37410998 -0.0104486002
v 0.214149997 1.37395 -0.0107853003
v -0.155404001 1.19897997 -0.00984918978
v 0.253639996 1.20631003 -0.0094506098
v 0.172686994 1.22484004 -0.00918295979
v 0.174496993 0.863578022 -0.00909340009
v -0.146971002 1.34037995 -0.00857300032
v 0.237637997 1.28235996 -0.00876437034
v -0.144860998 0.998906016 -0.00828048959
v 0.169185996 1.43807995 -0.0084800804
v -0.156525999 1.14811003 -0.00734996004
v 0.144576997 1.44340003 -0.00677127996
v 0.195401996 1.19563997 -0.00661613001
v 0.109664999 1.45439005 -0.00637832005
v 0.138592005 1.08048999 -0.00602655997
v 0.0824296996 1.46148002 -0.0058164401
v -0.136008993 0.916467011 -0.00539202988
v 0.175169006 0.959667981 -0.0056785401
v 0.136687994 1.02567005 -0.0051646498
v 0.156450003 1.13940001 -0.00484638987
v 0.241854995 1.25562 -0.00484476984
v 0.207255006 1.16198003 -0.00458353991
v 0.17013 0.973447978 -0.00437125005
v 0.166133001 1.16981995 -0.00399428001
v 0.199304 1.39199996 -0.00396686001
v 0.135864004 1.06531 -0.00379479001
v 0.216720998 1.36492002 -0.00335018989
v -0.156659007 1.09468997 -0.00263534999
v -0.0804520994 1.41790998 -0.0026336601
v -0.148857996 1.36864996 -0.00188076997
v 0.187217996 1.40303004 -0.00160228997
v 0.188933 1.21332002 -0.00147939997
v 0.225997999 1.32720995 -0.00109764002
v 0.167315006 1.21287 -0.00101926003
v -0.0323240012 1.45144999 -0.000656734977
v 0.169764996 1.19651997 -0.000768831989
v 0.180205002 0.905686021 -0.00068297598
v -0.155386999 1.06718004 -0.000309833995
v 0.143285006 1.10452998 -0.000146038001
v 0.174094006 1.43034005 -0.000174344998
v 0.202531993 1.17842996 0.000329020986
v 0.182554007 0.942965984 0.000805861026
v -0.122573003 1.40085995 0.00120396004
v -0.0159141999 1.46194005 0.00113239
v -0.145536005 0.975480974 0.00131406996
v 0.210806996 1.37519002 0.000984031009
v 0.167423993 1.23529994 0.00104437
v 0.253594995 1.17414999 0.00108416995
v -0.115676001 0.784547985 0.00177691004
v 0.233406007 1.28947997 0.00195951993
v -0.166007996 1.28175998 0.00350054004
v -0.163525999 1.13724005 0.00399305997
v -0.142069995 1.38759005 0.00411040988
v -0.153842002 1.03252995 0.00514242006
v 0.241347 1.23122001 0.00524976011
v -0.105668999 1.41753995 0.00593379978
v -0.131192997 0.863506019 0.00644891988
v 0.193859994 1.38211 0.0063066599
v 0.148218006 1.02726996 0.00667467993
v 0.161385 1.01052999 0.00700717
v -0.169551998 1.20153999 0.00752069009
v 0.216124997 1.35033 0.00774435978
v 0.112673 1.45439005 0.00816116016
v 0.155622005 0.849319994 0.00813771039
v 0.221368998 1.32612002 0.00811590999
v 0.233583003 1.26003003 0.00813825987
v 0.139618993 1.05341995 0.0087214699
v -0.125384003 1.41062999 0.00951224007
v 0.170479 0.897687018 0.00944968965
v -0.172541007 1.25265002 0.00998497009
v 0.179379001 0.973448992 0.00976064987
v 0.137912005 1.07590997 0.0100523997
v 0.212074995 1.17224002 0.0101921996
v 0.239234999 1.22021997 0.0104871001
v 0.223309994 1.30027997 0.0112068001
v -0.125136003 0.812771022 0.0115997996
v 0.244045004 1.19103003 0.0114328004
v -0.170261994 1.31862998 0.0120764002
v -0.172492996 1.28797996 0.0121130003
v 0.197726995 1.20639002 0.0125793004
v 0.0988302976 1.45914996 0.0126825999
v 0.207441002 1.35897994 0.0128087997
v -0.168821007 1.34089005 0.0132563999
v 0.180154994 1.41026998 0.0132317999
v 0.219934002 1.16395998 0.0135666002
v 0.139765993 1.10258996 0.0138472999
v -0.138517007 0.904052019 0.0141657004
v 0.178071007 0.934020996 0.0140939998
v -0.144494995 0.946273983 0.0144272
v -0.171704993 1.17760003 0.0145118004
v 0.172089994 1.00620997 0.0144915003
v 0.183750004 1.23705006 0.0146513004
v -0.0914196968 1.43815994 0.0153585002
v 0.173497006 1.25138998 0.0152024999
v -0.164055005 1.37660003 0.0160217993
v 0.189034 1.37472999 0.0157062002
v 0.211548999 1.31900001 0.0162409004
v 0.151935995 0.86986798 0.0163845997
v 0.214022994 1.18238997 0.0163947009
v 0.166293994 1.21125996 0.0165104009
v 0.159272999 1.43978 0.0169714
v -0.0462813005 1.46345997 0.0174941998
v 0.220785007 1.27028 0.0173397008
v 0.133763999 1.44753003 0.0177034009
v -0.0657773018 1.45428002 0.0179078002
v 0.238343999 1.18440998 0.0178135
v -0.150332004 0.986486971 0.0182476994
v 0.150408 0.836247981 0.0182169005
v 0.175118998 1.42736006 0.0183754005
v 0.192662001 1.22713995 0.0184674002
v -0.163139999 1.08880997 0.0188583005
v 0.179468006 0.975558996 0.0185209997
v 0.162909001 1.23711002 0.0189207997
v 0.196361005 1.33541 0.0190372001
v 0.225696996 1.17536998 0.0190540999
v 0.18321 1.39590001 0.0192297008
v 0.189275995 1.35979998 0.0192866009
v 0.222994998 1.24829996 0.0192664005
v 0.155957997 0.79745698 0.0194410998
v 0.238046005 1.16891003 0.0194428992
v 0.229455993 1.21676004 0.0194739997
v 0.146525994 1.06175995 0.0196211003
v 0.161546007 1.19341004 0.0198745001
v 0.210508004 1.28922999 0.0199005008
v -0.0731932968 1.45447004 0.0203156993
v -0.132512003 0.856792986 0.0205495004
v 0.157341003 0.895659983 0.0202801004
v 0.215405002 1.19687998 0.0202440992
v -0.170969993 1.15244997 0.0207350999
v 0.230269 1.19749999 0.0207528006
v 0.204192996 1.21493006 0.0207902007
v -0.178619996 1.21793997 0.0221874006
v 0.143065006 1.13165998 0.0223788992
v 0.192764997 1.24853003 0.0237649009
v 0.214272007 1.24220002 0.0238067992
v 0.179243997 1.27092004 0.0239048991
v -0.104841001 1.43567002 0.0242640004
v 0.211532995 1.22472 0.0241276994
v 0.199515998 1.27392006 0.0248125996
v -0.157417998 1.03698003 0.0252592992
v 0.167333007 1.04023004 0.0250112992
v -0.167475998 1.12027001 0.0254795998
v -0.179848 1.36703002 0.0255277995
v 0.188749999 1.30318999 0.0252148993
v -0.178270996 1.20269001 0.0259547997
v 0.184203997 1.28962004 0.0260128006
v 0.154529005 1.18260002 0.0265263002
v -0.182284996 1.24214005 0.0273790006
v -0.166557997 1.39047003 0.0274039004
v -0.179593995 1.27075005 0.0276605003
v 0.166321993 0.933790982 0.0281169992
v 0.143932 1.09343004 0.0282025002
v -0.177065998 1.30698001 0.0287909005
v 0.179190993 1.36291003 0.0288089998
v 0.175016001 0.960574985 0.0288990997
v 0.161627993 1.22221005 0.0291373003
v -0.141808003 0.923512995 0.0294780992
v -0.0650791004 1.46668994 0.0297845993
v 0.147882998 1.15706003 0.0296295993
v -0.150257006 1.40818 0.0302974004
v 0.179179996 1.33048999 0.0307429004
v -0.131344005 0.822082996 0.0311757997
v 0.165903002 1.26031995 0.0312675983
v 0.176575005 1.01317 0.0313040987
v 0.171485007 1.41850996 0.0316625014
v -0.180984005 1.32974005 0.0322182998
v -0.136403993 0.88675499 0.0342487991
v 0.172600001 1.03945005 0.0340611003
v 0.107643001 1.45111001 0.0342620984
v -0.0809125006 1.45720005 0.0345529988
v 0.143791005 1.12036002 0.0348077007
v -0.181429997 1.21380997 0.0353217982
v -0.171363994 1.14347994 0.0356400013
v -0.185379997 1.24817002 0.0358410999
v -0.180384994 1.28003001 0.0361194015
v -0.186520994 1.37827003 0.0363167003
v -0.164905995 1.09672999 0.0363717005
v -0.183066994 1.30337 0.0364831984
v 0.146357 1.43069994 0.0361552015
v 0.175323993 0.995030999 0.0369116999
v -0.149432003 0.981899023 0.0377851017
v 0.166944996 1.06561995 0.037471801
v 0.170883998 1.40665996 0.0375384018
v 0.171132997 1.38469005 0.0376267992
v -0.113857999 1.43826997 0.0380173996
v 0.171341002 1.29177999 0.038173601
v -0.197068006 1.31587994 0.0385943018
v -0.177248001 1.18595004 0.0394539982
v 0.149768993 1.17495 0.039264001
v 0.144620001 1.1451 0.0400983989
v -0.182448 1.22749996 0.0405167006
v 0.159723997 0.954168022 0.0403453
v -0.210360005 1.29951 0.0407284014
v 0.171614006 1.35161996 0.0403512008
v -0.192242995 1.29641998 0.0407483988
v 0.171718001 1.31426001 0.0405348018
v 0.159840003 1.25234997 0.0409343988
v -0.131576002 0.845137 0.0413878001
v -0.206989005 1.32986999 0.0416181982
v -0.196912006 1.36549997 0.0420597009
v -0.158965006 1.05920994 0.0423048995
v -0.202049002 1.27204001 0.0426286012
v -0.128362 0.785876989 0.0429975018
v -0.174353004 1.16901004 0.0432404988
v 0.138503 0.919987023 0.0430352017
v -0.218834996 1.28025997 0.0438002013
v -0.218127996 1.25837004 0.0439084992
v -0.208860993 1.34799004 0.0451289006
v -0.178679004 1.20351005 0.0456801988
v 0.169683993 1.06927001 0.045420099
v -0.215295002 1.23256004 0.0459905006
v 0.165122002 1.08719003 0.0456730016
v 0.154615998 1.11111999 0.0463104993
v -0.186839998 1.27700996 0.0470075011
v -0.165544003 1.40893996 0.0470139012
v 0.134985 0.826206028 0.0473540984
v -0.218767002 1.31489003 0.0479772016
v 0.149764001 1.19333994 0.0477451012
v 0.151813 1.21494997 0.0478314012
v -0.138058007 0.915951014 0.0481217988
v -0.163358003 1.10256004 0.0482379012
v -0.210217997 1.21495998 0.0485141017
v -0.153690994 1.03101003 0.0487239994
v 0.155303001 1.41321003 0.0484707989
v 0.165912002 0.989196002 0.0487034991
v 0.149795994 1.13467002 0.0494809002
v -0.231028005 1.20606995 0.0503982008
v -0.180040002 1.25785005 0.0505052991
v -0.075849399 1.46748996 0.0506170988
v 0.157151997 1.24395001 0.0504914001
v -0.194553003 1.25471997 0.050993301
v -0.176260993 1.22193003 0.0511715002
v -0.234843001 1.23333001 0.0516332984
v 0.159576997 1.38889003 0.0512841009
v 0.128104001 0.909744024 0.0515030995
v -0.132416993 0.884573996 0.0518022999
v 0.106344 1.43808997 0.0519438013
v 0.171426997 1.02015996 0.0524264984
v 0.147899002 1.17492998 0.0525594018
v -0.226477996 1.18801999 0.0530477017
v 0.126592994 0.884998024 0.0527484007
v -0.196070001 1.24019003 0.0531383008
v -0.228937 1.29078996 0.0537343994
v -0.187932 1.22141004 0.0539841019
v -0.146561995 0.991523027 0.0539452992
v -0.205846995 1.37837994 0.0541191995
v -0.166795999 1.14063001 0.0544428006
v 0.162328005 1.29120004 0.0543994009
v -0.132388994 0.806666017 0.0547465011
v -0.129892007 0.864308 0.0547578
v 0.148030996 0.977035999 0.0547153018
v -0.231067002 1.16712999 0.0556058995
v -0.0898538977 1.45976996 0.0556165017
v -0.210390002 1.19822001 0.0558566004
v 0.162814006 1.33732998 0.0556765012
v -0.244130999 1.22837996 0.0564691983
v 0.163007006 1.31200004 0.0562122986
v -0.167579994 1.22253001 0.0567261986
v -0.215340003 1.35595 0.0571515001
v -0.238748997 1.25979996 0.057255201
v -0.114229001 1.44534004 0.0571781993
v -0.170552 1.24024999 0.0578729995
v -0.251765996 1.17505002 0.0579733998
v -0.170433 1.18733001 0.0578953996
v -0.184468001 1.24577999 0.0579575002
v 0.152282 1.22668004 0.0578025989
v 0.159815997 1.00573003 0.0583361983
v 0.133425996 0.962921977 0.0585923009
v -0.167383 1.1595 0.0597553998
v -0.256348997 1.18832004 0.0603433996
v 0.151284993 1.16536999 0.0601601005
v -0.201236993 1.39293003 0.0606480017
v 0.164399996 1.12013996 0.0603974983
v -0.201025993 1.20209002 0.0608603992
v 0.170962006 1.06592 0.0606539994
v 0.122316003 1.42016006 0.0611381009
v -0.156711996 1.08709002 0.061567001
v 0.170074001 1.05023003 0.0615549982
v 0.169577003 1.08688998 0.0617722012
v 0.159100994 1.26802003 0.0620682016
v -0.226997003 1.31744003 0.0628290027
v -0.174477994 1.21834004 0.0632385015
v -0.162410006 1.41817999 0.0636676028
v -0.214074001 1.16325998 0.0637369975
v -0.133613005 0.787321985 0.0643607005
v 0.154980004 1.35443997 0.0645077974
v -0.198993996 1.18657994 0.0650537983
v 0.151260003 1.19236004 0.0651388988
v -0.132286996 0.921006978 0.0655065998
v -0.251973003 1.23154998 0.0656272992
v 0.159492001 1.14979994 0.0653145984
v -0.169734001 1.23020005 0.0657209978
v -0.141009003 0.987857997 0.0659924001
v -0.159131005 1.12150002 0.0664191991
v -0.134847999 1.43599999 0.0665163994
v -0.127908006 0.846001983 0.0668530017
v -0.203535005 1.16819 0.0671866983
v 0.122321002 0.962876976 0.066948697
v -0.157084003 1.22732997 0.0677433014
v -0.103589997 1.45490003 0.0676970035
v -0.208201006 1.38795996 0.0678114966
v 0.131801993 0.994123995 0.0676741973
v 0.140648007 1.39273 0.0677431971
v 0.165147007 1.13062 0.0683894008
v -0.147180006 1.03979003 0.0689017996
v -0.185634002 1.21296 0.0689809024
v -0.263843 1.19665003 0.0691689029
v 0.155028999 1.24567997 0.0688481033
v -0.268189013 1.18306994 0.0695353001
v 0.0990573987 1.42603004 0.0710067004
v 0.167071 1.10756004 0.0712374002
v -0.153669 1.20918 0.0716120005
v -0.117256999 1.44800997 0.0721608996
v -0.125479996 0.889451981 0.0722294003
v 0.155497 1.04803002 0.0731472969
v 0.137364 1.02297997 0.0732576028
v -0.236849993 1.30046999 0.0737595037
v 0.156933993 1.30567002 0.0734763965
v -0.248891994 1.26129997 0.0740168989
v -0.155968994 1.18982995 0.0740547031
v 0.164987996 1.07604003 0.0737434998
v 0.145102993 1.36123002 0.0741792023
v -0.262787998 1.21730995 0.0753588006
v -0.226417005 1.33586001 0.0753974989
v 0.114329003 0.880007029 0.0752831027
v -0.182723001 1.19134998 0.0766834989
v -0.0810519978 1.47062004 0.0765895024
v -0.183119997 1.41058004 0.0773968995
v -0.129317001 0.947525024 0.0776640996
v -0.198311001 1.16275001 0.0778973028
v -0.155831993 1.15851998 0.0781866014
v 0.110792004 0.932501972 0.0781482011
v 0.157533005 1.20494998 0.0781984031
v 0.124518 1.39756 0.0791648999
v 0.118739001 1.00538003 0.079351902
v 0.156957 1.22722995 0.0796006024
v 0.151105002 1.32397997 0.0796639025
v 0.156995997 1.28741002 0.0797189027
v -0.178972006 1.20985997 0.0801163018
v 0.161394998 1.17657995 0.0798897967
v 0.159327999 1.26694 0.0799861029
v -0.144051999 1.06156003 0.0803415999
v -0.134067997 0.995432019 0.0804985017
v -0.0892862976 1.45792997 0.0809123963
v 0.105002999 1.41129005 0.0808468014
v 0.109325998 0.962836981 0.0817269981
v 0.163757995 1.14785004 0.0817274973
v 0.163214996 1.12975001 0.0825503021
v -0.127978995 1.44120002 0.0831616968
v -0.247991994 1.27514994 0.0834899023
v -0.147327006 1.43303001 0.0835136026
v 0.110693 0.840874016 0.0837317035
v -0.203505993 1.39722002 0.0840725005
v 0.160868004 1.10678995 0.0841310024
v -0.148881003 1.22011006 0.0845765024
v 0.157280996 1.24422002 0.0858775973
v -0.275238007 1.18902004 0.0864458978
v 0.131368995 1.36550999 0.0861162022
v -0.145723999 1.20089996 0.0866881981
v 0.150319993 1.09536004 0.0880649015
v -0.227116004 1.34203994 0.0890028998
v -0.143415004 1.09651995 0.0889438987
v 0.121875003 1.05622995 0.0887231976
v 0.141117007 1.33666003 0.088894099
v -0.254817992 1.25468004 0.0902855024
v -0.169471994 1.19721997 0.0902272984
v -0.238913 1.30627 0.0903469995
v -0.146682993 1.17311001 0.0910027996
v 0.135554001 1.08778 0.0912635997
v -0.164858997 1.21515 0.0916073024
v -0.182748005 1.18271995 0.0918093994
v -0.266718 1.21267998 0.0929159969
v 0.104317002 0.79579401 0.0925619006
v 0.154965997 1.27813005 0.0926567987
v 0.157498002 1.20555997 0.0929222032
v 0.0856295973 1.41482997 0.0935991034
v 0.154566005 1.12925994 0.0935902968
v -0.118767999 0.891454995 0.0947133005
v 0.102495 1.00915003 0.0947460011
v -0.194746003 1.41145003 0.0951998979
v -0.123704001 1.44035995 0.0951820984
v -0.127563 0.829779029 0.0952169001
v 0.149046004 1.30254996 0.0950705037
v 0.156938002 1.16615999 0.095105499
v 0.154266 1.23143995 0.0956128985
v 0.152778 1.25776994 0.0957764015
v -0.132193998 0.790924013 0.0963454992
v -0.128407001 1.03114998 0.0965482965
v -0.189432994 1.16697001 0.0966700986
v -0.117586002 0.917901993 0.0971447006
v -0.220273003 1.36119998 0.0974399969
v -0.176409006 1.41744995 0.0984053016
v 0.107022002 1.05834997 0.0984088033
v -0.121027999 0.98634702 0.0989117995
v -0.141331002 1.14713001 0.0997200012
v 0.148616999 1.14534998 0.100139
v 0.117751002 1.09913003 0.100285999
v -0.0743250027 1.46373999 0.100708999
v -0.138282001 1.21059 0.101340003
v -0.234687001 1.32036996 0.101570003
v -0.080963999 1.44948995 0.103145003
v -0.244850993 1.28546 0.103652
v 0.137420997 1.31718004 0.103289001
v -0.155567005 1.20967996 0.103929996
v -0.209662005 1.39479005 0.104084998
v 0.121550001 1.34549999 0.103785999
v -0.262313008 1.22393 0.104572996
v -0.116442002 0.963450015 0.104959004
v -0.100840002 1.44284999 0.105143003
v -0.142689005 1.22685003 0.105607003
v -0.149573997 1.42728996 0.106089003
v 0.148450002 1.21914005 0.106206998
v -0.222625002 1.34988999 0.107182004
v 0.0731312037 1.40829003 0.107534997
v 0.145651996 1.18511999 0.107735001
v 0.147248 1.28342998 0.107785001
v -0.270464987 1.19240999 0.108254001
v 0.145456001 1.25427997 0.107978001
v 0.101746999 1.37066996 0.108553998
v 0.124458 1.14892006 0.109222002
v -0.120421998 0.869219005 0.109668002
v 0.0832792968 1.39286995 0.110735998
v 0.112305999 1.13489997 0.110904999
v -0.172073007 1.20104003 0.111235999
v 0.0976478979 1.09527004 0.11208
v 0.141081005 1.21352994 0.112372003
v -0.134722993 1.43011999 0.113242
v -0.133578002 1.18215001 0.113681003
v -0.127182007 1.11661994 0.114138
v 0.0887221023 0.920036972 0.114104003
v 0.0879141986 1.00774002 0.114514999
v 0.130447 1.30267 0.114580996
v -0.131724 1.21449995 0.115671001
v -0.112258002 0.950742006 0.116057001
v -0.112294003 0.996829987 0.116167001
v -0.262764007 1.20984995 0.116375998
v 0.0885701999 1.07005 0.117564
v -0.0596095994 1.44708002 0.117816001
v -0.253675997 1.23816001 0.118726999
v -0.210916996 1.36647999 0.118998997
v 0.0966453031 1.13273001 0.118992999
v -0.121710002 1.42815006 0.119787
v -0.104097001 1.43071997 0.120269001
v -0.0821643993 1.43300998 0.121416003
v 0.105792001 1.17124999 0.121449001
v -0.124661997 0.83237797 0.121847004
v -0.194407001 1.40511 0.122144997
v -0.127545998 1.16815996 0.122753002
v -0.130557001 0.792662024 0.122922003
v -0.111020997 1.04349005 0.122945003
v 0.128408998 1.24001002 0.122798003
v -0.177279994 1.20283997 0.124044001
v 0.0558127984 1.40347004 0.124192998
v -0.139765993 1.23645997 0.124407001
v -0.114517003 1.09613001 0.125144005
v 0.0685075 1.38141 0.125070006
v 0.115750998 1.21344995 0.125323996
v 0.105816998 1.32228994 0.125338003
v 0.0806659982 1.04630995 0.125378996
v -0.233583003 1.29664004 0.126103997
v 0.0836972967 1.10610998 0.126003996
v -0.26394099 1.19395995 0.126937002
v 0.0887323022 1.34669995 0.127366006
v -0.158849999 1.41367996 0.129278004
v -0.189209998 1.17166996 0.129449993
v -0.181231007 1.40937996 0.129765004
v -0.125789002 1.2299 0.130285993
v -0.224857002 1.31693995 0.130706996
v 0.0926664993 1.19082999 0.131451994
v -0.109963 0.941864014 0.131809995
v 0.106004998 1.29207003 0.132029995
v 0.0349696986 1.40138996 0.132668003
v -0.107100002 0.990754008 0.133061007
v 0.0742273033 0.994342983 0.133055001
v -0.16347 1.22591996 0.133334994
v 0.0891392976 1.32448006 0.133306995
v -0.0462636016 1.43453002 0.133531004
v 0.0814692974 1.16472995 0.13425
v 0.0621400997 1.35302997 0.135224998
v -0.197536007 1.37447 0.135734007
v -0.250804007 1.21519005 0.135861993
v -0.123779997 0.80647999 0.135888994
v -0.121358 0.835368991 0.136118993
v 0.0721468031 0.828372002 0.135973006
v -0.115925997 0.886382997 0.137519002
v -0.0534263998 1.41763997 0.137706995
v -0.208083004 1.34704006 0.137958005
v -0.084662497 1.40806997 0.138076007
v 0.105903 1.25767004 0.137983993
v -0.104376003 1.03170002 0.138588995
v -0.184518993 1.39822996 0.138809994
v -0.246518001 1.23637998 0.139229998
v 0.0135120004 1.40452003 0.140163004
v -0.110449001 0.929131985 0.140654996
v -0.177848995 1.20081997 0.140933007
v 0.0707464963 1.15103996 0.140986994
v -0.137803003 1.25538003 0.141555995
v 0.0877956003 1.23731005 0.141470999
v 0.0669594035 0.902251005 0.141956002
v -0.218281999 1.31298995 0.142355993
v -0.0400124006 1.41320002 0.142335996
v -0.132616997 1.40486002 0.142462
v 0.0776859 1.21633005 0.142596006
v 0.0843100995 1.27225006 0.143500999
v -0.152390003 1.24591994 0.143778995
v -0.126596004 1.25128996 0.144795999
v 0.0643967018 1.11599004 0.144777998
v 0.0638642982 1.06244004 0.144791007
v -0.102199003 1.39874005 0.144985005
v 0.0137737999 1.3915 0.144914001
v -0.101804003 1.07658005 0.145539001
v -0.104663998 1.14194 0.145860001
v -0.229120001 1.27760005 0.146458998
v 0.0186388995 1.37161005 0.146445006
v -0.122368999 0.792861998 0.146671996
v -0.234545007 1.26297998 0.146890998
v 0.0665111989 1.19698 0.146807
v -0.260147989 1.19641995 0.147809997
v 0.0582390986 1.31072998 0.147599995
v -0.238875002 1.25100005 0.148471996
v 0.0609950013 0.949693978 0.148269996
v 0.0683529004 1.24451005 0.148310006
v -0.204821005 1.32517004 0.148946002
v -0.0077161598 1.41233003 0.149501994
v -0.251800001 1.21455002 0.149902001
v -0.0287362002 1.42387998 0.149767995
v -0.117186002 0.80806601 0.150025994
v -0.184211001 1.36412001 0.150196001
v -0.190624997 1.34457004 0.150289997
v 0.0615210012 1.27938998 0.150362
v -0.165473998 1.39303005 0.150989994
v -0.115299001 0.836347997 0.151071995
v -0.11372 1.24122 0.151315004
v -0.137624994 1.27596998 0.151471004
v -0.0305744 1.39322996 0.151471004
v -0.178707004 1.38696003 0.151828006
v -0.103246003 1.17051005 0.152067006
v -0.193317994 1.17526996 0.152760997
v -0.11005 0.906889021 0.152853996
v -0.183062002 1.32420003 0.153182
v -0.0220737997 1.40318 0.153091997
v -0.0519093983 1.39173996 0.153632
v -0.217460006 1.28611004 0.153859004
v -0.098501198 1.10543001 0.153924003
v -0.150484994 1.26154995 0.154458001
v -0.104332998 0.968463004 0.154629007
v -0.106995001 1.21738994 0.154724002
v -0.101714 1.00349998 0.155028
v -0.114894003 1.38628995 0.155186996
v -0.124888003 1.27548003 0.155435994
v -0.175604999 1.30756998 0.155782998
v -0.169644997 1.22469997 0.155812994
v -0.111174002 0.876389027 0.155809
v -0.199621007 1.301 0.156182006
v -0.0107249003 1.38230002 0.156031996
v -0.160141006 1.24528003 0.156409994
v 0.0580645986 0.795065999 0.156257004
v -0.156735003 1.29922998 0.156769007
v -0.141738996 1.30565 0.157106996
v -0.163720995 1.32112002 0.157164007
v -0.151596993 1.27955997 0.157365993
v -0.183320999 1.20026004 0.157939002
v 0.0473699011 1.20595002 0.157884002
v 0.053836301 0.851635993 0.157937005
v -0.0277222991 1.37560999 0.158151001
v -0.167723998 1.34759998 0.158379003
v 0.0478493012 1.13873005 0.158342004
v 0.0431975015 1.27245998 0.158436999
v 0.0495081991 0.996410012 0.158508003
v 0.0122276004 1.33561003 0.158565
v -0.139988005 1.38251996 0.159196004
v -0.073975198 1.37767994 0.159244001
v 0.0435768999 1.24348998 0.159757003
v -0.122441001 1.29855001 0.160896003
v 0.0460968018 1.06298995 0.160769001
v -0.136023 1.33150005 0.161311999
v -0.0951220989 1.13853002 0.161649004
v -0.116558999 1.37349999 0.161994994
v -0.0914098024 1.37537003 0.162094995
v -0.130724996 1.35230994 0.162413001
v -0.0110301003 1.35424995 0.162376001
v -0.247216001 1.21680999 0.162718996
v -0.156498 1.38049996 0.163069993
v -0.179043993 1.27695 0.163196996
v 0.0302894004 1.28453004 0.163030997
v -0.230072007 1.24222004 0.163323998
v -0.0967518985 1.05018997 0.163368002
v -0.102581002 0.946213007 0.163601995
v -0.105972998 0.821393013 0.163706005
v -0.105279997 0.862987995 0.164082006
v -0.109337002 0.792863011 0.164166003
v -0.193639994 1.18691003 0.164468005
v -0.206065997 1.26640999 0.164837003
v 0.0453485996 0.896889985 0.164588004
v -0.0557493009 1.36363006 0.165021002
v -0.103619002 0.907625973 0.165454999
v -0.0878254026 1.36120999 0.165686995
v 0.0419767015 0.937346995 0.165972993
v -0.172685996 1.255 0.166465998
v -0.252463013 1.19699001 0.166639999
v -0.105627999 1.26970005 0.166539997
v -0.105163001 1.34397995 0.166574001
v -0.112196997 1.32201004 0.166645005
v -0.0977163017 0.986339986 0.167594999
v -0.0926306993 1.19198 0.168068007
v 0.0335372016 1.10588002 0.168286994
v -0.0958788022 1.01473999 0.168587998
v 0.0288034007 1.17084002 0.169176996
v -0.100199997 0.834671974 0.169820994
v -0.187628001 1.21489 0.170034006
v -0.204481006 1.24698997 0.170477003
v -0.0974033996 1.25607002 0.170432001
v 0.0451214984 0.795144975 0.170385003
v -0.102816999 1.29166996 0.171094
v 0.0322409011 1.01716995 0.171001002
v -0.240489006 1.21117997 0.171688005
v -0.188498005 1.22763002 0.172516003
v 0.0323942006 0.952777982 0.172446996
v 0.0193112008 1.22330999 0.172637001
v 0.0190019999 1.25163996 0.172889993
v -0.00310814008 1.29621994 0.173107997
v -0.0695108026 1.33230996 0.173466995
v -0.0956457034 0.857487023 0.173609003
v -0.223271996 1.22335994 0.173951
v -0.0181959998 1.31587005 0.173831999
v 0.0243140999 1.07002997 0.173947006
v -0.0886368975 1.12249994 0.174061999
v -0.0901269987 1.07467997 0.174089998
v -0.0879082978 1.31440997 0.174107999
v -0.199443996 1.23250997 0.174236
v -0.0952657983 0.923523009 0.174144
v -0.203752995 1.18140996 0.174280003
v -0.0933500007 0.813342988 0.174204007
v -0.0939487964 0.969244003 0.174808994
v 0.00414412981 1.27427006 0.174768001
v -0.0462777987 1.32492995 0.175209001
v 0.0357857011 0.837086022 0.175143003
v -0.0859721005 1.16092002 0.175688997
v -0.0935461 0.79290998 0.176440001
v 0.0278833993 0.89962399 0.177166998
v 0.0289152991 0.865405977 0.178014994
v -0.0329908989 1.30991995 0.178164005
v -0.0836613029 1.21950996 0.178737
v -0.237189993 1.19403994 0.178956002
v -0.222249001 1.20729995 0.178985
v -0.0878747031 0.884375989 0.178916007
v 0.0125080999 1.08948004 0.179241002
v 0.0055113798 1.17673004 0.179498002
v -0.0861667991 1.03778005 0.179782003
v 0.0301254001 0.816854 0.179740995
v -0.0814938992 1.20156002 0.179903999
v 0.0179083999 0.971800029 0.179848999
v -0.0866419002 0.992232025 0.180605993
v -0.00484349998 1.24501002 0.181107
v -0.0852067992 0.940306008 0.181327999
v -0.0803633034 0.811719 0.181420997
v -0.0820297971 1.28120005 0.181512997
v -0.0813938975 1.11796999 0.181664005
v 0.0114588002 1.00575995 0.181591004
v -0.219033003 1.18810999 0.182088003
v 0.0159948003 0.920105994 0.182033002
v -0.0670223981 1.2974 0.182347
v -0.0793804005 0.866259992 0.182609007
v -0.0786651 1.14848006 0.183152005
v -0.0807804987 1.24046004 0.183495
v -0.070293799 0.792994022 0.183514997
v 0.00159671996 1.08325005 0.183579996
v 0.0237681009 0.794915974 0.183741003
v -0.0243529007 1.27996004 0.184051007
v 0.0107658999 0.878920019 0.185011998
v -0.0711200014 0.843681991 0.185199007
v -0.0762436017 0.902634025 0.185204998
v -0.0092331497 1.14806998 0.185150996
v 0.0143718002 0.828906 0.185203001
v -0.0158725008 1.21531999 0.185506001
v -0.0759740993 1.10053003 0.185737997
v -0.078156203 1.02986002 0.185866997
v -0.000393339986 0.974709988 0.186127007
v 0.000739037991 0.918048978 0.186711997
v -0.0761258006 1.00036001 0.186875001
v -0.0432429984 1.27962995 0.186920002
v -0.0692811012 1.21244001 0.187098995
v -0.0748398975 0.97014302 0.187208995
v -0.0505275987 0.79330802 0.187263995
v -0.0708442032 1.16942 0.187581003
v -0.00935184024 1.02509999 0.187712997
v -0.00259328005 0.875818014 0.187824994
v -0.0695625991 0.93907702 0.187989995
v -0.0284876991 1.24070001 0.188022003
v -0.0730149969 1.07290006 0.188159004
v -0.0801104009 1.26666999 0.188283995
v -0.0151993996 1.07722998 0.188266993
v -0.0113372002 0.963989973 0.188428998
v 0.000575602986 0.821861982 0.188519001
v -0.0609866008 1.27250004 0.188654006
v -0.0651761964 1.24131 0.188708007
v -0.0578555986 0.894743979 0.189035997
v -0.0165443998 0.859422982 0.189351007
v -0.0320599005 0.829746008 0.189469993
v -0.0468145013 1.22851002 0.189492002
v -0.0129228001 0.794115007 0.189833999
v -0.0669142008 1.12810004 0.189921007
v -0.0354052 1.17764997 0.190048993
v -0.0205329992 0.926051021 0.190078005
v -0.0384741984 0.88548702 0.190296993
v -0.067034997 1.06054997 0.190405995
v -0.0566460006 1.19008005 0.190448001
v -0.0299602002 1.13001001 0.190437004
v -0.0636812001 1.02986002 0.190924004
v -0.0594483018 0.979885995 0.191018
v -0.0501056984 0.946631014 0.191025004
v -0.033130601 0.995706022 0.191131994
v -0.0614399016 1.09931004 0.191247001
v -0.0340622999 1.06689 0.191442996
v -0.0542237982 1.14277995 0.191708997
v -0.0505551994 1.01864004 0.192003995
v -0.0473890007 1.10072994 0.192285001
v -0.0534271002 1.07272005 0.192463994
v -0.0536024012 1.25386 0.193575993
f 264 240 243
f 378 299 330
f 377 354 291
f 467 389 416
f 123 210 188
f 123 188 130
f 246 282 239
f 443 376 390
f 177 221 266
f 228 141 209
f 236 177 255
f 141 73 110
f 255 309 300
f 14 25 8
f 309 266 303
f 255 300 236
f 298 228 288
f 29 93 73
f 76 97 93
f 110 236 209
f 250 209 236
f 236 304 250
f 471 561 469
f 270 313 248
f 401 344 407
f 354 430 386
f 337 407 344
f 393 321 392
f 389 467 424
f 386 469 416
f 408 370 357
f 110 209 141
f 333 370 399
f 408 399 370
f 471 419 473
f 85 91 83
f 377 291 319
f 253 291 258
f 450 377 364
f 93 177 236
f 430 419 471
f 354 419 430
f 520 561 471
f 354 473 419
f 64 117 97
f 354 377 473
f 260 274 308
f 64 60 41
f 96 221 114
f 177 266 255
f 137 221 96
f 157 286 231
f 304 236 300
f 177 117 114
f 236 110 93
f 258 199 253
f 619 706 655
f 706 753 655
f 583 619 655
f 246 301 282
f 297 353 276
f 209 288 228
f 123 104 172
f 288 209 250
f 97 177 93
f 379 365 343
f 468 518 460
f 424 408 357
f 65 95 63
f 428 582 492
f 304 288 250
f 428 368 329
f 428 437 582
f 311 345 275
f 582 642 627
f 710 757 801
f 801 757 770
f 177 114 221
f 770 838 801
f 718 740 752
f 117 177 97
f 296 260 308
f 777 788 825
f 139 118 174
f 812 769 816
f 262 291 354
f 812 756 769
f 170 175 199
f 769 777 816
f 849 808 785
f 672 729 785
f 76 64 97
f 264 274 240
f 38 55 64
f 114 55 96
f 246 172 257
f 266 299 303
f 303 361 309
f 299 221 282
f 137 176 221
f 188 176 137
f 176 188 239
f 299 282 330
f 130 67 61
f 239 282 221
f 137 130 188
f 172 210 123
f 40 104 32
f 411 342 376
f 172 246 210
f 210 239 188
f 210 246 239
f 342 411 359
f 32 104 123
f 411 376 443
f 282 301 359
f 239 221 176
f 221 299 266
f 282 359 330
f 330 359 378
f 385 346 365
f 104 59 150
f 244 257 150
f 301 342 359
f 378 359 434
f 342 301 257
f 376 342 307
f 378 361 303
f 257 172 150
f 150 172 104
f 61 6 19
f 331 344 401
f 293 271 337
f 401 374 331
f 331 265 293
f 265 315 321
f 293 337 344
f 296 337 271
f 331 293 344
f 260 296 223
f 337 296 308
f 271 225 223
f 102 148 128
f 223 296 271
f 260 159 240
f 159 223 162
f 265 331 315
f 315 331 374
f 293 265 225
f 162 225 167
f 315 392 321
f 265 186 167
f 225 162 223
f 203 109 186
f 265 167 225
f 225 271 293
f 167 125 162
f 260 223 159
f 49 57 36
f 424 357 389
f 313 370 333
f 370 313 357
f 269 313 333
f 313 310 357
f 357 310 389
f 183 248 206
f 389 310 270
f 416 389 351
f 310 313 270
f 306 351 389
f 351 386 416
f 469 467 416
f 386 430 469
f 386 306 354
f 351 306 386
f 583 544 514
f 839 706 844
f 660 742 706
f 839 753 706
f 835 707 753
f 844 706 742
f 404 428 492
f 410 395 385
f 718 710 642
f 594 642 582
f 718 770 757
f 757 710 718
f 642 710 627
f 785 810 837
f 582 627 562
f 562 492 582
f 486 513 550
f 703 657 665
f 550 513 594
f 642 594 525
f 756 715 769
f 816 777 825
f 769 721 777
f 721 769 715
f 849 904 923
f 904 849 837
f 868 808 923
f 849 785 837
f 808 868 838
f 758 810 729
f 810 785 729
f 785 740 672
f 606 703 729
f 758 729 703
f 740 785 808
f 606 525 510
f 672 617 606
f 525 500 510
f 606 487 552
f 552 600 633
f 525 606 617
f 500 458 510
f 487 606 510
f 510 458 487
f 441 381 402
f 600 552 540
f 657 600 623
f 600 657 633
f 525 513 500
f 487 540 552
f 464 487 440
f 440 396 447
f 623 540 535
f 396 440 402
f 447 464 440
f 464 447 540
f 500 513 441
f 395 447 396
f 535 508 536
f 617 642 525
f 594 513 525
f 535 447 508
f 672 718 642
f 672 642 617
f 486 441 513
f 671 652 632
f 500 441 458
f 458 440 487
f 440 458 402
f 447 535 540
f 438 457 447
f 527 508 457
f 631 685 671
f 632 610 536
f 527 536 508
f 607 632 536
f 632 652 635
f 508 447 457
f 395 410 447
f 438 447 410
f 535 536 610
f 535 610 623
f 635 623 610
f 486 437 441
f 582 437 486
f 394 441 437
f 527 607 536
f 607 671 632
f 635 652 644
f 610 632 635
f 623 635 644
f 395 367 346
f 346 385 395
f 381 394 328
f 193 191 263
f 438 410 457
f 373 326 327
f 349 323 326
f 644 656 623
f 656 665 623
f 486 550 582
f 295 290 327
f 191 193 158
f 415 409 379
f 191 234 263
f 365 410 385
f 234 259 295
f 263 234 295
f 263 295 326
f 409 410 365
f 318 343 365
f 409 365 379
f 318 365 346
f 326 295 327
f 373 349 326
f 326 323 263
f 328 323 381
f 323 328 281
f 410 409 457
f 256 267 292
f 409 460 457
f 715 689 666
f 518 527 460
f 605 518 589
f 605 631 607
f 460 527 457
f 234 187 259
f 318 346 327
f 253 175 256
f 281 263 323
f 235 192 193
f 158 164 144
f 259 290 295
f 311 281 328
f 235 263 281
f 311 235 281
f 75 98 124
f 327 290 283
f 192 235 184
f 158 193 192
f 235 193 263
f 226 164 184
f 164 173 163
f 192 164 158
f 102 100 126
f 192 184 164
f 164 226 173
f 143 144 164
f 256 235 267
f 235 226 184
f 256 226 235
f 163 173 175
f 200 174 170
f 235 311 275
f 368 404 364
f 275 345 329
f 235 275 267
f 292 291 256
f 329 267 275
f 143 163 153
f 143 164 163
f 175 226 256
f 124 191 158
f 129 158 144
f 103 129 144
f 124 158 129
f 100 85 88
f 103 144 143
f 227 264 243
f 100 103 118
f 156 98 187
f 318 317 343
f 583 655 624
f 788 852 825
f 343 347 379
f 175 253 199
f 253 256 291
f 173 226 175
f 319 291 292
f 86 124 129
f 129 103 86
f 124 156 191
f 202 199 229
f 229 199 258
f 233 229 258
f 143 118 103
f 153 118 143
f 126 118 139
f 197 148 126
f 100 118 126
f 216 154 185
f 174 205 139
f 227 243 238
f 126 139 197
f 126 148 102
f 139 211 197
f 243 197 238
f 88 103 100
f 103 77 86
f 77 103 74
f 91 102 128
f 115 159 162
f 91 128 115
f 102 91 85
f 74 103 88
f 415 468 460
f 509 586 547
f 704 726 661
f 179 128 148
f 128 179 240
f 162 125 115
f 240 179 243
f 179 148 197
f 102 85 100
f 74 85 66
f 86 75 124
f 124 98 156
f 238 197 211
f 227 238 216
f 74 88 85
f 83 66 85
f 49 53 66
f 75 77 62
f 75 86 77
f 74 62 77
f 74 53 62
f 187 234 156
f 53 74 66
f 98 75 69
f 83 49 66
f 45 62 53
f 75 48 69
f 48 75 62
f 45 42 48
f 45 48 62
f 33 47 48
f 94 98 69
f 187 98 94
f 47 69 48
f 58 69 47
f 33 48 42
f 58 94 69
f 94 194 187
f 107 68 83
f 167 90 107
f 33 37 47
f 37 33 18
f 33 36 21
f 42 45 36
f 65 34 43
f 91 115 83
f 125 83 115
f 83 125 107
f 83 68 49
f 33 42 36
f 36 45 49
f 115 128 159
f 240 159 128
f 63 113 59
f 109 65 57
f 36 57 43
f 68 107 90
f 68 57 49
f 68 90 57
f 167 107 125
f 95 109 155
f 339 406 390
f 63 34 65
f 167 186 90
f 109 90 186
f 65 43 57
f 43 34 36
f 21 36 34
f 37 58 47
f 33 21 18
f 186 265 203
f 285 203 265
f 7 4 18
f 265 321 285
f 321 336 285
f 63 28 34
f 40 32 7
f 294 285 336
f 400 336 393
f 393 336 321
f 34 28 7
f 55 67 96
f 18 21 7
f 18 17 37
f 40 28 59
f 471 469 430
f 319 368 364
f 329 368 319
f 329 319 292
f 329 292 267
f 428 329 345
f 394 345 311
f 364 377 319
f 110 73 93
f 93 29 54
f 14 5 25
f 54 60 76
f 266 309 255
f 378 303 299
f 359 411 434
f 244 307 257
f 390 307 339
f 113 230 244
f 294 307 244
f 307 390 376
f 294 339 307
f 400 339 336
f 244 150 113
f 146 214 230
f 294 230 214
f 294 214 285
f 336 339 294
f 285 214 203
f 61 123 130
f 257 301 246
f 307 342 257
f 308 274 264
f 260 240 274
f 374 392 315
f 248 313 269
f 269 206 248
f 183 206 145
f 145 135 160
f 183 232 248
f 258 262 233
f 291 262 258
f 354 306 262
f 270 262 306
f 229 233 217
f 233 270 217
f 174 118 170
f 202 170 199
f 165 154 195
f 270 232 217
f 202 229 217
f 198 160 169
f 217 183 160
f 270 233 262
f 217 232 183
f 135 140 169
f 198 217 160
f 202 217 198
f 175 170 163
f 753 707 655
f 287 322 320
f 878 835 839
f 771 835 847
f 707 624 655
f 835 753 839
f 771 693 707
f 533 619 514
f 707 693 624
f 847 746 771
f 355 426 439
f 771 707 835
f 426 533 439
f 514 619 583
f 514 439 533
f 363 355 439
f 544 474 514
f 624 544 583
f 677 624 693
f 412 439 474
f 544 614 546
f 363 439 412
f 514 474 439
f 412 405 363
f 360 426 355
f 322 355 320
f 363 320 355
f 360 355 322
f 297 277 320
f 277 287 320
f 360 334 391
f 391 506 426
f 391 426 360
f 405 353 363
f 297 363 353
f 222 161 220
f 276 207 297
f 218 287 277
f 297 207 277
f 277 207 218
f 474 448 405
f 207 220 111
f 405 412 474
f 207 276 278
f 278 220 207
f 207 111 136
f 220 161 111
f 218 207 136
f 474 546 448
f 502 466 448
f 353 335 276
f 220 272 222
f 161 194 94
f 272 278 302
f 405 448 353
f 353 417 382
f 335 353 382
f 222 272 261
f 27 111 46
f 27 136 111
f 119 71 72
f 46 111 81
f 27 13 51
f 278 276 335
f 220 278 272
f 222 245 194
f 403 338 335
f 261 272 317
f 222 261 245
f 302 278 335
f 335 382 417
f 417 446 403
f 468 427 485
f 417 403 335
f 403 446 495
f 302 317 272
f 427 383 403
f 302 335 338
f 302 338 317
f 245 261 283
f 261 318 283
f 222 194 161
f 194 252 187
f 194 245 252
f 252 245 283
f 111 161 81
f 161 94 81
f 94 58 82
f 82 81 94
f 82 52 81
f 30 52 39
f 52 46 81
f 327 283 318
f 290 252 283
f 770 718 752
f 594 582 550
f 756 719 715
f 631 689 719
f 631 605 648
f 719 689 715
f 689 648 629
f 666 721 715
f 721 645 661
f 721 788 777
f 721 726 788
f 721 666 645
f 602 645 666
f 666 689 629
f 923 808 849
f 752 740 808
f 752 808 806
f 672 740 718
f 606 729 672
f 657 703 633
f 703 606 633
f 552 633 606
f 464 540 487
f 631 671 607
f 607 527 605
f 685 631 719
f 689 631 648
f 373 327 367
f 518 547 589
f 527 518 605
f 629 602 666
f 648 605 589
f 629 589 602
f 648 589 629
f 394 381 441
f 381 349 373
f 373 396 402
f 402 381 373
f 323 349 381
f 395 396 367
f 415 460 409
f 118 153 170
f 180 211 139
f 468 415 427
f 347 383 415
f 415 383 427
f 509 468 485
f 509 485 568
f 485 403 495
f 343 317 347
f 338 403 383
f 383 347 338
f 338 347 317
f 347 415 379
f 261 317 318
f 547 518 468
f 602 589 547
f 509 547 468
f 547 586 645
f 586 630 661
f 602 547 645
f 661 726 721
f 586 661 645
f 630 634 704
f 630 704 661
f 634 630 599
f 788 819 852
f 179 197 243
f 191 156 234
f 45 53 49
f 109 57 90
f 28 63 59
f 59 113 150
f 59 104 40
f 146 113 63
f 230 113 146
f 7 28 40
f 6 3 1
f 32 123 61
f 32 19 7
f 32 61 19
f 130 137 67
f 61 67 22
f 2 6 1
f 137 96 67
f 22 6 61
f 41 38 64
f 3 22 11
f 22 67 55
f 6 22 3
f 38 11 55
f 64 55 114
f 117 64 114
f 34 7 21
f 2 19 6
f 15 9 3
f 22 55 11
f 24 26 10
f 23 41 44
f 41 60 44
f 44 24 31
f 41 11 38
f 60 64 76
f 60 54 44
f 76 93 54
f 26 44 54
f 24 44 26
f 29 20 54
f 54 20 26
f 11 41 23
f 3 11 23
f 1 3 9
f 26 20 14
f 24 12 31
f 31 12 23
f 23 15 3
f 9 17 1
f 26 14 10
f 16 46 30
f 15 23 12
f 5 50 25
f 14 8 10
f 31 23 44
f 25 50 56
f 24 10 12
f 203 155 109
f 155 203 214
f 400 472 406
f 37 17 39
f 364 404 450
f 428 404 368
f 345 394 437
f 437 428 345
f 328 394 311
f 29 5 20
f 14 20 5
f 400 406 339
f 244 230 294
f 109 95 65
f 155 146 95
f 183 145 160
f 389 270 306
f 232 270 248
f 169 160 135
f 169 165 181
f 208 174 200
f 198 169 181
f 180 215 211
f 198 181 201
f 218 119 231
f 51 56 84
f 660 533 506
f 533 660 619
f 706 619 660
f 786 847 865
f 746 847 786
f 771 746 693
f 800 750 786
f 750 702 746
f 851 786 865
f 750 746 786
f 786 851 800
f 746 702 638
f 638 702 680
f 750 762 702
f 568 495 511
f 845 800 851
f 502 448 546
f 417 466 446
f 511 502 564
f 614 638 564
f 546 614 564
f 614 677 638
f 502 546 564
f 544 546 474
f 638 677 746
f 677 693 746
f 544 624 614
f 614 624 677
f 363 297 320
f 287 218 231
f 72 71 51
f 71 27 51
f 56 51 35
f 16 27 46
f 8 25 35
f 16 12 13
f 12 10 8
f 35 25 56
f 58 52 82
f 290 259 252
f 30 46 52
f 39 9 30
f 806 808 838
f 770 806 838
f 752 806 770
f 665 657 623
f 623 600 540
f 367 327 346
f 202 198 201
f 201 170 202
f 208 205 174
f 227 216 185
f 403 485 427
f 485 495 568
f 819 788 726
f 734 751 678
f 726 704 751
f 819 726 751
f 678 751 704
f 734 799 819
f 704 634 678
f 751 734 819
f 586 599 630
f 599 586 509
f 568 634 599
f 511 597 568
f 678 634 658
f 762 799 734
f 680 762 734
f 734 678 658
f 680 658 597
f 658 680 734
f 252 259 187
f 95 146 63
f 19 2 4
f 4 2 1
f 4 1 17
f 17 9 39
f 9 15 30
f 155 214 146
f 165 169 140
f 140 154 165
f 195 154 216
f 215 216 211
f 208 195 205
f 181 165 208
f 208 165 195
f 181 208 200
f 181 200 201
f 170 201 200
f 231 286 287
f 334 287 286
f 322 287 334
f 119 84 157
f 119 72 84
f 80 157 84
f 231 119 157
f 391 334 286
f 533 426 506
f 799 800 845
f 819 799 845
f 800 762 750
f 799 762 800
f 702 762 680
f 136 119 218
f 71 119 136
f 27 71 136
f 13 8 35
f 8 13 12
f 13 27 16
f 15 12 16
f 15 16 30
f 51 84 72
f 84 56 80
f 80 56 50
f 51 13 35
f 39 58 37
f 39 52 58
f 170 153 163
f 139 205 180
f 180 205 215
f 216 238 211
f 509 568 599
f 568 597 634
f 658 634 597
f 511 564 597
f 680 597 638
f 18 4 17
f 19 4 7
f 205 195 215
f 216 215 195
f 597 564 638
f 502 511 466
f 446 511 495
f 446 466 511
f 458 441 402
f 360 322 334
f 448 466 417
f 448 417 353
f 396 373 367
f 503 482 515
f 611 651 618
f 1152 1138 1119
f 1071 1114 1086
f 1037 1040 1023
f 797 728 745
f 477 400 393
f 960 974 926
f 1028 988 1040
f 1162 1141 1156
f 503 442 482
f 942 903 940
f 839 844 906
f 1035 1037 1059
f 1059 1054 1035
f 839 906 903
f 723 687 765
f 988 1028 959
f 856 885 890
f 816 856 812
f 1060 1071 1086
f 923 988 921
f 867 812 856
f 640 622 681
f 455 408 424
f 566 558 636
f 948 923 904
f 991 1007 1031
f 993 1040 988
f 921 988 959
f 775 795 705
f 1071 1058 1114
f 714 643 653
f 408 488 482
f 1060 1031 1071
f 1035 1006 1028
f 899 866 838
f 553 574 539
f 1040 1037 1028
f 884 838 868
f 1086 1114 1119
f 988 923 948
f 1031 1060 1033
f 943 901 945
f 1072 1109 1075
f 1031 1033 1016
f 1060 1086 1059
f 1079 1059 1086
f 1033 1060 1059
f 371 298 356
f 288 356 298
f 1028 1006 959
f 868 921 884
f 425 356 369
f 515 482 488
f 965 1026 978
f 868 923 921
f 935 974 953
f 392 481 393
f 557 493 491
f 553 503 515
f 998 992 1012
f 620 643 654
f 888 836 916
f 593 620 551
f 924 1004 990
f 571 539 574
f 643 714 705
f 593 643 620
f 503 553 539
f 641 573 640
f 520 626 561
f 636 561 626
f 488 541 573
f 1035 1028 1037
f 561 558 469
f 553 611 574
f 869 883 872
f 618 601 571
f 993 988 948
f 557 504 570
f 1037 1023 1033
f 504 491 453
f 407 453 493
f 515 488 573
f 491 504 557
f 618 643 603
f 636 622 566
f 553 515 573
f 482 442 408
f 571 574 618
f 921 959 899
f 442 399 408
f 991 1031 1016
f 643 593 603
f 504 551 570
f 1079 1054 1059
f 999 1052 1022
f 1079 1052 1054
f 1052 999 1029
f 1059 1037 1033
f 618 603 601
f 794 712 743
f 971 1027 936
f 798 843 813
f 654 643 705
f 795 737 705
f 737 654 705
f 551 620 570
f 654 570 620
f 557 570 613
f 831 873 843
f 687 654 737
f 570 654 613
f 894 916 836
f 654 687 613
f 737 765 687
f 798 737 795
f 737 798 765
f 618 574 611
f 622 541 566
f 618 651 653
f 643 618 653
f 966 959 1006
f 1006 1035 1036
f 723 676 687
f 813 765 798
f 869 872 832
f 1036 966 1006
f 1054 1029 1036
f 1036 1029 966
f 1052 1029 1054
f 1029 999 945
f 793 723 765
f 793 765 813
f 687 676 613
f 745 793 790
f 580 613 676
f 745 675 676
f 813 842 793
f 745 676 723
f 793 832 790
f 675 696 646
f 580 557 613
f 675 604 676
f 676 604 580
f 646 647 616
f 646 604 675
f 647 646 696
f 646 616 604
f 401 493 444
f 797 745 790
f 748 761 730
f 900 866 899
f 921 899 884
f 838 884 899
f 999 992 958
f 945 999 943
f 966 1029 945
f 901 858 900
f 959 900 899
f 493 557 580
f 493 580 481
f 491 493 453
f 407 493 401
f 831 843 798
f 842 832 793
f 900 959 966
f 966 945 900
f 900 945 901
f 1052 1079 1093
f 1022 992 999
f 1093 1038 1022
f 999 958 943
f 1099 1082 1093
f 1093 1022 1052
f 1012 1022 1038
f 1012 1038 971
f 1012 967 998
f 481 392 444
f 604 481 580
f 401 444 374
f 493 481 444
f 875 842 813
f 927 951 1003
f 866 900 858
f 801 866 858
f 481 590 477
f 840 831 795
f 875 813 843
f 832 842 869
f 590 481 616
f 393 481 477
f 869 842 875
f 1119 1138 1093
f 1082 1038 1093
f 1126 1099 1138
f 1099 1093 1138
f 1114 1148 1152
f 883 869 908
f 797 790 832
f 869 875 908
f 883 914 872
f 914 883 908
f 669 609 670
f 1078 1099 1126
f 1027 1038 1082
f 971 1038 1027
f 1078 1027 1082
f 1082 1099 1078
f 1042 976 1027
f 1119 1093 1079
f 1058 1148 1114
f 856 890 867
f 1122 1148 1069
f 1148 1122 1153
f 1152 1119 1114
f 841 832 872
f 793 745 723
f 1176 1138 1152
f 1126 1092 1078
f 987 976 1042
f 891 865 847
f 1176 1148 1153
f 1148 1176 1152
f 889 928 873
f 946 908 873
f 1111 1092 1126
f 908 946 914
f 1042 1027 1078
f 1078 1092 1042
f 920 976 933
f 1132 1111 1146
f 1153 1157 1176
f 1104 1065 1105
f 1164 1157 1153
f 1176 1146 1138
f 1138 1146 1126
f 845 886 819
f 1164 1153 1139
f 946 955 914
f 873 908 875
f 946 873 928
f 1020 979 1030
f 1025 1042 1077
f 1030 1025 1077
f 979 960 955
f 1025 987 1042
f 1111 1126 1146
f 873 875 843
f 1024 953 974
f 955 926 914
f 798 795 831
f 831 840 873
f 691 681 760
f 902 872 914
f 946 961 955
f 987 1025 1030
f 976 987 961
f 955 961 979
f 926 955 960
f 979 987 1030
f 863 915 860
f 928 976 961
f 928 933 976
f 1020 1024 974
f 979 961 987
f 946 928 961
f 889 915 928
f 928 915 933
f 976 920 936
f 974 960 979
f 889 860 915
f 779 760 815
f 873 860 889
f 1020 974 979
f 1030 1065 1020
f 1045 1003 951
f 1105 1065 1076
f 1020 1065 1024
f 1065 1063 1024
f 1154 1120 1128
f 1139 1100 1108
f 951 996 1045
f 953 1024 964
f 939 906 972
f 906 939 903
f 939 984 989
f 903 939 940
f 989 940 939
f 1090 1113 1066
f 989 1046 1066
f 839 903 878
f 972 1048 984
f 942 940 1010
f 903 942 878
f 1010 940 989
f 1080 1047 1066
f 1046 989 984
f 984 1048 1046
f 1080 1066 1113
f 989 1066 1047
f 1090 1066 1046
f 1080 1113 1128
f 1123 1128 1113
f 1010 1047 1080
f 1103 1080 1120
f 1080 1053 1010
f 1047 1010 989
f 1010 1053 996
f 996 942 1010
f 1151 1155 1156
f 1141 1162 1154
f 1161 1162 1155
f 1141 1154 1128
f 1048 1090 1046
f 1113 1096 1123
f 1096 1113 1090
f 878 942 951
f 835 951 927
f 951 942 996
f 835 878 951
f 1128 1123 1141
f 1128 1120 1080
f 1053 1088 1045
f 1091 1061 1003
f 847 927 891
f 835 927 847
f 1151 1156 1158
f 891 1003 930
f 1155 1162 1156
f 1125 1151 1158
f 865 891 930
f 1088 1080 1103
f 1112 1091 1088
f 1158 1156 1141
f 1070 1107 1125
f 1107 1131 1125
f 1053 1045 996
f 1167 1145 1168
f 1145 1140 1112
f 1112 1140 1091
f 1154 1168 1145
f 1140 1145 1167
f 865 930 892
f 930 947 892
f 907 845 851
f 1088 1091 1045
f 1091 1003 1045
f 851 865 892
f 851 892 907
f 1145 1129 1154
f 1154 1162 1168
f 1166 1163 1134
f 930 1005 947
f 1140 1110 1091
f 845 907 912
f 1166 1137 1167
f 1110 1134 1106
f 1167 1168 1169
f 1140 1137 1110
f 1134 1110 1137
f 1140 1167 1137
f 1061 1091 1110
f 1061 1110 1064
f 1163 1166 1175
f 1110 1106 1064
f 1005 1044 947
f 1169 1173 1167
f 1169 1168 1161
f 1161 1150 1169
f 1150 1161 1135
f 1109 1116 1135
f 1134 1137 1166
f 1136 1118 1135
f 1171 1143 1149
f 1166 1167 1173
f 1166 1173 1171
f 1175 1166 1171
f 1136 1135 1161
f 1144 1151 1127
f 673 809 830
f 1135 1118 1109
f 1134 1163 1106
f 1127 1136 1161
f 1118 1075 1109
f 1130 1160 1165
f 1171 1173 1169
f 1175 1147 1163
f 1163 1147 1106
f 1133 1147 1170
f 1133 1085 1147
f 1174 1165 1172
f 1133 1115 1085
f 1136 1127 1118
f 1097 1118 1127
f 1097 1075 1118
f 1143 1135 1116
f 1150 1143 1169
f 1075 1026 1072
f 1072 1116 1109
f 1124 1116 1104
f 1124 1143 1116
f 1072 1032 1083
f 1026 1032 1072
f 1055 1026 1075
f 1055 1075 1097
f 978 1055 1051
f 625 548 598
f 1055 978 1026
f 956 978 1051
f 543 609 529
f 887 931 978
f 978 931 965
f 888 916 931
f 434 516 454
f 887 888 931
f 529 579 524
f 803 836 888
f 390 406 483
f 856 825 885
f 911 867 924
f 816 825 856
f 852 905 885
f 994 1004 905
f 994 1062 1004
f 905 1004 924
f 905 852 819
f 963 924 990
f 994 905 886
f 905 924 885
f 890 885 924
f 912 994 886
f 969 1084 1034
f 1062 1108 1004
f 969 994 912
f 969 1034 994
f 990 1004 1069
f 1095 1062 994
f 1100 1004 1108
f 1122 1139 1153
f 1122 1004 1100
f 991 954 1007
f 963 911 924
f 422 425 369
f 366 304 300
f 369 356 288
f 288 304 369
f 304 366 369
f 356 425 456
f 371 356 436
f 352 309 361
f 422 369 366
f 425 422 463
f 456 521 565
f 463 521 425
f 300 309 366
f 352 366 309
f 694 636 626
f 558 561 636
f 455 541 488
f 566 497 467
f 469 558 467
f 467 558 566
f 541 497 566
f 424 467 497
f 640 691 641
f 791 681 733
f 681 691 640
f 681 636 733
f 636 694 733
f 791 760 681
f 681 622 636
f 541 622 640
f 833 879 791
f 553 573 611
f 779 691 760
f 743 691 779
f 651 641 743
f 573 641 611
f 860 840 821
f 760 791 815
f 879 913 876
f 640 573 541
f 455 424 497
f 408 455 488
f 541 455 497
f 1119 1079 1086
f 714 775 705
f 1036 1035 1054
f 481 604 616
f 609 579 529
f 943 895 901
f 444 392 374
f 858 901 895
f 1012 992 1022
f 958 992 998
f 838 866 801
f 1012 971 967
f 647 590 616
f 590 496 477
f 543 529 472
f 477 496 472
f 524 476 443
f 639 579 609
f 543 590 628
f 628 609 543
f 411 443 476
f 761 804 805
f 628 670 609
f 639 609 669
f 524 579 516
f 543 496 590
f 732 667 736
f 768 736 730
f 443 483 524
f 579 639 598
f 516 579 598
f 732 625 639
f 732 639 667
f 524 516 476
f 390 483 443
f 667 639 669
f 598 639 625
f 778 736 768
f 735 732 778
f 625 732 735
f 730 669 670
f 476 516 434
f 670 683 730
f 853 817 834
f 517 516 598
f 598 548 517
f 683 670 628
f 683 628 647
f 728 748 683
f 817 811 834
f 778 811 817
f 621 569 548
f 730 736 669
f 805 834 811
f 805 811 768
f 811 778 768
f 772 817 826
f 625 735 695
f 853 826 817
f 792 820 850
f 768 761 805
f 804 761 748
f 730 761 768
f 804 834 805
f 683 748 730
f 683 647 728
f 728 797 748
f 647 696 728
f 745 728 696
f 675 745 696
f 804 748 797
f 877 854 826
f 841 853 834
f 877 826 853
f 841 834 804
f 898 902 935
f 804 797 841
f 832 841 797
f 872 853 841
f 877 853 872
f 971 936 967
f 967 936 913
f 876 863 815
f 791 879 876
f 915 863 876
f 920 876 913
f 936 920 913
f 876 815 791
f 802 833 791
f 802 791 733
f 976 936 1027
f 1077 1092 1111
f 1042 1092 1077
f 1077 1111 1076
f 775 840 795
f 860 873 840
f 775 794 840
f 821 840 794
f 653 712 714
f 926 902 914
f 1076 1030 1077
f 1030 1076 1065
f 1105 1076 1111
f 1111 1132 1105
f 1160 1146 1157
f 1157 1146 1176
f 1160 1132 1146
f 1164 1160 1157
f 1084 1121 1095
f 926 974 935
f 880 902 898
f 984 939 972
f 1090 1048 1096
f 1125 1131 1151
f 1070 1014 1094
f 1107 1094 1131
f 941 1014 830
f 891 927 1003
f 1005 930 1003
f 1064 1005 1061
f 1129 1088 1103
f 1088 1129 1112
f 1145 1112 1129
f 1120 1129 1103
f 886 845 912
f 892 947 907
f 1005 1003 1061
f 1044 1005 1064
f 1044 1064 1106
f 1085 1044 1106
f 1147 1085 1106
f 968 1044 1001
f 1085 1001 1044
f 1085 1084 1001
f 1154 1129 1120
f 1149 1165 1171
f 1143 1150 1135
f 1072 1104 1116
f 1083 1104 1072
f 1051 1097 1098
f 1097 1051 1055
f 965 1032 1026
f 964 1024 965
f 882 894 850
f 894 965 916
f 918 965 894
f 854 820 826
f 850 894 836
f 850 836 792
f 850 854 882
f 880 898 882
f 965 1024 1032
f 882 918 894
f 898 918 882
f 882 854 880
f 1032 1063 1083
f 1083 1063 1104
f 1063 1032 1024
f 1124 1149 1143
f 724 695 772
f 759 773 792
f 708 724 773
f 724 682 695
f 820 773 772
f 772 695 735
f 820 772 826
f 877 880 854
f 850 820 854
f 916 965 931
f 890 924 867
f 911 963 954
f 963 990 1058
f 1007 963 1058
f 963 1007 954
f 1058 1031 1007
f 852 885 825
f 886 905 819
f 1095 1034 1084
f 1159 1115 1133
f 1084 1115 1121
f 1142 1121 1159
f 1164 1142 1172
f 1142 1164 1139
f 969 1001 1084
f 912 1001 969
f 1142 1139 1108
f 1108 1062 1095
f 1132 1160 1130
f 1164 1172 1160
f 1165 1160 1172
f 1159 1174 1172
f 1133 1170 1159
f 1171 1174 1175
f 1130 1165 1149
f 1171 1165 1174
f 1095 1142 1108
f 1139 1122 1100
f 1122 1069 1004
f 673 576 565
f 436 456 565
f 576 436 565
f 456 436 356
f 435 352 361
f 555 521 463
f 425 521 456
f 526 584 555
f 555 698 521
f 565 521 698
f 526 555 463
f 782 673 565
f 526 463 494
f 494 463 422
f 429 422 366
f 555 584 662
f 555 692 698
f 782 565 698
f 662 692 555
f 830 576 673
f 725 708 759
f 782 698 789
f 887 782 789
f 673 782 809
f 941 956 1021
f 809 782 887
f 956 887 978
f 888 887 789
f 956 941 887
f 1021 956 1051
f 662 755 692
f 941 1021 1014
f 803 755 836
f 836 755 792
f 773 759 708
f 692 755 803
f 1094 1021 1051
f 792 755 725
f 725 608 649
f 725 759 792
f 423 494 429
f 725 649 708
f 545 494 499
f 789 692 803
f 608 662 584
f 682 724 708
f 682 649 612
f 637 695 682
f 695 637 621
f 625 621 548
f 625 695 621
f 708 649 682
f 637 682 612
f 569 499 528
f 499 569 612
f 378 454 413
f 611 641 651
f 691 743 641
f 821 794 743
f 779 815 821
f 743 779 821
f 794 775 712
f 714 712 775
f 712 653 651
f 743 712 651
f 876 920 915
f 863 860 821
f 477 472 400
f 496 543 472
f 483 472 529
f 524 483 529
f 472 483 406
f 736 667 669
f 772 735 778
f 772 778 817
f 772 773 724
f 476 434 411
f 516 517 454
f 378 434 454
f 548 480 454
f 480 528 475
f 413 454 480
f 480 475 413
f 378 413 361
f 435 413 475
f 435 499 423
f 361 413 435
f 499 475 528
f 454 517 548
f 778 732 736
f 1105 1132 1130
f 935 902 926
f 902 880 877
f 872 902 877
f 1094 1014 1021
f 1070 1094 1107
f 1151 1131 1127
f 1131 1098 1127
f 1080 1088 1053
f 968 912 907
f 968 907 947
f 968 947 1044
f 912 968 1001
f 1084 1085 1115
f 1171 1169 1143
f 918 964 965
f 953 964 918
f 898 953 918
f 953 898 935
f 1130 1124 1105
f 1105 1124 1104
f 1149 1124 1130
f 792 773 820
f 1069 1058 990
f 1148 1058 1069
f 1031 1058 1071
f 1159 1170 1174
f 1175 1174 1170
f 1147 1175 1170
f 1034 1095 994
f 1142 1095 1121
f 1159 1121 1115
f 1172 1142 1159
f 429 366 423
f 366 352 423
f 423 352 435
f 422 429 494
f 612 545 499
f 499 435 475
f 612 608 545
f 649 608 612
f 608 526 545
f 423 499 494
f 608 584 526
f 526 494 545
f 698 692 789
f 803 888 789
f 887 941 830
f 887 830 809
f 755 662 725
f 662 608 725
f 569 621 637
f 569 637 612
f 528 480 548
f 863 821 815
f 1151 1144 1155
f 1094 1098 1131
f 1098 1094 1051
f 1098 1097 1127
f 1104 1063 1065
f 528 548 569
f 1161 1168 1162
f 1127 1161 1144
f 1161 1155 1144
f 590 647 628
f 933 915 920
f 787 754 828
f 787 828 846
f 720 684 697
f 823 783 796
f 796 827 823
f 823 881 828
f 763 744 731
f 812 827 796
f 828 881 846
f 814 874 829
f 812 867 827
f 754 744 783
f 828 783 823
f 749 719 756
f 911 861 867
f 722 685 719
f 685 722 688
f 783 744 763
f 722 749 699
f 650 674 656
f 650 652 659
f 688 659 671
f 754 783 828
f 688 671 685
f 766 764 727
f 1039 1057 1073
f 952 922 909
f 796 739 812
f 739 756 812
f 952 995 922
f 995 1049 1089
f 754 787 741
f 1101 1102 1073
f 1101 1073 1057
f 1067 1117 1089
f 922 846 909
f 881 861 909
f 909 846 881
f 674 716 665
f 861 827 867
f 993 948 904
f 829 874 893
f 810 758 862
f 862 904 837
f 756 739 749
f 711 731 744
f 749 739 701
f 985 1040 993
f 697 744 754
f 823 861 881
f 986 985 944
f 1002 962 954
f 823 827 861
f 763 739 796
f 679 668 699
f 1049 995 1019
f 909 932 1009
f 962 932 911
f 1074 1087 1117
f 932 909 861
f 952 1009 1019
f 909 1009 952
f 1009 932 962
f 1009 1074 1067
f 954 962 911
f 1016 1018 991
f 1015 1008 1041
f 962 1013 1009
f 962 1002 1013
f 1056 1013 1002
f 1074 1009 1013
f 1081 1043 1073
f 893 896 864
f 822 829 864
f 893 874 919
f 982 938 975
f 1039 975 1057
f 780 829 822
f 814 764 766
f 829 893 864
f 938 893 919
f 896 822 864
f 776 774 700
f 664 668 690
f 896 949 977
f 1081 1068 1043
f 716 703 665
f 814 829 780
f 814 780 764
f 780 713 764
f 713 720 727
f 917 925 870
f 897 937 862
f 716 758 703
f 1102 1101 1117
f 977 949 1039
f 1073 1102 1081
f 1081 1102 1087
f 1049 1067 1089
f 1056 1074 1013
f 1068 1081 1087
f 1043 977 1039
f 1039 1073 1043
f 977 1043 973
f 749 722 719
f 699 688 722
f 659 688 699
f 659 664 663
f 671 659 652
f 684 690 668
f 699 668 659
f 717 663 664
f 684 668 679
f 697 684 711
f 700 650 663
f 659 663 650
f 713 717 690
f 650 700 674
f 644 652 650
f 711 684 679
f 697 709 720
f 713 690 684
f 713 684 720
f 822 776 780
f 668 664 659
f 717 664 690
f 747 776 717
f 663 717 700
f 738 716 674
f 766 727 720
f 713 727 764
f 717 713 747
f 780 747 713
f 747 780 776
f 822 896 859
f 738 674 700
f 774 738 700
f 774 776 807
f 818 848 758
f 738 774 781
f 716 738 781
f 700 717 776
f 824 774 807
f 818 781 857
f 781 774 824
f 824 807 859
f 807 822 859
f 857 824 859
f 857 781 824
f 848 818 870
f 818 857 870
f 859 917 857
f 970 957 925
f 1068 1087 1041
f 870 862 848
f 857 917 870
f 1033 1017 1016
f 944 925 957
f 925 917 970
f 957 1000 980
f 957 980 944
f 870 925 944
f 944 897 870
f 1056 1002 1018
f 997 980 1011
f 758 716 781
f 781 818 758
f 937 944 985
f 937 897 944
f 944 980 986
f 980 997 986
f 1017 1033 1023
f 986 1023 985
f 952 1019 995
f 1049 1019 1067
f 1019 1009 1067
f 1074 1117 1067
f 1087 1102 1117
f 932 861 911
f 991 1002 954
f 1008 1015 1016
f 1056 1018 1041
f 1074 1056 1087
f 1041 1087 1056
f 810 862 837
f 870 897 862
f 862 937 904
f 904 937 993
f 758 848 862
f 975 938 919
f 1039 982 975
f 982 1039 949
f 896 938 949
f 938 982 949
f 938 896 893
f 970 1043 1000
f 973 859 977
f 1043 1050 1000
f 917 973 970
f 1043 970 973
f 744 697 711
f 709 697 754
f 741 709 754
f 763 796 783
f 701 763 731
f 679 731 711
f 749 701 699
f 763 701 739
f 679 701 731
f 701 679 699
f 656 644 650
f 665 656 674
f 776 822 807
f 977 859 896
f 1017 986 997
f 1017 1023 986
f 985 1023 1040
f 937 985 993
f 1018 1002 991
f 1041 1018 1015
f 1008 1016 1017
f 1008 1017 997
f 1011 1008 997
f 1015 1018 1016
f 1043 1068 1050
f 1041 1050 1068
f 1011 1050 1008
f 1050 1041 1008
f 1050 1011 1000
f 980 1000 1011
f 1000 957 970
f 973 917 859
f 289 332 249
f 289 348 332
f 362 324 312
f 249 332 312
f 324 362 387
f 362 332 414
f 279 212 254
f 350 324 387
f 332 348 414
f 92 142 168
f 407 418 453
f 142 92 127
f 407 350 387
f 332 362 312
f 314 337 308
f 462 453 418
f 308 171 237
f 171 121 151
f 312 279 254
f 237 314 308
f 185 154 138
f 106 105 89
f 132 151 112
f 380 461 372
f 324 350 280
f 280 350 337
f 498 479 530
f 542 577 572
f 249 224 289
f 452 461 505
f 452 372 461
f 563 534 587
f 249 312 254
f 362 414 433
f 105 108 131
f 442 503 459
f 358 399 398
f 142 241 168
f 358 333 399
f 337 314 280
f 462 504 453
f 407 387 418
f 182 249 254
f 362 433 418
f 350 407 337
f 595 592 591
f 591 551 549
f 362 418 387
f 348 498 470
f 567 537 588
f 237 212 280
f 459 503 484
f 498 537 470
f 572 556 530
f 470 537 489
f 537 498 556
f 585 595 588
f 489 433 470
f 537 585 588
f 489 549 462
f 567 595 591
f 470 414 348
f 479 498 348
f 433 414 470
f 549 504 462
f 418 433 462
f 549 489 567
f 567 591 549
f 551 504 549
f 575 523 560
f 567 588 595
f 596 603 593
f 147 190 127
f 241 284 168
f 142 127 190
f 380 372 284
f 87 147 127
f 142 190 241
f 242 241 190
f 242 190 147
f 384 325 316
f 242 178 204
f 105 99 89
f 241 273 325
f 461 432 512
f 241 242 273
f 92 87 127
f 134 99 105
f 92 70 87
f 87 70 79
f 512 432 478
f 189 269 251
f 140 135 116
f 420 461 380
f 563 572 577
f 384 420 325
f 241 325 284
f 461 531 505
f 572 563 587
f 531 512 575
f 512 531 461
f 431 316 375
f 575 578 531
f 523 512 478
f 592 578 575
f 420 384 432
f 325 420 380
f 273 316 325
f 591 592 596
f 431 421 465
f 592 560 596
f 601 603 596
f 575 512 523
f 431 465 478
f 507 478 465
f 560 507 532
f 507 523 478
f 273 204 247
f 431 375 421
f 592 575 560
f 560 532 581
f 532 554 581
f 341 375 316
f 384 316 431
f 375 341 421
f 316 273 247
f 178 242 147
f 341 316 247
f 421 341 451
f 340 341 268
f 204 166 247
f 273 242 204
f 134 166 204
f 134 178 147
f 134 204 178
f 79 101 89
f 105 106 108
f 99 87 89
f 138 108 106
f 121 149 106
f 112 101 79
f 147 99 134
f 101 106 89
f 121 101 112
f 147 87 99
f 122 108 120
f 171 308 196
f 89 87 79
f 149 138 106
f 149 196 185
f 171 149 121
f 196 149 171
f 151 212 171
f 132 182 151
f 112 151 121
f 212 237 171
f 237 280 314
f 121 106 101
f 196 308 264
f 264 227 196
f 279 324 280
f 182 212 151
f 279 280 212
f 254 212 182
f 279 312 324
f 479 542 530
f 498 530 556
f 530 542 572
f 572 587 556
f 585 556 587
f 534 531 578
f 578 587 534
f 577 534 563
f 531 534 505
f 489 462 433
f 537 567 489
f 593 551 591
f 131 108 122
f 398 399 442
f 305 333 358
f 269 333 305
f 340 358 388
f 358 340 305
f 219 268 213
f 459 388 398
f 358 398 388
f 397 340 388
f 189 206 269
f 206 189 145
f 116 135 145
f 152 189 219
f 268 247 213
f 251 269 305
f 325 380 284
f 461 420 432
f 593 591 596
f 560 581 596
f 601 554 571
f 581 601 596
f 421 507 465
f 560 523 507
f 432 431 478
f 432 384 431
f 532 522 554
f 166 134 131
f 105 131 134
f 120 108 138
f 154 140 120
f 196 227 185
f 138 149 185
f 133 182 132
f 79 78 112
f 132 112 78
f 537 556 585
f 587 595 585
f 587 578 595
f 578 592 595
f 577 505 534
f 152 122 116
f 152 213 166
f 122 120 116
f 122 166 131
f 251 219 189
f 116 145 152
f 152 145 189
f 503 539 519
f 519 451 484
f 522 519 539
f 571 554 539
f 490 519 522
f 522 532 490
f 519 490 451
f 341 397 451
f 490 421 451
f 507 490 532
f 554 601 581
f 539 554 522
f 398 442 459
f 451 459 484
f 503 519 484
f 397 341 340
f 305 340 268
f 268 341 247
f 122 152 166
f 166 213 247
f 219 213 152
f 219 251 268
f 305 268 251
f 451 397 388
f 459 451 388
f 421 490 507
f 133 249 182
f 224 249 133
f 78 133 132
f 70 78 79
f 140 116 120
f 138 154 120
f 559 492 562
f 615 562 627
f 784 710 801
f 855 801 858
f 686 627 710
f 473 377 449
f 377 450 445
f 404 492 501
f 449 377 445
f 450 404 501
f 501 492 559
f 615 627 686
f 784 801 855
f 710 784 686
f 562 615 559
f 858 895 855
f 943 934 895
f 958 998 983
f 981 998 967
f 913 879 910
f 913 910 967
f 802 733 767
f 879 833 871
f 520 471 538
f 934 958 983
f 983 998 981
f 950 967 929
f 910 879 871
f 967 910 929
f 967 950 981
f 802 767 833
f 733 694 767
f 538 471 473
f 520 538 626
f 958 934 943
