v -0.031589 0.441313 -0.070666
v -0.045028 0.436451 -0.056346
v -0.054136 0.434014 -0.038783
v -0.060841 0.431745 -0.019779
v -0.068336 0.428443 -0.001130
v -0.074524 0.423548 0.018132
v -0.072695 0.418196 0.037596
v -0.071072 0.406653 0.054612
v -0.070346 0.394136 0.070256
v -0.070305 0.380895 0.084456
v -0.067593 0.367925 0.098447
v -0.058934 0.356149 0.111525
v -0.045335 0.345246 0.120683
v -0.030589 0.333190 0.116673
v -0.019177 0.320138 0.106989
v -0.006887 0.306385 0.099702
v 0.010409 0.297160 0.099960
v 0.028237 0.290205 0.104568
v 0.042662 0.291232 0.118104
v 0.058214 0.290399 0.130490
v 0.075032 0.280473 0.126448
v 0.092824 0.272141 0.124848
v 0.109681 0.268326 0.133756
v 0.099500 0.266015 0.150935
v 0.097336 0.266083 0.171599
v 0.112718 0.277287 0.174947
v 0.114984 0.289287 0.157422
v 0.117652 0.300873 0.140710
v 0.119250 0.310622 0.123944
v 0.122973 0.322974 0.107583
v 0.127381 0.335773 0.092940
v 0.131540 0.347935 0.078666
v 0.135963 0.360209 0.062946
v 0.139065 0.372040 0.047186
v 0.141309 0.382710 0.030927
v 0.134254 0.391491 0.014479
v 0.131142 0.402027 -0.002284
v 0.116972 0.408345 -0.014753
v 0.102136 0.413491 -0.026886
v 0.088549 0.419681 -0.039424
v 0.073141 0.424741 -0.051214
v 0.058687 0.429833 -0.062755
v 0.043957 0.434400 -0.074024
v 0.026874 0.436647 -0.081983
v 0.008192 0.437692 -0.083479
v -0.011110 0.438468 -0.084589
v -0.029585 0.437635 -0.077850
v -0.043322 0.434296 -0.063575
v -0.052133 0.430174 -0.046270
v -0.059471 0.427378 -0.027914
v -0.066418 0.423664 -0.009586
v -0.071928 0.414833 0.008526
v -0.075820 0.403289 0.024498
v -0.072784 0.386988 0.036898
v -0.074085 0.374080 0.050750
v -0.074972 0.361161 0.065485
v -0.076259 0.348609 0.080206
v -0.076959 0.336378 0.095572
v -0.077629 0.324063 0.111043
v -0.078217 0.311239 0.126701
v -0.079337 0.299372 0.142377
v -0.079671 0.285486 0.157872
v -0.079890 0.271673 0.172289
v -0.079809 0.257900 0.186711
v -0.079676 0.243541 0.200506
v -0.076434 0.227069 0.213793
v -0.069579 0.234347 0.194885
v -0.074016 0.237703 0.175424
v -0.069328 0.241387 0.156066
v -0.056621 0.255441 0.151857
v -0.044366 0.270618 0.147404
v -0.032184 0.282879 0.137886
v -0.019781 0.294572 0.127678
v -0.011698 0.304239 0.111588
v -0.000994 0.312336 0.097172
v 0.009671 0.319687 0.082967
v 0.021177 0.329036 0.071418
v 0.032614 0.339457 0.060366
v 0.044038 0.351652 0.050583
v 0.052954 0.367615 0.042627
v 0.060034 0.385239 0.036131
v 0.065452 0.403806 0.030292
v 0.072713 0.422646 0.025420
v 0.083043 0.437800 0.016982
v 0.079731 0.440711 -0.001882
v 0.072536 0.443269 -0.020903
v 0.064851 0.444732 -0.039113
v 0.054746 0.445630 -0.056549
v 0.041253 0.446110 -0.070366
v 0.023619 0.446158 -0.078886
v 0.004714 0.444777 -0.081585
v -0.014232 0.444083 -0.079280
v -0.028170 0.422349 -0.071235
v -0.021160 0.404446 -0.070039
v -0.022443 0.386162 -0.074133
v -0.029454 0.370851 -0.081579
v -0.027896 0.352409 -0.074972
v -0.029561 0.332992 -0.077059
v -0.010898 0.332844 -0.082298
v 0.008238 0.332619 -0.084123
v 0.026797 0.333289 -0.080938
v 0.043685 0.335043 -0.072124
v 0.059795 0.338119 -0.061707
v 0.074970 0.341677 -0.049774
v 0.087736 0.343340 -0.033939
v 0.090930 0.340884 -0.013960
v 0.088989 0.336920 0.005755
v 0.080394 0.331716 0.023345
v 0.069703 0.327791 0.040013
v 0.065880 0.330245 0.059074
v 0.071855 0.327063 0.077817
v 0.085957 0.317855 0.087342
v 0.100257 0.306797 0.093814
v 0.098714 0.297339 0.110972
v 0.091955 0.285557 0.125462
v 0.082800 0.271480 0.138849
v 0.073698 0.256456 0.153163
v 0.063316 0.242411 0.170636
v 0.052337 0.226681 0.180754
v 0.039853 0.211154 0.183706
v 0.026543 0.195961 0.179221
v 0.011845 0.182514 0.169073
v -0.004593 0.176718 0.153905
v -0.014498 0.192874 0.147528
v -0.018091 0.212589 0.150401
v -0.023277 0.231769 0.152527
v -0.029983 0.249838 0.149325
v -0.036841 0.266154 0.139911
v -0.042756 0.282032 0.128968
v -0.049449 0.297642 0.119286
v -0.055932 0.313591 0.109557
v -0.062180 0.329112 0.099530
v -0.064141 0.338308 0.082241
v -0.064174 0.344653 0.063810
v -0.072295 0.337891 0.047084
v -0.081294 0.335334 0.029841
v -0.088748 0.333954 0.011428
v -0.092201 0.334855 -0.007746
v -0.096855 0.336872 -0.026146
v -0.096515 0.336499 -0.046159
v -0.084560 0.333141 -0.061492
v -0.068238 0.329555 -0.071304
v -0.051084 0.326624 -0.078202
v -0.033087 0.324776 -0.083303
v -0.014421 0.323845 -0.086595
v 0.004505 0.323621 -0.088389
v 0.023294 0.323672 -0.087124
v 0.041621 0.325822 -0.081669
v 0.058729 0.329278 -0.074215
v 0.075288 0.335170 -0.065207
v 0.087803 0.338579 -0.050741
v 0.091947 0.339480 -0.031350
v 0.093654 0.341661 -0.011529
v 0.088345 0.345489 0.007233
v 0.084875 0.349045 0.026550
v 0.089172 0.350104 0.046161
v 0.094300 0.349664 0.065863
v 0.099892 0.336661 0.079803
v 0.105111 0.322511 0.092488
v 0.111241 0.308586 0.106119
v 0.123757 0.303964 0.120705
v 0.125888 0.288171 0.132670
v 0.115146 0.271080 0.132244
v 0.099964 0.260417 0.126184
v 0.091138 0.243164 0.132887
v 0.082252 0.226305 0.145153
v 0.076510 0.213084 0.166033
v 0.067316 0.196834 0.175283
v 0.059032 0.180805 0.185655
v 0.040094 0.186419 0.180774
v 0.026189 0.191555 0.161437
v 0.013775 0.198697 0.140399
v 0.005601 0.208113 0.123223
v 0.003343 0.222149 0.110137
v 0.002089 0.237027 0.097781
v 0.000742 0.252279 0.085703
v -0.015999 0.261443 0.080893
v -0.030514 0.275213 0.082490
v -0.046031 0.288542 0.082164
v -0.057177 0.295756 0.067938
v -0.065922 0.302698 0.051719
v -0.078391 0.311825 0.038475
v -0.086484 0.318996 0.022027
v -0.090690 0.325703 0.003682
v -0.091952 0.332864 -0.015225
v -0.090875 0.339068 -0.034514
v -0.079509 0.338631 -0.050009
v -0.063913 0.336508 -0.061207
v -0.047238 0.334392 -0.069701
v -0.019190 0.341828 -0.077117
v 0.013250 0.380910 -0.087659
v -0.005897 0.415505 -0.080012
v -0.021925 0.433023 -0.075920
v -0.050081 0.363658 -0.064130
v -0.036801 0.342811 -0.071046
v -0.036283 0.410370 -0.047031
v -0.034343 0.430208 -0.062187
v -0.009443 0.380040 -0.088464
v -0.012875 0.360815 -0.084249
v -0.019861 0.414809 -0.081295
v -0.011826 0.399056 -0.088594
v -0.039456 0.362491 -0.074596
v -0.040949 0.382003 -0.066450
v -0.028698 0.412289 -0.059271
v -0.030929 0.393572 -0.054944
v -0.021361 0.380082 -0.085678
v -0.017244 0.396089 -0.077866
v -0.032124 0.379974 -0.074119
v -0.024145 0.393812 -0.064677
v 0.060993 0.394036 -0.051607
v 0.068483 0.388041 0.004375
v 0.094439 0.375757 0.054386
v 0.073114 0.350247 0.097125
v 0.043482 0.306363 0.122450
v 0.015071 0.253274 0.140509
v -0.020776 0.217921 0.170127
v -0.059743 0.195704 0.175365
v -0.082847 0.236410 0.139388
v -0.099226 0.279894 0.103914
v -0.112528 0.319875 0.063807
v -0.118166 0.360184 0.020830
v -0.091887 0.380202 -0.027583
v -0.048713 0.381095 -0.067590
v -0.002930 0.382000 -0.092897
v 0.053907 0.381022 -0.087507
v 0.086725 0.389940 -0.042383
v 0.120841 0.372800 0.001495
v 0.133250 0.327054 0.036797
v 0.156177 0.292732 0.079053
v 0.144929 0.256431 0.124345
v 0.121827 0.218371 0.167094
v 0.066132 0.234941 0.173013
v 0.014028 0.246913 0.136459
v -0.033953 0.273295 0.123252
v -0.034696 0.317037 0.085641
v -0.053026 0.352338 0.056589
v -0.070105 0.376085 0.007855
v 0.017746 0.356388 -0.085171
v 0.030464 0.409684 -0.073551
v -0.003956 0.431763 -0.078606
v 0.015307 0.421339 -0.081497
v 0.008366 0.432544 -0.078703
v -0.013805 0.425721 -0.080577
v -0.054414 0.348361 -0.065157
v -0.069500 0.361703 -0.051752
v -0.066712 0.351245 -0.060433
v -0.043577 0.352247 -0.067451
v -0.056061 0.386134 -0.038229
v -0.045517 0.388175 -0.050926
v -0.042817 0.397550 -0.035387
v -0.059948 0.376932 -0.054808
v -0.047149 0.416295 -0.032717
v -0.060330 0.399068 -0.009478
v -0.061710 0.365619 -0.060927
v -0.052098 0.392730 -0.022904
v -0.055694 0.409170 -0.021050
v -0.054954 0.421955 -0.024417
v -0.061883 0.419518 -0.011186
v -0.000845 0.347642 -0.081600
v 0.010638 0.345529 -0.083764
v 0.003230 0.365926 -0.087240
v 0.001568 0.391644 -0.088985
v 0.018828 0.400021 -0.086601
v 0.075334 0.371972 -0.037352
v 0.064397 0.413704 -0.031243
v 0.047595 0.367314 -0.064238
v 0.080468 0.363284 -0.000564
v 0.089191 0.406919 0.020095
v 0.086388 0.348453 0.051059
v 0.071869 0.380154 0.064118
v 0.083801 0.326499 0.113661
v 0.049171 0.332959 0.084702
v 0.095210 0.347177 0.083572
v 0.053503 0.281706 0.143364
v 0.018016 0.295943 0.115395
v 0.022981 0.232192 0.168188
v -0.015592 0.256886 0.146324
v -0.015036 0.193542 0.178853
v -0.052417 0.218385 0.170099
v -0.047924 0.213488 0.160435
v -0.080427 0.217757 0.182742
v -0.067008 0.261507 0.131791
v -0.098004 0.263158 0.146944
v -0.085244 0.308053 0.099197
v -0.103935 0.307496 0.108593
v -0.091597 0.339356 0.051593
v -0.103296 0.347401 0.064406
v -0.093857 0.362354 0.001572
v -0.099921 0.385113 0.018535
v -0.089519 0.365712 -0.056068
v -0.063446 0.395103 -0.025301
v -0.041682 0.358143 -0.088893
v -0.035339 0.404416 -0.075571
v 0.015291 0.355767 -0.092988
v 0.016724 0.406038 -0.089177
v 0.056367 0.359230 -0.062991
v 0.072359 0.404075 -0.075011
v 0.093970 0.369285 -0.019834
v 0.116445 0.388880 -0.040043
v 0.111827 0.367570 0.031550
v 0.140636 0.362039 0.006243
v 0.123554 0.321381 0.066623
v 0.150602 0.333564 0.057439
v 0.146348 0.286702 0.107950
v 0.144617 0.299282 0.107512
v 0.120534 0.236593 0.122081
v 0.130283 0.262029 0.152934
v 0.096224 0.202404 0.177195
v 0.110430 0.238518 0.144300
v 0.039574 0.218517 0.176643
v 0.056370 0.262026 0.147402
v -0.010492 0.234376 0.135509
v 0.006486 0.271015 0.117464
v -0.016930 0.275714 0.098483
v -0.039019 0.305315 0.125758
v -0.036038 0.314029 0.068274
v -0.050171 0.344326 0.087536
v -0.073664 0.342307 0.038263
v -0.052434 0.382627 0.049062
v -0.078810 0.360652 -0.015938
v -0.076418 0.384946 -0.023987
v -0.072348 0.376944 -0.040810
v -0.063184 0.386152 -0.026891
v -0.074135 0.369919 -0.026928
v -0.083261 0.355194 -0.033730
v -0.084068 0.345987 -0.019960
v -0.084328 0.346303 -0.041681
v -0.073268 0.363038 -0.038680
v -0.080504 0.348668 0.004255
v -0.084681 0.340658 -0.006850
v -0.068766 0.398474 0.017585
v 0.036102 0.353131 -0.079018
v 0.033507 0.429520 -0.076006
v -0.050999 0.376552 -0.063164
v -0.043494 0.424554 -0.045960
v -0.036620 0.421728 -0.055140
v -0.066163 0.408645 0.006751
v 0.022731 0.411439 -0.083411
v 0.007039 0.408306 -0.082432
v 0.062962 0.359144 -0.051941
v 0.079294 0.355717 -0.040126
v 0.084070 0.363210 -0.020657
v 0.068910 0.430250 -0.031808
v 0.053629 0.425375 -0.046696
v 0.077204 0.419992 -0.013057
v 0.062744 0.422456 -0.039937
v 0.074057 0.430178 -0.020271
v 0.049169 0.349915 -0.064592
v 0.035923 0.385418 -0.076556
v 0.084899 0.348856 -0.002698
v 0.080998 0.352717 0.018178
v 0.087677 0.423297 0.023533
v 0.085090 0.423061 0.004429
v 0.084246 0.409054 0.041419
v 0.080923 0.418273 0.033150
v 0.077912 0.335358 0.051149
v 0.076874 0.345494 0.070173
v 0.071823 0.347094 0.035876
v 0.061779 0.379201 0.051167
v 0.070632 0.395997 0.047843
v 0.058611 0.361574 0.065163
v 0.056624 0.367900 0.054697
v 0.094540 0.314096 0.108569
v 0.079967 0.306656 0.124596
v 0.095737 0.330570 0.096900
v 0.085791 0.314449 0.118018
v 0.098130 0.318390 0.098521
v 0.037512 0.332249 0.072589
v 0.049647 0.345499 0.067014
v 0.031627 0.318460 0.088480
v 0.029649 0.324408 0.078304
v 0.087787 0.331577 0.078983
v 0.095491 0.324808 0.085366
v 0.067625 0.273553 0.145929
v 0.049617 0.260579 0.155965
v 0.069547 0.291372 0.135882
v 0.055603 0.270360 0.149862
v 0.004760 0.303920 0.109486
v 0.016941 0.307544 0.094743
v -0.001570 0.282917 0.120963
v -0.003461 0.294985 0.114283
v 0.036155 0.227443 0.182243
v 0.016626 0.216957 0.182356
v 0.038789 0.244104 0.167306
v 0.023763 0.225528 0.180261
v -0.028649 0.266949 0.142607
v -0.014653 0.275785 0.133402
v -0.034794 0.248330 0.155693
v -0.036392 0.260442 0.150561
v -0.003980 0.183517 0.170185
v -0.026626 0.180860 0.163191
v 0.003362 0.200697 0.179031
v -0.016726 0.183431 0.170675
v -0.065164 0.227643 0.164945
v -0.050408 0.236767 0.156979
v -0.071924 0.214700 0.182372
v -0.072379 0.225708 0.175369
v -0.032204 0.218439 0.157610
v -0.047360 0.234732 0.151344
v -0.033785 0.198965 0.161103
v -0.042986 0.224150 0.157475
v -0.082220 0.226983 0.196814
v -0.068468 0.214283 0.202448
v -0.087799 0.239225 0.176358
v -0.084027 0.237735 0.189464
v -0.051858 0.268039 0.133072
v -0.066487 0.282469 0.121925
v -0.053252 0.250299 0.140363
v -0.062695 0.273087 0.128471
v -0.086761 0.271558 0.156498
v -0.089533 0.255695 0.168193
v -0.095566 0.283439 0.138629
v -0.089247 0.281034 0.149457
v -0.071169 0.316036 0.103312
v -0.082854 0.326187 0.085968
v -0.072843 0.298115 0.111479
v -0.080698 0.318493 0.096140
v -0.090057 0.314092 0.114070
v -0.092976 0.299389 0.127693
v -0.097197 0.325650 0.095694
v -0.088721 0.322481 0.105186
v -0.079649 0.348750 0.058177
v -0.086630 0.356099 0.039057
v -0.082027 0.331750 0.066914
v -0.088966 0.351454 0.050152
v -0.087963 0.351813 0.068965
v -0.092361 0.339167 0.082451
v -0.094769 0.363332 0.050055
v -0.086534 0.360078 0.059478
v -0.085719 0.346864 0.001610
v -0.086654 0.355810 -0.019464
v -0.086685 0.355930 0.019223
v -0.086779 0.356167 -0.006893
v -0.085491 0.390924 0.025070
v -0.089270 0.376532 0.037429
v -0.087327 0.398150 0.003982
v -0.083921 0.399775 0.016356
v -0.091466 0.348666 -0.056820
v -0.073819 0.354147 -0.069651
v -0.086413 0.355177 -0.039213
v -0.083845 0.356131 -0.062903
v -0.061711 0.411686 -0.020722
v -0.076248 0.406719 -0.009420
v -0.049747 0.406976 -0.039910
v -0.055598 0.415384 -0.031585
v -0.041528 0.340430 -0.083955
v -0.020890 0.347783 -0.089562
v -0.057582 0.351471 -0.079850
v -0.033095 0.348469 -0.088757
v -0.035384 0.421199 -0.072602
v -0.042909 0.414578 -0.055876
v -0.018986 0.414987 -0.086875
v -0.025950 0.423601 -0.080495
v 0.014587 0.337869 -0.090253
v 0.036037 0.346935 -0.092826
v -0.002109 0.347025 -0.090588
v 0.023947 0.346771 -0.092828
v 0.016786 0.422675 -0.085043
v -0.001083 0.419682 -0.087524
v 0.036978 0.413609 -0.083795
v 0.029074 0.423234 -0.083325
v 0.062871 0.345002 -0.068236
v 0.073166 0.354785 -0.049692
v 0.046826 0.348470 -0.076945
v 0.064439 0.352001 -0.057851
v 0.069459 0.417248 -0.065554
v 0.054072 0.417081 -0.076855
v 0.088607 0.406807 -0.058442
v 0.078991 0.415382 -0.057817
v 0.099036 0.353628 -0.022776
v 0.097910 0.365489 -0.002332
v 0.088894 0.360764 -0.037709
v 0.102359 0.362822 -0.013715
v 0.113208 0.401592 -0.029675
v 0.101791 0.405803 -0.044330
v 0.127655 0.386068 -0.019623
v 0.121846 0.397756 -0.020577
v 0.099059 0.356436 0.034246
v 0.110919 0.353182 0.050071
v 0.097170 0.366972 0.017465
v 0.107151 0.361988 0.042233
v 0.140927 0.376417 0.015182
v 0.135768 0.382136 -0.002405
v 0.146642 0.359269 0.028990
v 0.144172 0.371352 0.026453
v 0.113215 0.327045 0.078329
v 0.123454 0.307765 0.085752
v 0.115502 0.338419 0.062664
v 0.119894 0.316624 0.077907
v 0.143016 0.345472 0.065518
v 0.145830 0.353388 0.047827
v 0.145871 0.328165 0.080166
v 0.140687 0.339127 0.076578
v 0.135626 0.292712 0.119489
v 0.131258 0.271916 0.114824
v 0.131337 0.296022 0.099900
v 0.139558 0.281586 0.117187
v 0.131504 0.308866 0.111969
v 0.138331 0.319050 0.096081
v 0.134798 0.291410 0.127740
v 0.128811 0.301866 0.122871
v 0.106695 0.244683 0.126433
v 0.104761 0.223376 0.134824
v 0.120321 0.255301 0.116380
v 0.109086 0.232421 0.125813
v 0.122602 0.274491 0.161073
v 0.127080 0.282221 0.143930
v 0.116413 0.253671 0.170971
v 0.118300 0.267356 0.171047
v 0.083390 0.198050 0.168779
v 0.073104 0.199991 0.185871
v 0.097884 0.208479 0.152549
v 0.085101 0.196134 0.183274
v 0.109915 0.255184 0.144692
v 0.101171 0.249895 0.162434
v 0.092502 0.251777 0.138304
v 0.104127 0.256494 0.133364
v 0.034574 0.202036 0.177273
v 0.017148 0.215276 0.161088
v 0.053995 0.205291 0.184906
v 0.028348 0.212779 0.172001
v 0.061871 0.274654 0.135708
v 0.077717 0.263860 0.136347
v 0.039633 0.273502 0.134422
v 0.050603 0.280832 0.135170
v -0.004426 0.222014 0.124520
v -0.013066 0.241242 0.114566
v 0.002454 0.221172 0.143168
v -0.011403 0.232659 0.123067
v 0.013570 0.283202 0.108649
v 0.029137 0.276067 0.117530
v -0.009157 0.287291 0.111282
v 0.002494 0.289267 0.106301
v -0.004215 0.268055 0.090426
v -0.012563 0.286727 0.080803
v -0.014306 0.255896 0.101812
v -0.008965 0.280240 0.090428
v -0.031996 0.317368 0.117194
v -0.018803 0.303311 0.115225
v -0.049513 0.323904 0.116458
v -0.038775 0.326499 0.122984
v -0.045622 0.304244 0.076440
v -0.055690 0.320164 0.063529
v -0.027106 0.297449 0.073639
v -0.047887 0.315176 0.071509
v -0.062731 0.352218 0.095680
v -0.057541 0.338089 0.106543
v -0.052947 0.365478 0.080872
v -0.062484 0.361971 0.088213
v -0.076075 0.326881 0.032152
v -0.082402 0.336659 0.017727
v -0.067206 0.327384 0.049616
v -0.085168 0.337045 0.005529
v -0.077304 0.354813 0.023232
v -0.059701 0.395215 0.057720
v -0.054908 0.382631 0.072418
v -0.060289 0.397909 0.036515
v -0.074126 0.409138 0.025694
v 0.025673 0.346793 -0.082230
v 0.035915 0.340785 -0.078064
v 0.022446 0.433763 -0.079620
v -0.060408 0.409209 -0.003699
v -0.068415 0.420141 0.008464
v -0.075262 0.392078 -0.000192
v 0.065751 0.347179 -0.054399
v 0.060709 0.376528 -0.046191
v 0.054910 0.381611 -0.059787
v 0.054774 0.368303 -0.054187
v 0.042270 0.399390 -0.060014
v 0.045425 0.380195 -0.069548
v 0.037242 0.369680 -0.078145
v 0.026643 0.377149 -0.083867
v 0.026897 0.390460 -0.083688
v 0.072013 0.376782 -0.012084
v 0.087669 0.350602 -0.022661
v 0.062193 0.437063 -0.049396
v 0.048065 0.429661 -0.063792
v 0.045310 0.415518 -0.056232
v 0.040400 0.418220 -0.069503
v 0.054032 0.405219 -0.055275
v 0.055031 0.402983 -0.039295
v 0.070048 0.391226 -0.033669
v 0.084519 0.341246 0.016216
v 0.071375 0.372106 0.017594
v 0.080964 0.428911 -0.004907
v 0.074059 0.406849 0.001296
v 0.069831 0.335454 0.069634
v 0.095411 0.360477 0.072217
v 0.084764 0.365799 0.037683
v 0.072279 0.335891 0.031364
v 0.072758 0.405174 0.039494
v 0.089535 0.394466 0.053254
v 0.090013 0.297981 0.121487
v 0.084432 0.341150 0.105262
v 0.088385 0.353264 0.096549
v 0.076274 0.366346 0.082186
v 0.095118 0.361090 0.086995
v 0.078872 0.358612 0.091162
v 0.050899 0.353739 0.059568
v 0.061818 0.352763 0.081277
v 0.061316 0.254860 0.159859
v 0.053777 0.298176 0.133466
v 0.061781 0.314867 0.123630
v 0.081091 0.285158 0.133919
v 0.019688 0.315583 0.086810
v 0.032421 0.311415 0.106519
v 0.027102 0.208976 0.183191
v 0.024980 0.245819 0.154156
v 0.031849 0.264640 0.145985
v 0.050601 0.239212 0.173900
v -0.011483 0.285739 0.126506
v 0.002122 0.266132 0.131830
v -0.017184 0.181714 0.153723
v -0.010564 0.209445 0.182298
v -0.001276 0.223378 0.171349
v 0.013440 0.194120 0.177040
v -0.047134 0.248657 0.154379
v -0.032779 0.229366 0.160147
v -0.034773 0.238400 0.153341
v -0.050536 0.196257 0.160719
v -0.041226 0.186562 0.175879
v -0.021480 0.201103 0.155817
v -0.070218 0.222191 0.191959
v -0.069150 0.197599 0.192593
v -0.054007 0.286485 0.123927
v -0.068699 0.244981 0.135363
v -0.065417 0.227677 0.145484
v -0.041598 0.254888 0.144117
v -0.085703 0.250203 0.178475
v -0.091763 0.240129 0.156615
v -0.071498 0.331272 0.089760
v -0.088035 0.292886 0.105961
v -0.084744 0.275677 0.116960
v -0.060825 0.302555 0.113716
v -0.088697 0.293634 0.137604
v -0.106273 0.286355 0.121192
v -0.078344 0.345135 0.038227
v -0.097548 0.327489 0.061394
v -0.100011 0.318500 0.079362
v -0.070476 0.335966 0.070823
v -0.088220 0.333061 0.092581
v -0.109182 0.330250 0.080492
v -0.092635 0.344471 -0.017199
v -0.102215 0.364438 0.016592
v -0.102911 0.349280 0.029346
v -0.088413 0.343211 0.021086
v -0.085363 0.370599 0.047290
v -0.105929 0.367907 0.034491
v -0.076431 0.340736 -0.068205
v -0.096550 0.370601 -0.041042
v -0.104791 0.366252 -0.022999
v -0.092608 0.344068 -0.037028
v -0.078526 0.406590 0.002795
v -0.082083 0.388147 -0.012181
v -0.023425 0.333973 -0.087326
v -0.051276 0.367543 -0.077949
v -0.065698 0.372170 -0.065182
v -0.059619 0.337768 -0.076951
v -0.049207 0.418022 -0.046155
v -0.042736 0.394566 -0.053809
v 0.032985 0.333088 -0.088341
v 0.001435 0.365150 -0.092379
v -0.017688 0.368883 -0.092641
v -0.004700 0.333331 -0.089037
v -0.011505 0.424930 -0.085878
v -0.006495 0.401188 -0.092298
v 0.076990 0.343288 -0.054575
v 0.050224 0.366580 -0.077187
v 0.039919 0.368183 -0.094001
v 0.050088 0.336114 -0.080989
v 0.043493 0.422321 -0.078375
v 0.049963 0.399425 -0.083859
v 0.093058 0.352595 -0.003394
v 0.083951 0.376190 -0.032031
v 0.072811 0.375708 -0.048787
v 0.092126 0.348324 -0.041648
v 0.091862 0.411899 -0.047930
v 0.099550 0.390888 -0.056760
v 0.098773 0.355295 0.054648
v 0.112799 0.375346 0.015968
v 0.105564 0.384691 -0.000110
v 0.088958 0.355706 0.015817
v 0.131716 0.392178 -0.009230
v 0.130043 0.367773 -0.015033
v 0.113302 0.312664 0.093091
v 0.125425 0.329603 0.051800
v 0.124938 0.345084 0.038899
v 0.104546 0.342115 0.068919
v 0.144127 0.363321 0.040531
v 0.147935 0.340230 0.033176
v 0.126670 0.276683 0.126769
v 0.143966 0.289526 0.090846
v 0.138850 0.300857 0.075184
v 0.121888 0.301149 0.107494
v 0.136629 0.328748 0.089037
v 0.152904 0.310709 0.085797
v 0.093508 0.230062 0.134564
v 0.133970 0.245500 0.115959
v 0.142859 0.259553 0.104219
v 0.112013 0.264618 0.121258
v 0.126228 0.292411 0.136880
v 0.140568 0.273548 0.132579
v 0.071133 0.186482 0.184703
v 0.110698 0.208178 0.162542
v 0.121433 0.221356 0.145008
v 0.086949 0.215415 0.152966
v 0.105201 0.257143 0.169762
v 0.113178 0.236331 0.168926
v 0.018771 0.202903 0.155702
v 0.056001 0.221940 0.180927
v 0.075774 0.220083 0.184445
v 0.051956 0.192410 0.185656
v 0.089029 0.262105 0.131972
v 0.075693 0.246684 0.152545
v -0.003619 0.233567 0.108604
v 0.002611 0.238464 0.145955
v 0.021874 0.233662 0.152773
v 0.006068 0.209502 0.136705
v 0.038240 0.281341 0.124274
v 0.025783 0.261167 0.129765
v -0.018338 0.274629 0.078145
v -0.026255 0.266422 0.109100
v -0.024101 0.255094 0.125204
v -0.005406 0.247998 0.095690
v -0.011212 0.298438 0.107241
v -0.021597 0.288025 0.126940
v -0.059066 0.307549 0.061688
v -0.021378 0.313207 0.076079
v -0.023971 0.301029 0.090251
v -0.034103 0.286676 0.076897
v -0.050290 0.335632 0.116320
v -0.049658 0.322689 0.097122
v -0.058042 0.340470 0.045744
v -0.062817 0.362189 0.040407
v -0.043917 0.334179 0.057980
v -0.056765 0.352557 0.045065
v -0.049500 0.366030 0.050305
v -0.047456 0.375649 0.062314
v -0.067993 0.314706 0.045949
v -0.078074 0.343467 0.027034
v -0.078378 0.363209 0.010144
v -0.083366 0.360425 -0.003047
v -0.060403 0.375149 0.080122
v -0.059692 0.383159 0.022816
v -0.068987 0.369177 0.022658
v -0.065932 0.408347 0.042334
v -0.074221 0.400948 0.007869
v -0.063323 0.389067 0.008017
v -0.070713 0.394013 -0.013495
v -0.068117 0.377466 -0.008635
v -0.079569 0.373727 -0.015741
v -0.074469 0.369406 -0.002228
v 0.033682 0.397280 -0.069917
v 0.077276 0.366319 -0.011367
v 0.076131 0.376472 0.001719
v 0.079604 0.375413 -0.024336
v 0.078764 0.363397 0.012152
v 0.080833 0.389106 0.019564
v 0.063901 0.405843 -0.014887
v 0.084325 0.410254 0.008416
v 0.085516 0.353131 0.077728
v 0.081810 0.353985 0.040850
v 0.091803 0.362128 0.050201
v 0.072083 0.361201 0.028491
v 0.093706 0.394210 0.034246
v 0.087721 0.384221 0.065603
v 0.094562 0.373155 0.067777
v 0.080276 0.376301 0.074495
v 0.090277 0.370123 0.079568
v 0.077410 0.390165 0.057299
v 0.065957 0.362306 0.075708
v 0.060574 0.342301 0.091471
v 0.055367 0.325348 0.105017
v 0.067948 0.337980 0.107122
v 0.064967 0.326715 0.115734
v 0.054226 0.342702 0.078698
v 0.067454 0.304464 0.129053
v 0.033800 0.296863 0.113500
v 0.026813 0.277317 0.126389
v 0.038400 0.291469 0.130320
v 0.035513 0.277988 0.138591
v 0.023570 0.301676 0.104044
v 0.037159 0.255160 0.155732
v -0.000165 0.254764 0.143307
v -0.008317 0.236536 0.154630
v 0.008072 0.240468 0.150607
v 0.004116 0.230470 0.160499
v -0.009618 0.263909 0.136985
v 0.003627 0.214116 0.180530
v -0.036598 0.218030 0.169848
v -0.044473 0.204676 0.187152
v -0.028013 0.208651 0.183414
v -0.033421 0.196382 0.184138
v -0.045199 0.226753 0.162895
v -0.038188 0.187169 0.163022
v -0.072698 0.205178 0.178271
v -0.078283 0.217038 0.159550
v -0.066666 0.203936 0.161192
v -0.065464 0.215131 0.152753
v -0.075376 0.209499 0.191942
v -0.057484 0.237950 0.143706
v -0.093962 0.247408 0.142554
v -0.096960 0.260836 0.124160
v -0.083829 0.249124 0.128321
v -0.083050 0.261620 0.121026
v -0.094608 0.252483 0.156049
v -0.077364 0.286721 0.115339
v -0.109105 0.292256 0.106738
v -0.111150 0.303570 0.087104
v -0.098690 0.293053 0.092427
v -0.097436 0.305292 0.084445
v -0.102362 0.298639 0.118258
v -0.089973 0.325524 0.074893
v -0.113466 0.335930 0.066054
v -0.116385 0.345954 0.045501
v -0.110018 0.329809 0.049696
v -0.105518 0.338452 0.038749
v -0.102427 0.339471 0.074842
v -0.095014 0.359500 0.029313
v -0.109042 0.372661 0.019560
v -0.104307 0.376831 -0.002484
v -0.115256 0.365542 0.004611
v -0.110007 0.365497 -0.009205
v -0.099598 0.377132 0.028983
v -0.094665 0.359698 -0.029686
v -0.078286 0.388502 -0.027625
v -0.064895 0.382851 -0.045040
v -0.080776 0.377360 -0.040884
v -0.074295 0.376373 -0.053961
v -0.072398 0.395691 -0.016074
v -0.063884 0.361391 -0.073130
v -0.036162 0.390217 -0.067893
v -0.029074 0.388152 -0.089942
v -0.036500 0.376323 -0.079003
v -0.031112 0.374124 -0.092233
v -0.038507 0.403651 -0.062502
v -0.011452 0.356726 -0.091490
v 0.006964 0.394138 -0.092081
v 0.027870 0.386977 -0.091378
v 0.013485 0.377938 -0.093383
v 0.026640 0.372670 -0.093805
v 0.004081 0.407867 -0.089944
v 0.041853 0.356862 -0.085979
v 0.063781 0.392673 -0.081474
v 0.079290 0.383679 -0.067493
v 0.065919 0.375656 -0.076094
v 0.066789 0.377473 -0.061644
v 0.060339 0.406013 -0.079272
v 0.077920 0.365498 -0.042237
v 0.101334 0.383808 -0.042603
v 0.107706 0.378676 -0.021336
v 0.095731 0.389655 -0.027129
v 0.099598 0.387159 -0.013359
v 0.108431 0.395302 -0.048135
v 0.099992 0.374831 0.007137
v 0.127445 0.358809 -0.002244
v 0.128131 0.345015 0.016070
v 0.123508 0.361583 0.014863
v 0.124540 0.354113 0.027198
v 0.137285 0.369688 -0.003908
v 0.119333 0.343552 0.050715
v 0.147660 0.327258 0.042472
v 0.149895 0.310598 0.058184
v 0.136117 0.316522 0.050285
v 0.136725 0.308365 0.062616
v 0.149436 0.341153 0.046636
v 0.133468 0.299241 0.086900
v 0.154293 0.297269 0.094560
v 0.153802 0.279052 0.108989
v 0.158920 0.280746 0.091643
v 0.149726 0.270328 0.097482
v 0.146244 0.308828 0.097136
v 0.131429 0.259803 0.110270
v 0.138453 0.258885 0.139253
v 0.132900 0.240410 0.149977
v 0.138271 0.242705 0.133067
v 0.130273 0.231323 0.138226
v 0.134218 0.272641 0.143920
v 0.109290 0.215610 0.146079
v 0.115844 0.227686 0.155862
v 0.093292 0.229542 0.165459
v 0.104986 0.221628 0.173850
v 0.090629 0.221203 0.180069
v 0.107105 0.239404 0.158254
v 0.066153 0.211403 0.185740
v 0.060969 0.248623 0.159076
v 0.038256 0.249454 0.154312
v 0.048835 0.237284 0.167663
v 0.034496 0.236692 0.163915
v 0.068510 0.257413 0.145885
v 0.011174 0.226672 0.153593
v 0.010339 0.258485 0.126652
v -0.012042 0.263280 0.127819
v -0.001742 0.253713 0.138431
v -0.016502 0.252634 0.137354
v 0.018947 0.268669 0.121467
v -0.019585 0.252882 0.113009
v -0.037040 0.289558 0.124326
v -0.041113 0.298023 0.103838
v -0.035135 0.282055 0.108193
v -0.029797 0.290531 0.098143
v -0.027304 0.300491 0.124712
v -0.016259 0.299587 0.079965
v -0.041315 0.331156 0.087869
v -0.032667 0.345187 0.074318
v -0.026627 0.329768 0.079000
v -0.032896 0.332534 0.066888
v -0.053782 0.334610 0.094412
v -0.071624 0.354152 0.034985
v -0.056049 0.330272 0.055729
v -0.060760 0.394556 0.025179
v -0.056414 0.384173 0.036433
v -0.054198 0.371797 0.039238
v 0.078388 0.396806 0.008831
v 0.070887 0.383662 0.014869
v 0.079679 0.377879 0.030268
v 0.071063 0.413535 -0.021350
v 0.059792 0.398563 -0.026662
v 0.065776 0.390838 -0.010446
v 0.091314 0.405795 0.032179
v 0.092969 0.379405 0.039257
v 0.050629 0.317630 0.115310
v 0.042499 0.319677 0.098876
v 0.022699 0.265310 0.134626
v 0.011803 0.276698 0.125083
v -0.012377 0.224694 0.162157
v -0.022674 0.240172 0.157244
v -0.050441 0.192439 0.185714
v -0.059052 0.207957 0.187641
v -0.079084 0.225424 0.148267
v -0.086265 0.228535 0.165082
v -0.096675 0.269358 0.112989
v -0.102957 0.273398 0.129700
v -0.110376 0.310016 0.074183
v -0.109303 0.318869 0.090450
v -0.116480 0.350227 0.031913
v -0.107543 0.357650 0.045930
v -0.099479 0.377197 -0.015977
v -0.091748 0.384896 -0.001213
v -0.058211 0.381102 -0.057351
v -0.053032 0.392031 -0.043284
v -0.016696 0.383363 -0.093632
v -0.020876 0.400387 -0.090108
v 0.040935 0.382341 -0.091150
v 0.035433 0.399006 -0.087191
v 0.078984 0.388054 -0.054168
v 0.089720 0.395079 -0.067492
v 0.114758 0.379949 -0.009152
v 0.121198 0.374141 -0.025279
v 0.128325 0.336930 0.027594
v 0.142429 0.346565 0.020753
v 0.150789 0.299920 0.067763
v 0.152749 0.317898 0.071937
v 0.150021 0.266653 0.114896
v 0.145260 0.283245 0.120870
v 0.128275 0.227927 0.155659
v 0.124389 0.244322 0.162112
v 0.079598 0.231787 0.173455
v 0.089536 0.240745 0.152806
v 0.025494 0.246796 0.146568
v 0.035650 0.261337 0.142136
v -0.024508 0.268214 0.132461
v -0.013848 0.276368 0.120420
v -0.036902 0.305982 0.093262
v -0.047204 0.311996 0.107282
v -0.042352 0.346992 0.064283
v -0.039509 0.360149 0.074160
v -0.047133 0.354194 0.081202
v -0.045350 0.371771 0.074021
v 0.074374 0.387633 -0.021363
v -0.049083 0.362043 0.064782
f 98 190 97
f 55 56 429
f 815 816 817
f 261 198 199
f 206 95 96
f 422 637 425
f 58 59 421
f 104 565 103
f 818 814 287
f 260 101 559
f 105 341 104
f 812 808 285
f 414 631 417
f 755 574 754
f 343 347 86
f 803 804 805
f 806 802 283
f 590 356 358
f 61 62 413
f 568 266 348
f 809 810 811
f 332 571 238
f 356 109 110
f 64 65 405
f 797 798 799
f 367 113 363
f 190 199 97
f 199 198 206
f 102 103 348
f 1 93 193
f 269 357 761
f 757 267 350
f 114 363 113
f 398 619 401
f 67 68 397
f 271 363 366
f 117 374 116
f 794 790 279
f 390 613 393
f 374 377 274
f 791 792 793
f 594 595 365
f 800 796 281
f 777 602 603
f 406 625 409
f 200 193 93
f 120 382 119
f 785 786 787
f 788 784 277
f 382 385 276
f 123 390 122
f 73 74 381
f 779 780 781
f 390 393 278
f 382 607 385
f 608 609 783
f 126 398 125
f 374 601 377
f 356 357 269
f 398 401 280
f 129 406 128
f 76 77 371
f 773 774 775
f 406 409 282
f 597 588 761
f 620 621 795
f 782 778 275
f 614 615 789
f 132 414 131
f 363 593 366
f 79 80 362
f 414 417 284
f 135 422 134
f 755 211 574
f 587 356 110
f 422 425 286
f 766 270 770
f 632 633 807
f 138 430 137
f 914 915 758
f 574 756 754
f 430 433 288
f 141 438 140
f 559 332 238
f 650 651 825
f 85 86 347
f 569 753 570
f 438 441 290
f 583 350 107
f 644 645 819
f 82 83 355
f 638 639 813
f 776 772 272
f 626 627 801
f 70 71 389
f 144 446 143
f 99 100 259
f 94 200 93
f 1 193 92
f 201 207 206
f 195 97 202
f 243 193 200
f 191 262 198
f 189 98 195
f 240 91 92
f 244 246 188
f 334 202 203
f 241 242 192
f 89 90 333
f 336 2 335
f 96 97 199
f 346 343 576
f 86 87 343
f 198 262 201
f 344 576 577
f 197 336 204
f 760 352 353
f 196 252 250
f 259 199 190
f 585 353 85
f 83 84 352
f 94 95 207
f 192 200 201
f 591 360 82
f 80 81 359
f 200 94 207
f 355 83 352
f 192 240 243
f 194 244 247
f 599 369 79
f 77 78 368
f 209 95 94
f 197 204 93
f 605 379 76
f 74 75 378
f 205 204 196
f 77 368 371
f 249 248 251
f 80 359 362
f 208 96 95
f 378 381 74
f 259 190 99
f 208 209 203
f 611 387 73
f 71 72 386
f 199 206 96
f 206 207 95
f 617 395 70
f 68 69 394
f 200 207 201
f 71 386 389
f 201 206 198
f 202 208 203
f 623 403 67
f 65 66 402
f 204 209 94
f 265 343 346
f 629 411 64
f 62 63 410
f 565 341 340
f 65 402 405
f 209 205 203
f 68 394 397
f 208 95 209
f 106 107 350
f 635 419 61
f 59 60 418
f 770 359 360
f 368 369 776
f 641 427 58
f 56 57 426
f 113 367 373
f 59 418 421
f 112 372 111
f 374 376 604
f 647 435 55
f 53 54 434
f 386 387 788
f 394 395 794
f 653 443 52
f 402 403 800
f 445 50 442
f 51 442 50
f 390 392 616
f 53 434 437
f 382 384 610
f 56 426 429
f 378 379 782
f 62 410 413
f 350 351 757
f 451 49 659
f 249 205 250
f 449 292 446
f 204 205 209
f 656 657 831
f 582 918 581
f 342 575 350
f 147 454 146
f 662 663 837
f 572 238 571
f 201 262 339
f 150 462 149
f 338 263 239
f 454 457 294
f 668 669 843
f 261 259 260
f 199 259 261
f 153 470 152
f 674 675 849
f 101 260 100
f 261 238 191
f 156 478 155
f 261 260 238
f 470 473 298
f 262 191 263
f 462 465 296
f 680 681 855
f 256 258 562
f 563 562 258
f 159 486 158
f 686 687 861
f 3 257 252
f 4 258 257
f 162 494 161
f 258 4 5
f 486 489 302
f 692 693 867
f 322 324 328
f 256 250 252
f 165 502 164
f 698 699 873
f 246 254 245
f 751 742 320
f 168 510 167
f 334 254 194
f 502 505 306
f 252 257 256
f 494 497 304
f 100 260 259
f 478 481 300
f 704 705 879
f 257 258 256
f 4 257 3
f 171 518 170
f 710 711 885
f 245 254 251
f 253 255 256
f 174 526 173
f 251 254 334
f 518 521 310
f 716 717 891
f 248 323 322
f 250 205 196
f 177 534 176
f 722 723 897
f 248 249 250
f 189 247 244
f 180 542 179
f 323 248 255
f 534 537 314
f 196 335 252
f 526 529 312
f 728 729 903
f 187 246 245
f 254 244 194
f 183 550 182
f 733 735 910
f 249 251 334
f 246 244 254
f 326 186 325
f 330 184 185
f 551 740 550
f 187 188 246
f 92 243 240
f 192 243 200
f 188 189 244
f 202 247 195
f 202 97 96
f 242 90 91
f 98 97 195
f 192 242 240
f 98 99 190
f 242 241 561
f 327 245 328
f 247 189 195
f 545 316 542
f 194 247 202
f 513 308 510
f 563 5 6
f 208 202 96
f 410 411 806
f 453 47 450
f 665 459 46
f 406 408 628
f 414 416 634
f 461 44 458
f 671 467 43
f 426 427 818
f 45 458 44
f 418 419 812
f 434 435 824
f 469 41 466
f 677 475 40
f 430 432 646
f 438 440 652
f 477 38 474
f 683 483 37
f 450 451 836
f 39 474 38
f 442 443 830
f 42 466 41
f 422 424 640
f 458 459 842
f 485 35 482
f 689 491 34
f 454 456 664
f 462 464 670
f 493 32 490
f 695 499 31
f 474 475 854
f 33 490 32
f 466 467 848
f 482 483 860
f 501 29 498
f 701 507 28
f 478 480 682
f 486 488 688
f 509 26 506
f 707 515 25
f 498 499 872
f 27 506 26
f 490 491 866
f 30 498 29
f 470 472 676
f 36 482 35
f 446 448 658
f 506 507 878
f 517 23 514
f 713 523 22
f 502 504 700
f 510 512 706
f 525 20 522
f 719 531 19
f 522 523 890
f 21 522 20
f 514 515 884
f 91 240 242
f 93 204 94
f 15 538 14
f 263 338 339
f 530 531 896
f 533 17 530
f 725 539 16
f 526 528 718
f 1 197 93
f 530 17 18
f 23 24 514
f 518 520 712
f 534 536 724
f 541 14 538
f 731 547 13
f 546 547 908
f 319 555 556
f 549 11 546
f 743 556 10
f 550 552 739
f 12 546 11
f 542 544 730
f 330 185 326
f 746 7 8
f 256 562 253
f 560 101 102
f 263 573 239
f 255 248 250
f 243 92 193
f 2 197 1
f 3 252 335
f 579 578 577
f 203 205 249
f 191 198 261
f 9 555 8
f 7 558 6
f 262 263 339
f 538 539 902
f 256 255 250
f 494 496 694
f 241 338 333
f 48 450 47
f 210 582 581
f 398 400 622
f 430 643 433
f 824 820 289
f 821 822 823
f 52 53 437
f 438 649 441
f 830 826 291
f 827 828 829
f 49 50 445
f 446 655 449
f 836 832 293
f 833 834 835
f 46 47 453
f 454 661 457
f 842 838 295
f 839 840 841
f 43 44 461
f 462 667 465
f 848 844 297
f 845 846 847
f 40 41 469
f 470 673 473
f 854 850 299
f 851 852 853
f 37 38 477
f 478 679 481
f 860 856 301
f 857 858 859
f 34 35 485
f 486 685 489
f 866 862 303
f 863 864 865
f 31 32 493
f 494 691 497
f 872 868 305
f 869 870 871
f 28 29 501
f 502 697 505
f 878 874 307
f 875 876 877
f 25 26 509
f 510 703 513
f 884 880 309
f 881 882 883
f 22 23 517
f 518 709 521
f 890 886 311
f 887 888 889
f 19 20 525
f 526 715 529
f 896 892 313
f 893 894 895
f 16 17 533
f 534 721 537
f 902 898 315
f 899 900 901
f 13 14 541
f 542 727 545
f 908 904 317
f 905 906 907
f 10 11 549
f 551 184 553
f 736 236 733
f 736 318 909
f 911 744 748
f 324 320 325
f 245 251 322
f 323 255 749
f 748 750 564
f 248 322 251
f 324 322 321
f 749 255 253
f 322 323 321
f 751 321 750
f 326 325 320
f 327 325 186
f 328 325 327
f 330 326 742
f 186 326 185
f 186 187 327
f 245 327 187
f 322 328 245
f 324 325 328
f 742 752 741
f 554 909 740
f 742 326 320
f 330 329 553
f 555 557 746
f 564 253 562
f 332 560 348
f 570 571 266
f 561 333 90
f 579 569 578
f 202 334 194
f 249 334 203
f 196 204 336
f 3 335 2
f 2 336 197
f 196 336 335
f 337 563 558
f 564 337 747
f 333 338 239
f 339 338 241
f 241 192 339
f 339 192 201
f 566 340 264
f 340 568 348
f 105 106 575
f 340 341 264
f 264 341 342
f 341 105 575
f 576 87 88
f 347 343 917
f 89 577 88
f 581 346 344
f 345 759 586
f 268 352 760
f 576 343 87
f 581 344 580
f 917 343 265
f 347 345 585
f 348 103 565
f 332 348 266
f 573 191 572
f 266 568 567
f 583 107 108
f 350 267 754
f 590 108 109
f 269 762 358
f 353 352 84
f 355 352 920
f 85 353 84
f 353 345 586
f 765 592 354
f 270 359 770
f 920 352 268
f 355 354 591
f 587 110 111
f 358 356 269
f 357 587 372
f 357 372 761
f 762 763 589
f 583 590 351
f 360 359 81
f 270 361 362
f 82 360 81
f 360 354 592
f 270 768 771
f 272 368 776
f 270 362 359
f 362 361 599
f 593 114 115
f 367 271 365
f 115 116 604
f 364 376 777
f 594 365 271
f 273 372 373
f 593 363 114
f 603 366 364
f 271 367 363
f 367 365 373
f 369 368 78
f 272 370 371
f 79 369 78
f 369 361 600
f 923 606 370
f 275 378 782
f 272 371 368
f 371 370 605
f 373 372 112
f 372 273 761
f 373 112 113
f 273 373 365
f 601 117 118
f 376 374 274
f 118 119 610
f 375 384 783
f 602 376 274
f 593 604 364
f 601 374 117
f 609 377 375
f 379 378 75
f 275 380 381
f 76 379 75
f 379 370 606
f 925 612 380
f 277 386 788
f 275 381 378
f 381 380 611
f 607 120 121
f 384 382 276
f 121 122 616
f 383 392 789
f 608 384 276
f 601 610 375
f 607 382 120
f 615 385 383
f 387 386 72
f 277 388 389
f 73 387 72
f 387 380 612
f 927 618 388
f 279 394 794
f 277 389 386
f 389 388 617
f 613 123 124
f 392 390 278
f 124 125 622
f 391 400 795
f 614 392 278
f 607 616 383
f 613 390 123
f 621 393 391
f 395 394 69
f 279 396 397
f 70 395 69
f 395 388 618
f 929 624 396
f 281 402 800
f 279 397 394
f 397 396 623
f 619 126 127
f 400 398 280
f 127 128 628
f 399 408 801
f 620 400 280
f 613 622 391
f 619 398 126
f 627 401 399
f 403 402 66
f 281 404 405
f 67 403 66
f 403 396 624
f 931 630 404
f 283 410 806
f 281 405 402
f 405 404 629
f 625 129 130
f 408 406 282
f 130 131 634
f 407 416 807
f 626 408 282
f 619 628 399
f 625 406 129
f 633 409 407
f 411 410 63
f 283 412 413
f 64 411 63
f 411 404 630
f 933 636 412
f 285 418 812
f 283 413 410
f 413 412 635
f 631 132 133
f 416 414 284
f 133 134 640
f 415 424 813
f 632 416 284
f 625 634 407
f 631 414 132
f 639 417 415
f 419 418 60
f 285 420 421
f 61 419 60
f 419 412 636
f 935 642 420
f 287 426 818
f 285 421 418
f 421 420 641
f 637 135 136
f 424 422 286
f 136 137 646
f 423 432 819
f 638 424 286
f 631 640 415
f 637 422 135
f 645 425 423
f 427 426 57
f 287 428 429
f 58 427 57
f 427 420 642
f 937 648 428
f 289 434 824
f 287 429 426
f 429 428 647
f 643 138 139
f 432 430 288
f 139 140 652
f 431 440 825
f 644 432 288
f 637 646 423
f 643 430 138
f 651 433 431
f 435 434 54
f 289 436 437
f 55 435 54
f 435 428 648
f 939 654 436
f 291 442 830
f 289 437 434
f 437 436 653
f 649 141 142
f 440 438 290
f 142 143 658
f 439 448 831
f 650 440 290
f 643 652 431
f 649 438 141
f 657 441 439
f 443 442 51
f 291 444 445
f 52 443 51
f 443 436 654
f 941 660 444
f 293 450 836
f 291 445 442
f 445 444 659
f 655 144 145
f 448 446 292
f 145 146 664
f 447 456 837
f 656 448 292
f 649 658 439
f 655 446 144
f 663 449 447
f 451 450 48
f 293 452 453
f 49 451 48
f 451 444 660
f 943 666 452
f 295 458 842
f 293 453 450
f 453 452 665
f 661 147 148
f 456 454 294
f 148 149 670
f 455 464 843
f 662 456 294
f 655 664 447
f 661 454 147
f 669 457 455
f 459 458 45
f 295 460 461
f 46 459 45
f 459 452 666
f 945 672 460
f 297 466 848
f 295 461 458
f 461 460 671
f 667 150 151
f 464 462 296
f 151 152 676
f 463 472 849
f 668 464 296
f 661 670 455
f 667 462 150
f 675 465 463
f 467 466 42
f 297 468 469
f 43 467 42
f 467 460 672
f 947 678 468
f 299 474 854
f 297 469 466
f 469 468 677
f 673 153 154
f 472 470 298
f 154 155 682
f 471 480 855
f 674 472 298
f 667 676 463
f 673 470 153
f 681 473 471
f 475 474 39
f 299 476 477
f 40 475 39
f 475 468 678
f 949 684 476
f 301 482 860
f 299 477 474
f 477 476 683
f 679 156 157
f 480 478 300
f 157 158 688
f 479 488 861
f 680 480 300
f 673 682 471
f 679 478 156
f 687 481 479
f 483 482 36
f 301 484 485
f 37 483 36
f 483 476 684
f 951 690 484
f 303 490 866
f 301 485 482
f 485 484 689
f 685 159 160
f 488 486 302
f 160 161 694
f 487 496 867
f 686 488 302
f 679 688 479
f 685 486 159
f 693 489 487
f 491 490 33
f 303 492 493
f 34 491 33
f 491 484 690
f 953 696 492
f 305 498 872
f 303 493 490
f 493 492 695
f 691 162 163
f 496 494 304
f 163 164 700
f 495 504 873
f 692 496 304
f 685 694 487
f 691 494 162
f 699 497 495
f 499 498 30
f 305 500 501
f 31 499 30
f 499 492 696
f 955 702 500
f 307 506 878
f 305 501 498
f 501 500 701
f 697 165 166
f 504 502 306
f 166 167 706
f 503 512 879
f 698 504 306
f 691 700 495
f 697 502 165
f 705 505 503
f 507 506 27
f 307 508 509
f 28 507 27
f 507 500 702
f 957 708 508
f 309 514 884
f 307 509 506
f 509 508 707
f 703 168 169
f 512 510 308
f 169 170 712
f 511 520 885
f 704 512 308
f 697 706 503
f 703 510 168
f 711 513 511
f 515 514 24
f 309 516 517
f 25 515 24
f 515 508 708
f 959 714 516
f 311 522 890
f 309 517 514
f 517 516 713
f 709 171 172
f 520 518 310
f 172 173 718
f 519 528 891
f 710 520 310
f 703 712 511
f 709 518 171
f 717 521 519
f 523 522 21
f 311 524 525
f 22 523 21
f 523 516 714
f 961 720 524
f 313 530 896
f 311 525 522
f 525 524 719
f 715 174 175
f 528 526 312
f 175 176 724
f 527 536 897
f 716 528 312
f 709 718 519
f 715 526 174
f 723 529 527
f 531 530 18
f 313 532 533
f 19 531 18
f 531 524 720
f 963 726 532
f 315 538 902
f 313 533 530
f 533 532 725
f 721 177 178
f 536 534 314
f 178 179 730
f 535 544 903
f 722 536 314
f 715 724 527
f 721 534 177
f 729 537 535
f 539 538 15
f 315 540 541
f 16 539 15
f 539 532 726
f 965 732 540
f 317 546 908
f 315 541 538
f 541 540 731
f 727 180 181
f 544 542 316
f 181 182 739
f 543 552 910
f 728 544 316
f 721 730 535
f 727 542 180
f 735 545 543
f 547 546 12
f 549 546 968
f 13 547 12
f 547 540 732
f 968 905 967
f 319 738 737
f 968 546 317
f 549 548 743
f 551 550 183
f 552 550 318
f 184 551 183
f 551 329 554
f 733 552 318
f 727 739 543
f 330 553 184
f 329 551 553
f 329 741 554
f 744 237 748
f 556 555 9
f 557 555 319
f 10 556 9
f 737 738 971
f 913 745 744
f 911 558 557
f 558 7 746
f 558 331 747
f 260 559 238
f 560 559 101
f 348 560 102
f 559 560 332
f 242 561 90
f 241 333 561
f 563 258 5
f 564 562 337
f 558 563 6
f 562 563 337
f 748 564 747
f 564 750 749
f 341 565 104
f 348 565 340
f 582 566 264
f 566 210 567
f 569 567 210
f 571 570 349
f 340 566 568
f 567 568 566
f 569 580 578
f 569 579 753
f 266 567 570
f 569 570 567
f 571 349 572
f 266 571 332
f 573 572 349
f 238 572 191
f 573 349 753
f 191 573 263
f 211 919 574
f 264 342 756
f 350 575 106
f 341 575 342
f 577 576 88
f 346 576 344
f 89 333 577
f 333 239 579
f 580 569 210
f 344 577 578
f 333 579 577
f 579 239 753
f 581 580 210
f 344 578 580
f 566 582 210
f 346 581 265
f 756 582 264
f 586 759 919
f 583 108 590
f 350 583 351
f 358 762 764
f 914 268 760
f 347 585 85
f 345 353 585
f 345 917 759
f 586 211 914
f 372 587 111
f 356 587 357
f 365 595 273
f 767 763 588
f 592 765 921
f 764 584 757
f 356 590 109
f 590 358 351
f 355 591 82
f 354 360 591
f 765 354 920
f 592 212 766
f 593 115 604
f 366 593 364
f 775 603 922
f 594 213 595
f 598 595 213
f 273 595 597
f 598 600 596
f 771 768 596
f 598 597 595
f 596 768 769
f 600 598 213
f 597 598 596
f 362 599 79
f 361 369 599
f 771 600 361
f 600 213 772
f 601 118 610
f 377 601 375
f 781 609 924
f 602 214 603
f 923 922 606
f 603 775 366
f 374 604 116
f 604 376 364
f 371 605 76
f 370 379 605
f 923 272 773
f 606 214 778
f 607 121 616
f 385 607 383
f 787 615 926
f 608 215 609
f 925 924 612
f 609 781 377
f 382 610 119
f 610 384 375
f 381 611 73
f 380 387 611
f 925 275 779
f 612 215 784
f 613 124 622
f 393 613 391
f 793 621 928
f 614 216 615
f 927 926 618
f 615 787 385
f 390 616 122
f 616 392 383
f 389 617 70
f 388 395 617
f 927 277 785
f 618 216 790
f 619 127 628
f 401 619 399
f 799 627 930
f 620 217 621
f 929 928 624
f 621 793 393
f 398 622 125
f 622 400 391
f 397 623 67
f 396 403 623
f 929 279 791
f 624 217 796
f 625 130 634
f 409 625 407
f 805 633 932
f 626 218 627
f 931 930 630
f 627 799 401
f 406 628 128
f 628 408 399
f 405 629 64
f 404 411 629
f 931 281 797
f 630 218 802
f 631 133 640
f 417 631 415
f 811 639 934
f 632 219 633
f 933 932 636
f 633 805 409
f 414 634 131
f 634 416 407
f 413 635 61
f 412 419 635
f 933 283 803
f 636 219 808
f 637 136 646
f 425 637 423
f 817 645 936
f 638 220 639
f 935 934 642
f 639 811 417
f 422 640 134
f 640 424 415
f 421 641 58
f 420 427 641
f 935 285 809
f 642 220 814
f 643 139 652
f 433 643 431
f 823 651 938
f 644 221 645
f 937 936 648
f 645 817 425
f 430 646 137
f 646 432 423
f 429 647 55
f 428 435 647
f 937 287 815
f 648 221 820
f 649 142 658
f 441 649 439
f 829 657 940
f 650 222 651
f 939 938 654
f 651 823 433
f 438 652 140
f 652 440 431
f 437 653 52
f 436 443 653
f 939 289 821
f 654 222 826
f 655 145 664
f 449 655 447
f 835 663 942
f 656 223 657
f 941 940 660
f 657 829 441
f 446 658 143
f 658 448 439
f 445 659 49
f 444 451 659
f 941 291 827
f 660 223 832
f 661 148 670
f 457 661 455
f 841 669 944
f 662 224 663
f 943 942 666
f 663 835 449
f 454 664 146
f 664 456 447
f 453 665 46
f 452 459 665
f 943 293 833
f 666 224 838
f 667 151 676
f 465 667 463
f 847 675 946
f 668 225 669
f 945 944 672
f 669 841 457
f 462 670 149
f 670 464 455
f 461 671 43
f 460 467 671
f 945 295 839
f 672 225 844
f 673 154 682
f 473 673 471
f 853 681 948
f 674 226 675
f 947 946 678
f 675 847 465
f 470 676 152
f 676 472 463
f 469 677 40
f 468 475 677
f 947 297 845
f 678 226 850
f 679 157 688
f 481 679 479
f 859 687 950
f 680 227 681
f 949 948 684
f 681 853 473
f 478 682 155
f 682 480 471
f 477 683 37
f 476 483 683
f 949 299 851
f 684 227 856
f 685 160 694
f 489 685 487
f 865 693 952
f 686 228 687
f 951 950 690
f 687 859 481
f 486 688 158
f 688 488 479
f 485 689 34
f 484 491 689
f 951 301 857
f 690 228 862
f 691 163 700
f 497 691 495
f 871 699 954
f 692 229 693
f 953 952 696
f 693 865 489
f 494 694 161
f 694 496 487
f 493 695 31
f 492 499 695
f 953 303 863
f 696 229 868
f 697 166 706
f 505 697 503
f 877 705 956
f 698 230 699
f 955 954 702
f 699 871 497
f 502 700 164
f 700 504 495
f 501 701 28
f 500 507 701
f 955 305 869
f 702 230 874
f 703 169 712
f 513 703 511
f 883 711 958
f 704 231 705
f 957 956 708
f 705 877 505
f 510 706 167
f 706 512 503
f 509 707 25
f 508 515 707
f 957 307 875
f 708 231 880
f 709 172 718
f 521 709 519
f 889 717 960
f 710 232 711
f 959 958 714
f 711 883 513
f 518 712 170
f 712 520 511
f 517 713 22
f 516 523 713
f 959 309 881
f 714 232 886
f 715 175 724
f 529 715 527
f 895 723 962
f 716 233 717
f 961 960 720
f 717 889 521
f 526 718 173
f 718 528 519
f 525 719 19
f 524 531 719
f 961 311 887
f 720 233 892
f 721 178 730
f 537 721 535
f 901 729 964
f 722 234 723
f 963 962 726
f 723 895 529
f 534 724 176
f 724 536 527
f 533 725 16
f 532 539 725
f 963 313 893
f 726 234 898
f 727 181 739
f 545 727 543
f 907 735 966
f 728 235 729
f 965 964 732
f 729 901 537
f 542 730 179
f 730 544 535
f 541 731 13
f 540 547 731
f 965 315 899
f 732 235 904
f 318 740 909
f 733 236 735
f 554 741 745
f 736 734 737
f 548 968 967
f 735 907 545
f 318 736 733
f 734 913 737
f 738 319 556
f 236 736 737
f 969 556 743
f 905 966 967
f 550 739 182
f 739 552 543
f 550 740 318
f 551 554 740
f 742 741 329
f 745 237 744
f 330 742 329
f 324 751 320
f 549 743 10
f 969 743 548
f 744 911 912
f 734 909 745
f 237 745 741
f 744 912 913
f 555 746 8
f 558 746 557
f 558 747 337
f 748 747 331
f 748 331 911
f 750 748 237
f 323 749 321
f 253 564 749
f 752 750 237
f 321 749 750
f 321 751 324
f 751 750 752
f 741 752 237
f 751 752 742
f 573 753 239
f 570 753 349
f 350 754 342
f 755 754 267
f 757 755 267
f 915 755 584
f 754 756 342
f 574 919 970
f 764 757 351
f 755 757 584
f 916 758 915
f 763 921 589
f 918 265 581
f 582 756 970
f 353 586 760
f 760 586 914
f 597 761 273
f 269 761 588
f 763 762 269
f 764 762 589
f 588 763 269
f 921 763 212
f 358 764 351
f 916 764 589
f 268 758 765
f 765 758 916
f 212 767 766
f 769 768 767
f 763 767 212
f 588 597 769
f 270 766 768
f 767 768 766
f 588 769 767
f 596 769 597
f 360 592 770
f 766 770 592
f 270 771 361
f 596 600 771
f 213 594 774
f 774 772 213
f 922 603 214
f 272 772 773
f 271 774 594
f 772 774 773
f 774 271 775
f 366 775 271
f 369 600 776
f 772 776 600
f 602 777 376
f 603 364 777
f 214 602 780
f 780 778 214
f 924 609 215
f 275 778 779
f 274 780 602
f 778 780 779
f 780 274 781
f 377 781 274
f 379 606 782
f 778 782 606
f 608 783 384
f 609 375 783
f 215 608 786
f 786 784 215
f 926 615 216
f 277 784 785
f 276 786 608
f 784 786 785
f 786 276 787
f 385 787 276
f 387 612 788
f 784 788 612
f 614 789 392
f 615 383 789
f 216 614 792
f 792 790 216
f 928 621 217
f 279 790 791
f 278 792 614
f 790 792 791
f 792 278 793
f 393 793 278
f 395 618 794
f 790 794 618
f 620 795 400
f 621 391 795
f 217 620 798
f 798 796 217
f 930 627 218
f 281 796 797
f 280 798 620
f 796 798 797
f 798 280 799
f 401 799 280
f 403 624 800
f 796 800 624
f 626 801 408
f 627 399 801
f 218 626 804
f 804 802 218
f 932 633 219
f 283 802 803
f 282 804 626
f 802 804 803
f 804 282 805
f 409 805 282
f 411 630 806
f 802 806 630
f 632 807 416
f 633 407 807
f 219 632 810
f 810 808 219
f 934 639 220
f 285 808 809
f 284 810 632
f 808 810 809
f 810 284 811
f 417 811 284
f 419 636 812
f 808 812 636
f 638 813 424
f 639 415 813
f 220 638 816
f 816 814 220
f 936 645 221
f 287 814 815
f 286 816 638
f 814 816 815
f 816 286 817
f 425 817 286
f 427 642 818
f 814 818 642
f 644 819 432
f 645 423 819
f 221 644 822
f 822 820 221
f 938 651 222
f 289 820 821
f 288 822 644
f 820 822 821
f 822 288 823
f 433 823 288
f 435 648 824
f 820 824 648
f 650 825 440
f 651 431 825
f 222 650 828
f 828 826 222
f 940 657 223
f 291 826 827
f 290 828 650
f 826 828 827
f 828 290 829
f 441 829 290
f 443 654 830
f 826 830 654
f 656 831 448
f 657 439 831
f 223 656 834
f 834 832 223
f 942 663 224
f 293 832 833
f 292 834 656
f 832 834 833
f 834 292 835
f 449 835 292
f 451 660 836
f 832 836 660
f 662 837 456
f 663 447 837
f 224 662 840
f 840 838 224
f 944 669 225
f 295 838 839
f 294 840 662
f 838 840 839
f 840 294 841
f 457 841 294
f 459 666 842
f 838 842 666
f 668 843 464
f 669 455 843
f 225 668 846
f 846 844 225
f 946 675 226
f 297 844 845
f 296 846 668
f 844 846 845
f 846 296 847
f 465 847 296
f 467 672 848
f 844 848 672
f 674 849 472
f 675 463 849
f 226 674 852
f 852 850 226
f 948 681 227
f 299 850 851
f 298 852 674
f 850 852 851
f 852 298 853
f 473 853 298
f 475 678 854
f 850 854 678
f 680 855 480
f 681 471 855
f 227 680 858
f 858 856 227
f 950 687 228
f 301 856 857
f 300 858 680
f 856 858 857
f 858 300 859
f 481 859 300
f 483 684 860
f 856 860 684
f 686 861 488
f 687 479 861
f 228 686 864
f 864 862 228
f 952 693 229
f 303 862 863
f 302 864 686
f 862 864 863
f 864 302 865
f 489 865 302
f 491 690 866
f 862 866 690
f 692 867 496
f 693 487 867
f 229 692 870
f 870 868 229
f 954 699 230
f 305 868 869
f 304 870 692
f 868 870 869
f 870 304 871
f 497 871 304
f 499 696 872
f 868 872 696
f 698 873 504
f 699 495 873
f 230 698 876
f 876 874 230
f 956 705 231
f 307 874 875
f 306 876 698
f 874 876 875
f 876 306 877
f 505 877 306
f 507 702 878
f 874 878 702
f 704 879 512
f 705 503 879
f 231 704 882
f 882 880 231
f 958 711 232
f 309 880 881
f 308 882 704
f 880 882 881
f 882 308 883
f 513 883 308
f 515 708 884
f 880 884 708
f 710 885 520
f 711 511 885
f 232 710 888
f 888 886 232
f 960 717 233
f 311 886 887
f 310 888 710
f 886 888 887
f 888 310 889
f 521 889 310
f 523 714 890
f 886 890 714
f 716 891 528
f 717 519 891
f 233 716 894
f 894 892 233
f 962 723 234
f 313 892 893
f 312 894 716
f 892 894 893
f 894 312 895
f 529 895 312
f 531 720 896
f 892 896 720
f 722 897 536
f 723 527 897
f 234 722 900
f 900 898 234
f 964 729 235
f 315 898 899
f 314 900 722
f 898 900 899
f 900 314 901
f 537 901 314
f 539 726 902
f 898 902 726
f 728 903 544
f 729 535 903
f 235 728 906
f 906 904 235
f 236 966 735
f 317 904 905
f 316 906 728
f 904 906 905
f 906 316 907
f 545 907 316
f 547 732 908
f 904 908 732
f 745 909 554
f 736 909 734
f 733 910 552
f 735 543 910
f 558 911 331
f 912 911 557
f 557 319 912
f 319 737 913
f 745 913 734
f 319 913 912
f 915 914 211
f 914 758 268
f 755 915 211
f 916 915 584
f 764 916 584
f 916 589 921
f 347 917 345
f 918 917 265
f 918 582 970
f 918 759 917
f 586 919 211
f 759 918 970
f 355 920 354
f 268 765 920
f 592 921 212
f 916 921 765
f 606 922 214
f 775 922 773
f 272 923 370
f 922 923 773
f 612 924 215
f 781 924 779
f 275 925 380
f 924 925 779
f 618 926 216
f 787 926 785
f 277 927 388
f 926 927 785
f 624 928 217
f 793 928 791
f 279 929 396
f 928 929 791
f 630 930 218
f 799 930 797
f 281 931 404
f 930 931 797
f 636 932 219
f 805 932 803
f 283 933 412
f 932 933 803
f 642 934 220
f 811 934 809
f 285 935 420
f 934 935 809
f 648 936 221
f 817 936 815
f 287 937 428
f 936 937 815
f 654 938 222
f 823 938 821
f 289 939 436
f 938 939 821
f 660 940 223
f 829 940 827
f 291 941 444
f 940 941 827
f 666 942 224
f 835 942 833
f 293 943 452
f 942 943 833
f 672 944 225
f 841 944 839
f 295 945 460
f 944 945 839
f 678 946 226
f 847 946 845
f 297 947 468
f 946 947 845
f 684 948 227
f 853 948 851
f 299 949 476
f 948 949 851
f 690 950 228
f 859 950 857
f 301 951 484
f 950 951 857
f 696 952 229
f 865 952 863
f 303 953 492
f 952 953 863
f 702 954 230
f 871 954 869
f 305 955 500
f 954 955 869
f 708 956 231
f 877 956 875
f 307 957 508
f 956 957 875
f 714 958 232
f 883 958 881
f 309 959 516
f 958 959 881
f 720 960 233
f 889 960 887
f 311 961 524
f 960 961 887
f 726 962 234
f 895 962 893
f 313 963 532
f 962 963 893
f 732 964 235
f 901 964 899
f 315 965 540
f 964 965 899
f 966 971 967
f 907 966 905
f 971 966 236
f 969 967 971
f 549 968 548
f 905 968 317
f 556 969 738
f 548 967 969
f 574 970 756
f 970 919 759
f 737 971 236
f 969 971 738