v -0.034513 0.296536 -0.105395
v -0.051182 0.293636 -0.092691
v -0.064331 0.291951 -0.076607
v -0.073589 0.291009 -0.057880
v -0.082009 0.288692 -0.038824
v -0.091774 0.282860 -0.020346
v -0.092994 0.279604 0.000660
v -0.093569 0.272490 0.020554
v -0.093217 0.264591 0.039418
v -0.092775 0.255371 0.057526
v -0.086555 0.247395 0.075157
v -0.077641 0.239255 0.091329
v -0.066239 0.231163 0.105631
v -0.048918 0.221212 0.107245
v -0.037022 0.207995 0.098285
v -0.025469 0.194482 0.089230
v -0.013057 0.181259 0.080936
v 0.005741 0.173925 0.080122
v 0.024720 0.171348 0.084731
v 0.043479 0.169141 0.090835
v 0.062802 0.165137 0.093393
v 0.082072 0.161649 0.097210
v 0.099898 0.160052 0.105831
v 0.117156 0.160359 0.118576
v 0.134120 0.159005 0.129284
v 0.149472 0.157014 0.141814
v 0.162821 0.162309 0.127648
v 0.158312 0.174704 0.112783
v 0.155696 0.187100 0.097489
v 0.152886 0.199188 0.081638
v 0.151091 0.210694 0.065605
v 0.151819 0.223932 0.050776
v 0.146262 0.235278 0.035443
v 0.141303 0.247203 0.019899
v 0.136187 0.259015 0.004413
v 0.128935 0.269565 -0.011308
v 0.121620 0.279586 -0.027180
v 0.110982 0.286585 -0.042789
v 0.099812 0.293143 -0.058458
v 0.088604 0.298708 -0.074651
v 0.077118 0.302180 -0.091309
v 0.063500 0.301222 -0.106939
v 0.046763 0.299547 -0.118840
v 0.028220 0.297869 -0.127500
v 0.008284 0.297085 -0.131890
v -0.011955 0.296678 -0.130583
v -0.030667 0.296722 -0.122840
v -0.049366 0.296436 -0.114947
v -0.065407 0.296451 -0.102708
v -0.077962 0.297010 -0.087108
v -0.086866 0.297029 -0.069173
v -0.093241 0.295619 -0.050276
v -0.095960 0.280934 -0.037020
v -0.100139 0.267856 -0.022411
v -0.097675 0.259630 -0.004172
v -0.092833 0.255977 0.015065
v -0.090267 0.247209 0.032873
v -0.088874 0.234784 0.048386
v -0.088389 0.222067 0.063802
v -0.089599 0.208707 0.078726
v -0.084702 0.199578 0.095789
v -0.076475 0.196065 0.113623
v -0.072861 0.190605 0.132464
v -0.069644 0.185256 0.151438
v -0.067345 0.178423 0.170002
v -0.064370 0.169712 0.187615
v -0.056590 0.164033 0.170284
v -0.057665 0.157653 0.151514
v -0.045152 0.171859 0.157601
v -0.030032 0.184618 0.159049
v -0.028249 0.183497 0.139249
v -0.021507 0.185707 0.120726
v -0.014090 0.188350 0.102438
v -0.000597 0.190954 0.088106
v 0.013539 0.190239 0.074130
v 0.028378 0.194244 0.061129
v 0.041428 0.207370 0.053458
v 0.057580 0.216500 0.045732
v 0.064020 0.233444 0.037336
v 0.071315 0.250119 0.029483
v 0.075907 0.267698 0.021584
v 0.078400 0.286995 0.017625
v 0.088499 0.296704 0.003744
v 0.092496 0.298903 -0.015675
v 0.082515 0.296063 -0.032702
v 0.082132 0.299134 -0.052259
v 0.071518 0.299953 -0.069157
v 0.060763 0.300802 -0.086204
v 0.046236 0.299987 -0.100326
v 0.027816 0.299540 -0.110025
v 0.007068 0.298694 -0.114396
v -0.014187 0.298125 -0.113252
v -0.029230 0.279689 -0.100395
v -0.023251 0.262896 -0.096931
v -0.023279 0.244662 -0.098163
v -0.029498 0.228685 -0.104082
v -0.029217 0.211075 -0.099536
v -0.028243 0.193716 -0.094912
v -0.008564 0.194728 -0.098397
v 0.010198 0.193789 -0.097498
v 0.029481 0.194117 -0.093646
v 0.048474 0.196384 -0.086346
v 0.067385 0.201011 -0.076227
v 0.077021 0.202705 -0.059865
v 0.083519 0.203600 -0.040573
v 0.084954 0.205391 -0.020222
v 0.079075 0.210982 -0.002241
v 0.080830 0.207477 0.017447
v 0.065731 0.201606 0.029088
v 0.066590 0.201384 0.049021
v 0.069045 0.201728 0.068908
v 0.077136 0.197848 0.086705
v 0.089634 0.188838 0.099345
v 0.106523 0.182446 0.107627
v 0.098650 0.171711 0.122268
v 0.086043 0.156756 0.126694
v 0.073390 0.142465 0.132787
v 0.060917 0.129611 0.141218
v 0.046750 0.116043 0.146903
v 0.031530 0.103203 0.151712
v 0.013655 0.093829 0.151685
v -0.004730 0.087241 0.147578
v -0.023608 0.084482 0.141887
v -0.040929 0.089467 0.131428
v -0.046122 0.106324 0.122231
v -0.053356 0.118605 0.108292
v -0.056372 0.136434 0.100619
v -0.058861 0.152504 0.090172
v -0.060749 0.170857 0.083668
v -0.064937 0.186428 0.072589
v -0.070107 0.201410 0.060457
v -0.075421 0.216432 0.048398
v -0.088855 0.205770 0.038237
v -0.086973 0.216525 0.021962
v -0.085116 0.236136 0.019810
v -0.093665 0.224062 0.006520
v -0.100494 0.214482 -0.009252
v -0.099775 0.208908 -0.028475
v -0.090673 0.204288 -0.047236
v -0.089861 0.198346 -0.066634
v -0.077513 0.193009 -0.082889
v -0.061884 0.189566 -0.095453
v -0.043375 0.187496 -0.102281
v -0.028821 0.189147 -0.109452
v -0.008670 0.189912 -0.111847
v 0.010490 0.190661 -0.111703
v 0.029488 0.192894 -0.107727
v 0.046724 0.194812 -0.099119
v 0.064495 0.198268 -0.090323
v 0.080841 0.204294 -0.076108
v 0.089811 0.210680 -0.061985
v 0.094803 0.216980 -0.043346
v 0.098783 0.223875 -0.024834
v 0.097906 0.232476 -0.006837
v 0.106711 0.237728 0.010152
v 0.105944 0.246505 0.028102
v 0.118792 0.238216 0.040754
v 0.133677 0.228895 0.050166
v 0.129149 0.212923 0.061020
v 0.130870 0.197068 0.072757
v 0.130890 0.181858 0.085091
v 0.119744 0.165873 0.088153
v 0.107652 0.150126 0.088051
v 0.096534 0.133646 0.090400
v 0.089077 0.117506 0.099495
v 0.082964 0.101752 0.110048
v 0.075479 0.084917 0.117568
v 0.070517 0.066876 0.124224
v 0.054604 0.066016 0.136451
v 0.035277 0.070908 0.139342
v 0.016245 0.076996 0.135942
v -0.002179 0.084042 0.131415
v -0.020156 0.090921 0.125729
v -0.025449 0.102829 0.110633
v -0.027430 0.116523 0.095901
v -0.028251 0.130659 0.081891
v -0.017903 0.146731 0.077741
v -0.018639 0.159455 0.062682
v -0.034312 0.165710 0.052002
v -0.052519 0.170803 0.045412
v -0.070893 0.178303 0.044005
v -0.075403 0.183423 0.025363
v -0.085363 0.184805 0.008058
v -0.089308 0.187674 -0.011072
v -0.090002 0.191708 -0.030553
v -0.082532 0.192492 -0.050303
v -0.073456 0.193888 -0.067640
v -0.058971 0.192594 -0.080738
v -0.045523 0.194898 -0.086683
v -0.019044 0.202756 -0.097248
v 0.016042 0.237502 -0.107166
v -0.005067 0.272432 -0.105180
v -0.023001 0.289047 -0.107518
v -0.052485 0.221365 -0.088525
v -0.037695 0.202849 -0.093929
v -0.046716 0.268001 -0.081804
v -0.041021 0.286199 -0.098040
v -0.007796 0.237972 -0.105880
v -0.011955 0.220390 -0.101433
v -0.019836 0.271418 -0.108530
v -0.010661 0.255442 -0.112215
v -0.039399 0.220493 -0.095648
v -0.043417 0.239914 -0.091999
v -0.036644 0.269056 -0.093090
v -0.035329 0.253826 -0.082849
v -0.020589 0.236945 -0.107801
v -0.017373 0.254054 -0.102378
v -0.033410 0.237902 -0.098196
v -0.026628 0.253223 -0.090803
v 0.067960 0.252512 -0.073964
v 0.070176 0.254522 -0.018638
v 0.091608 0.248232 0.036549
v 0.084722 0.233798 0.085911
v 0.051984 0.191820 0.110503
v 0.017972 0.148227 0.124524
v -0.013735 0.132038 0.169244
v -0.066754 0.125236 0.165661
v -0.097515 0.156744 0.124713
v -0.119118 0.194290 0.084390
v -0.134936 0.227118 0.038842
v -0.130891 0.247487 -0.015030
v -0.096923 0.251196 -0.063578
v -0.053751 0.244551 -0.104308
v -0.000799 0.242116 -0.126256
v 0.057630 0.246945 -0.113923
v 0.090278 0.263922 -0.071791
v 0.122307 0.250256 -0.030420
v 0.141266 0.207326 0.003127
v 0.156416 0.164230 0.040048
v 0.146362 0.128284 0.087235
v 0.116918 0.106522 0.133793
v 0.059269 0.116966 0.121101
v 0.002687 0.131345 0.115532
v -0.047926 0.159531 0.120468
v -0.052097 0.196057 0.078472
v -0.063572 0.221737 0.035923
v -0.069956 0.236062 -0.020975
v 0.019768 0.215766 -0.099046
v 0.032508 0.266796 -0.093899
v -0.002981 0.287089 -0.110179
v 0.017571 0.276839 -0.106789
v 0.010187 0.287267 -0.109443
v -0.013621 0.281792 -0.106967
v -0.054858 0.206940 -0.085670
v -0.068550 0.217923 -0.071817
v -0.067345 0.208213 -0.080018
v -0.044322 0.211706 -0.089412
v -0.062262 0.245379 -0.066658
v -0.051432 0.247641 -0.079740
v -0.050488 0.259045 -0.066559
v -0.064043 0.233500 -0.080368
v -0.060439 0.274480 -0.070230
v -0.066548 0.261651 -0.040630
v -0.064264 0.221756 -0.083248
v -0.059449 0.254806 -0.053283
v -0.066787 0.269050 -0.055790
v -0.067479 0.280484 -0.061687
v -0.073307 0.279625 -0.047570
v 0.000923 0.208647 -0.099567
v 0.012406 0.205622 -0.099425
v 0.005141 0.224254 -0.104661
v 0.003772 0.248028 -0.110539
v 0.021273 0.256051 -0.106331
v 0.075627 0.232157 -0.050906
v 0.072595 0.271340 -0.059036
v 0.052857 0.227207 -0.082772
v 0.079287 0.229985 -0.014609
v 0.094575 0.269460 -0.005240
v 0.080644 0.222930 0.037209
v 0.088268 0.263258 0.049391
v 0.092976 0.211541 0.107520
v 0.057027 0.221618 0.077098
v 0.094471 0.218640 0.069645
v 0.057610 0.170014 0.131897
v 0.027834 0.187243 0.101757
v 0.021853 0.125032 0.146051
v -0.009043 0.158859 0.132561
v -0.024119 0.103202 0.167573
v -0.039904 0.148864 0.175268
v -0.069766 0.120766 0.134358
v -0.081221 0.151120 0.168250
v -0.088124 0.162323 0.096573
v -0.103697 0.187563 0.127474
v -0.101776 0.203075 0.059581
v -0.114195 0.223314 0.080674
v -0.113173 0.225482 0.017702
v -0.121147 0.253501 0.028886
v -0.103578 0.238736 -0.027789
v -0.118183 0.270178 -0.027957
v -0.086695 0.225291 -0.080234
v -0.077892 0.270058 -0.072642
v -0.038522 0.218293 -0.112710
v -0.039287 0.266454 -0.117859
v 0.019303 0.220914 -0.116792
v 0.017255 0.268345 -0.122473
v 0.068168 0.229628 -0.089879
v 0.073419 0.273732 -0.105178
v 0.096727 0.248430 -0.043805
v 0.119338 0.269892 -0.068246
v 0.122422 0.248741 0.001345
v 0.146129 0.244793 -0.022125
v 0.141632 0.204937 0.034209
v 0.158307 0.209116 0.024803
v 0.142956 0.158431 0.067837
v 0.158350 0.170337 0.070655
v 0.119332 0.112224 0.091376
v 0.149694 0.135744 0.118524
v 0.092108 0.087562 0.134975
v 0.104022 0.131385 0.118200
v 0.034456 0.102022 0.132809
v 0.045934 0.140302 0.103780
v -0.021493 0.122142 0.131193
v -0.010158 0.156589 0.100910
v -0.041820 0.154836 0.093876
v -0.055025 0.191186 0.116599
v -0.038983 0.193346 0.057921
v -0.071941 0.220245 0.069965
v -0.071814 0.206700 0.015172
v -0.071974 0.250118 0.023317
v -0.082182 0.220958 -0.037499
v -0.082350 0.242779 -0.051232
v -0.076200 0.232737 -0.065604
v -0.069385 0.245617 -0.055169
v -0.078289 0.228787 -0.050595
v -0.081459 0.210936 -0.052386
v -0.083625 0.204744 -0.037175
v -0.077538 0.200619 -0.058779
v -0.074221 0.220342 -0.059818
v -0.085336 0.212253 -0.014051
v -0.085974 0.202159 -0.023190
v -0.074851 0.262860 -0.014639
v 0.038585 0.212757 -0.092711
v 0.035580 0.284492 -0.100166
v -0.054116 0.233359 -0.088219
v -0.054674 0.281201 -0.083493
v -0.044617 0.277764 -0.089963
v -0.075758 0.271887 -0.027854
v 0.025306 0.267301 -0.104309
v 0.008427 0.264853 -0.104213
v 0.065653 0.219608 -0.066376
v 0.077924 0.215859 -0.050227
v 0.083896 0.225908 -0.033045
v 0.079097 0.286322 -0.062355
v 0.061924 0.282746 -0.075211
v 0.086906 0.277361 -0.041780
v 0.072123 0.278838 -0.069233
v 0.085621 0.286728 -0.051220
v 0.054205 0.210940 -0.082048
v 0.037090 0.242067 -0.092614
v 0.088290 0.218152 -0.011601
v 0.078648 0.225068 0.006126
v 0.097144 0.286070 -0.005907
v 0.095170 0.282036 -0.024875
v 0.099269 0.277953 0.016182
v 0.096242 0.287073 0.007092
v 0.074430 0.209178 0.038423
v 0.077814 0.217687 0.057818
v 0.067213 0.219561 0.022449
v 0.076056 0.263769 0.037886
v 0.088560 0.277510 0.032318
v 0.071125 0.248171 0.054042
v 0.070466 0.252934 0.042025
v 0.102840 0.198385 0.103871
v 0.086749 0.191182 0.117362
v 0.098674 0.206963 0.087299
v 0.094215 0.200132 0.112729
v 0.097447 0.196015 0.093025
v 0.053331 0.215465 0.061945
v 0.065258 0.230025 0.057254
v 0.043182 0.202669 0.076671
v 0.042430 0.209356 0.065997
v 0.081553 0.210165 0.076352
v 0.088114 0.202072 0.082790
v 0.070080 0.158895 0.131350
v 0.050929 0.149568 0.140751
v 0.074750 0.177170 0.124864
v 0.058690 0.158364 0.136368
v 0.016100 0.190323 0.090251
v 0.031841 0.186915 0.079366
v 0.006621 0.177796 0.104020
v 0.006419 0.189624 0.098739
v 0.034031 0.118983 0.157488
v 0.013143 0.113559 0.164641
v 0.038501 0.135651 0.147613
v 0.021794 0.121097 0.159650
v -0.018439 0.172730 0.130895
v -0.009230 0.172396 0.113783
v -0.017403 0.166017 0.153193
v -0.021603 0.173259 0.143389
v -0.018519 0.093410 0.155139
v -0.041485 0.101049 0.151524
v -0.004922 0.104582 0.164625
v -0.030638 0.099581 0.157583
v -0.043461 0.155395 0.160250
v -0.029746 0.166583 0.168082
v -0.060439 0.141447 0.166924
v -0.053324 0.147331 0.157926
v -0.061846 0.112824 0.121897
v -0.074512 0.130785 0.113808
v -0.056895 0.106411 0.139966
v -0.070423 0.121977 0.121725
v -0.075299 0.164831 0.175893
v -0.064332 0.150801 0.183452
v -0.086980 0.170701 0.156908
v -0.078239 0.172740 0.166145
v -0.071701 0.162961 0.093444
v -0.082993 0.182223 0.086619
v -0.078411 0.147028 0.102956
v -0.080660 0.171683 0.092835
v -0.087258 0.188850 0.124012
v -0.087890 0.183976 0.142720
v -0.099844 0.203695 0.111120
v -0.088729 0.199091 0.116310
v -0.085597 0.206326 0.057023
v -0.098772 0.220722 0.044517
v -0.089112 0.192462 0.070728
v -0.095954 0.211427 0.052437
v -0.097701 0.223326 0.077825
v -0.098079 0.214656 0.095133
v -0.108488 0.235260 0.060986
v -0.098344 0.229778 0.066576
v -0.098585 0.227899 0.025639
v -0.103003 0.243761 0.009500
v -0.107712 0.210968 0.029833
v -0.105500 0.235420 0.018520
v -0.104506 0.254007 0.027098
v -0.105822 0.245011 0.044266
v -0.114382 0.265723 0.009503
v -0.104425 0.260658 0.015902
v -0.106168 0.223079 -0.022456
v -0.096423 0.224993 -0.043500
v -0.100608 0.236060 -0.008539
v -0.099489 0.228076 -0.031933
v -0.107713 0.282766 -0.025508
v -0.110225 0.275112 -0.007645
v -0.107500 0.277331 -0.047854
v -0.107563 0.286136 -0.038146
v -0.080164 0.208450 -0.075823
v -0.066346 0.212843 -0.093932
v -0.090060 0.221184 -0.061590
v -0.079826 0.216648 -0.084614
v -0.084718 0.283753 -0.079089
v -0.096567 0.281023 -0.063696
v -0.066889 0.275812 -0.092334
v -0.075966 0.284414 -0.088706
v -0.038439 0.202641 -0.109287
v -0.018280 0.210184 -0.114479
v -0.053233 0.211914 -0.100989
v -0.030634 0.209037 -0.115331
v -0.039538 0.283180 -0.118277
v -0.054972 0.279714 -0.107061
v -0.019314 0.274844 -0.126607
v -0.027656 0.284193 -0.123345
v 0.019242 0.204651 -0.113389
v 0.039407 0.215460 -0.108147
v 0.001978 0.211521 -0.115824
v 0.028623 0.213435 -0.113803
v 0.017947 0.284496 -0.126325
v -0.000771 0.280037 -0.129813
v 0.037979 0.277908 -0.116563
v 0.030026 0.286385 -0.121980
v 0.069561 0.213446 -0.086615
v 0.080047 0.227899 -0.070927
v 0.057178 0.217855 -0.100652
v 0.074185 0.223966 -0.080928
v 0.069922 0.288527 -0.098126
v 0.055312 0.283761 -0.110032
v 0.088448 0.280305 -0.088207
v 0.081638 0.290157 -0.092853
v 0.099105 0.232730 -0.038942
v 0.102703 0.248150 -0.022512
v 0.091853 0.234619 -0.056869
v 0.102643 0.243170 -0.033905
v 0.112493 0.281677 -0.058571
v 0.102410 0.283818 -0.075116
v 0.129593 0.270163 -0.047008
v 0.119663 0.278551 -0.048111
v 0.112210 0.253064 0.013920
v 0.127236 0.236504 0.020652
v 0.104900 0.255943 -0.004458
v 0.121946 0.245275 0.013294
v 0.138970 0.255941 -0.011851
v 0.135224 0.264785 -0.028943
v 0.148953 0.237889 0.000116
v 0.142228 0.249046 -0.001140
v 0.138703 0.213040 0.047287
v 0.133960 0.192457 0.051273
v 0.130617 0.219980 0.030789
v 0.134473 0.201787 0.043731
v 0.153162 0.221105 0.035294
v 0.150388 0.229187 0.017463
v 0.158456 0.201300 0.046782
v 0.155678 0.214008 0.045838
v 0.134990 0.166401 0.080208
v 0.127681 0.145141 0.077001
v 0.136290 0.176336 0.063001
v 0.135544 0.154353 0.077017
v 0.157822 0.183281 0.081276
v 0.156921 0.192421 0.063897
v 0.159173 0.162943 0.092700
v 0.158562 0.175868 0.091813
v 0.103663 0.118525 0.090974
v 0.104855 0.099159 0.103985
v 0.117044 0.128606 0.080254
v 0.108328 0.107966 0.095712
v 0.154532 0.148058 0.128088
v 0.159752 0.154681 0.110161
v 0.136438 0.137390 0.137739
v 0.147004 0.144876 0.138267
v 0.085164 0.074662 0.126911
v 0.068814 0.084524 0.138579
v 0.099045 0.084973 0.116461
v 0.081019 0.081488 0.136440
v 0.106397 0.147824 0.115666
v 0.120762 0.143921 0.128398
v 0.085130 0.141687 0.108543
v 0.095510 0.149341 0.108663
v 0.029632 0.086724 0.139129
v 0.011663 0.102073 0.136855
v 0.049270 0.089476 0.137735
v 0.023533 0.098189 0.137388
v 0.050071 0.154683 0.096314
v 0.067666 0.147806 0.100632
v 0.027145 0.150630 0.095038
v 0.037841 0.157735 0.093841
v -0.025841 0.106715 0.127303
v -0.036819 0.124472 0.116146
v -0.007199 0.108367 0.134203
v -0.031614 0.117670 0.125542
v -0.006967 0.167751 0.088818
v 0.010107 0.158390 0.089844
v -0.025431 0.174555 0.101269
v -0.017317 0.175031 0.091398
v -0.033715 0.145639 0.083226
v -0.028623 0.167620 0.081792
v -0.039529 0.137506 0.101230
v -0.035690 0.157488 0.083454
v -0.047142 0.205076 0.111327
v -0.036530 0.189949 0.105373
v -0.067370 0.207836 0.105096
v -0.057562 0.212774 0.111771
v -0.044348 0.177439 0.057912
v -0.059530 0.193769 0.049775
v -0.027229 0.180724 0.067967
v -0.050680 0.188315 0.057130
v -0.082222 0.231150 0.077502
v -0.075723 0.219780 0.092016
v -0.075885 0.239108 0.056665
v -0.083880 0.238170 0.066676
v -0.084048 0.196542 0.019835
v -0.086053 0.202354 0.001924
v -0.070160 0.198780 0.033644
v -0.088177 0.200337 -0.010408
v -0.078410 0.220338 0.001994
v -0.081418 0.263108 0.027713
v -0.077269 0.254600 0.044950
v -0.077184 0.261771 0.006828
v -0.086018 0.272893 -0.010603
v 0.027294 0.206328 -0.096413
v 0.038311 0.201109 -0.091138
v 0.024336 0.287537 -0.106637
v -0.070741 0.272010 -0.038423
v -0.082349 0.280799 -0.030330
v -0.081335 0.252391 -0.029700
v 0.068045 0.207730 -0.067040
v 0.066082 0.237236 -0.065435
v 0.060229 0.240529 -0.080323
v 0.060689 0.229057 -0.073009
v 0.047052 0.258088 -0.080661
v 0.049735 0.238630 -0.089080
v 0.041217 0.227559 -0.096486
v 0.029804 0.234205 -0.102958
v 0.029022 0.246878 -0.101601
v 0.074837 0.240483 -0.031534
v 0.084654 0.212993 -0.030982
v 0.069284 0.292420 -0.079741
v 0.053878 0.284534 -0.092208
v 0.051375 0.273061 -0.081943
v 0.044844 0.273626 -0.094464
v 0.060456 0.262534 -0.080443
v 0.060864 0.262552 -0.064491
v 0.076317 0.251953 -0.054945
v 0.084331 0.214638 0.008283
v 0.068804 0.241456 -0.000981
v 0.090112 0.286852 -0.035264
v 0.080066 0.269913 -0.024738
v 0.070785 0.207788 0.058529
v 0.090772 0.236842 0.055889
v 0.079544 0.237654 0.021526
v 0.069039 0.208048 0.019208
v 0.089310 0.282832 0.021272
v 0.102031 0.263619 0.029727
v 0.097971 0.184202 0.117683
v 0.095188 0.222440 0.093954
v 0.098862 0.229805 0.080079
v 0.090525 0.248991 0.068317
v 0.100485 0.231501 0.065486
v 0.091909 0.240133 0.077520
v 0.066691 0.238293 0.048305
v 0.072302 0.240561 0.072226
v 0.061264 0.141726 0.138177
v 0.059754 0.185451 0.124492
v 0.069167 0.200811 0.115329
v 0.085532 0.169676 0.123331
v 0.034481 0.195960 0.071225
v 0.046568 0.190530 0.091648
v 0.019865 0.104499 0.157706
v 0.025943 0.138543 0.136274
v 0.033631 0.156895 0.133597
v 0.049283 0.128032 0.146287
v -0.005289 0.180258 0.105275
v 0.006921 0.161131 0.114537
v -0.035795 0.092432 0.143244
v -0.014143 0.116084 0.173587
v -0.003453 0.121570 0.155534
v 0.001343 0.096608 0.156046
v -0.024578 0.173649 0.159519
v -0.018270 0.150835 0.165647
v -0.063360 0.127386 0.107514
v -0.064450 0.117893 0.150367
v -0.051017 0.112539 0.164540
v -0.050909 0.098194 0.131419
v -0.059038 0.152253 0.172492
v -0.070860 0.132424 0.180805
v -0.070161 0.180227 0.082695
v -0.092276 0.151660 0.109250
v -0.086449 0.141334 0.126435
v -0.066396 0.144602 0.098031
v -0.080376 0.179368 0.151309
v -0.098343 0.167382 0.141203
v -0.086146 0.218608 0.040818
v -0.104766 0.197768 0.075662
v -0.102600 0.184446 0.090585
v -0.076100 0.192263 0.068140
v -0.091899 0.206958 0.102360
v -0.115438 0.206350 0.099212
v -0.092148 0.237004 0.008559
v -0.123225 0.218550 0.029589
v -0.118354 0.221759 0.048784
v -0.095406 0.207859 0.026830
v -0.100013 0.237922 0.052408
v -0.123951 0.239455 0.049564
v -0.102016 0.213777 -0.040567
v -0.115737 0.239501 -0.016004
v -0.121358 0.245348 0.002113
v -0.103583 0.225130 -0.002157
v -0.105550 0.267467 0.000836
v -0.126291 0.263993 -0.005420
v -0.069446 0.199887 -0.091167
v -0.095879 0.234967 -0.069108
v -0.107232 0.237970 -0.052750
v -0.091349 0.209854 -0.059071
v -0.100054 0.285802 -0.052914
v -0.091192 0.266301 -0.052001
v -0.018844 0.198275 -0.111274
v -0.050855 0.227952 -0.106045
v -0.068253 0.233135 -0.097215
v -0.055940 0.199523 -0.098454
v -0.064019 0.284576 -0.100221
v -0.052580 0.263048 -0.097523
v 0.037254 0.202185 -0.105495
v 0.004596 0.226784 -0.122380
v -0.015429 0.228640 -0.121938
v 0.000873 0.199322 -0.111964
v -0.012134 0.284544 -0.128818
v -0.005656 0.260959 -0.128687
v 0.081113 0.214927 -0.070209
v 0.058123 0.234197 -0.102794
v 0.043078 0.233000 -0.115711
v 0.055676 0.204788 -0.098082
v 0.045362 0.287764 -0.115879
v 0.050652 0.264693 -0.109847
v 0.101790 0.235375 -0.018846
v 0.093284 0.250871 -0.060971
v 0.084079 0.245909 -0.078075
v 0.094143 0.222016 -0.055649
v 0.092836 0.289023 -0.080834
v 0.103205 0.267575 -0.086200
v 0.116361 0.238641 0.027686
v 0.118721 0.254898 -0.014384
v 0.109298 0.266050 -0.028287
v 0.101672 0.243530 -0.000789
v 0.128369 0.273082 -0.035043
v 0.137001 0.252112 -0.043535
v 0.129811 0.199747 0.059779
v 0.135701 0.210752 0.019202
v 0.136068 0.225576 0.006285
v 0.124847 0.226428 0.040719
v 0.146030 0.239334 0.011840
v 0.156068 0.220251 0.002397
v 0.119859 0.153307 0.083970
v 0.143798 0.165218 0.052136
v 0.146134 0.181092 0.039949
v 0.133350 0.185137 0.072461
v 0.155334 0.203383 0.058399
v 0.161700 0.181438 0.048356
v 0.092906 0.105028 0.101996
v 0.132081 0.120353 0.083188
v 0.140345 0.131785 0.068809
v 0.108012 0.137390 0.084431
v 0.159440 0.165628 0.104617
v 0.154396 0.143919 0.094673
v 0.066618 0.071761 0.135868
v 0.107462 0.092967 0.128968
v 0.121287 0.099638 0.115477
v 0.086939 0.089304 0.112648
v 0.131895 0.147317 0.132170
v 0.120995 0.125588 0.135683
v 0.009531 0.089022 0.135856
v 0.050379 0.102959 0.126474
v 0.070041 0.103781 0.132076
v 0.047727 0.076826 0.139857
v 0.079744 0.150169 0.101246
v 0.068380 0.131509 0.111402
v -0.031032 0.114963 0.108916
v -0.004407 0.124827 0.131144
v 0.014482 0.118942 0.126110
v -0.009132 0.095422 0.131907
v 0.022246 0.160341 0.089430
v 0.010372 0.142379 0.101212
v -0.020778 0.159014 0.075775
v -0.049025 0.148225 0.107671
v -0.039251 0.141161 0.123649
v -0.032605 0.128586 0.094351
v -0.028753 0.185655 0.096977
v -0.036050 0.174874 0.117929
v -0.058582 0.182461 0.043692
v -0.035550 0.194575 0.074397
v -0.041792 0.181516 0.088121
v -0.025022 0.170538 0.060201
v -0.069499 0.219742 0.102570
v -0.069229 0.201818 0.086725
v -0.058804 0.208885 0.025733
v -0.063031 0.226869 0.013803
v -0.049252 0.209738 0.043360
v -0.059900 0.221126 0.024276
v -0.068742 0.234442 0.026970
v -0.068551 0.245329 0.037252
v -0.076532 0.188326 0.037415
v -0.081604 0.210609 0.009023
v -0.080826 0.227105 -0.012867
v -0.085972 0.222256 -0.024456
v -0.083077 0.248866 0.054050
v -0.068977 0.247037 -0.004134
v -0.067297 0.230476 -0.005199
v -0.086193 0.271204 0.009366
v -0.082227 0.261808 -0.023767
v -0.070578 0.250415 -0.020518
v -0.078802 0.254087 -0.043604
v -0.073863 0.238737 -0.037317
v -0.084701 0.233327 -0.040411
v -0.080107 0.233247 -0.026910
v 0.036336 0.254990 -0.088596
v 0.083034 0.234212 -0.025073
v 0.070034 0.240308 -0.017882
v 0.083887 0.237112 -0.041196
v 0.072495 0.229950 -0.003908
v 0.080846 0.255832 -0.002116
v 0.069844 0.268771 -0.041274
v 0.091159 0.271305 -0.018028
v 0.086084 0.226807 0.063098
v 0.075330 0.227421 0.027042
v 0.082649 0.237067 0.035536
v 0.067000 0.233302 0.012695
v 0.094353 0.259566 0.011821
v 0.101816 0.256774 0.044574
v 0.098498 0.243762 0.047227
v 0.096556 0.255574 0.057522
v 0.101272 0.243586 0.060043
v 0.095423 0.268872 0.039701
v 0.078412 0.248700 0.064499
v 0.069715 0.229230 0.083207
v 0.064717 0.210445 0.095173
v 0.077872 0.222130 0.097495
v 0.073523 0.211658 0.106626
v 0.063559 0.230855 0.070260
v 0.074004 0.189681 0.120573
v 0.042248 0.181063 0.103831
v 0.027714 0.173265 0.119828
v 0.043024 0.181524 0.121541
v 0.038514 0.169808 0.128931
v 0.035274 0.183676 0.091456
v 0.037944 0.146961 0.140984
v 0.002151 0.150202 0.125139
v -0.001454 0.142270 0.146274
v 0.008784 0.136147 0.133416
v 0.002935 0.128518 0.144434
v -0.004893 0.161850 0.120418
v 0.000473 0.116004 0.168349
v -0.026559 0.140289 0.174261
v -0.044717 0.126564 0.176759
v -0.029077 0.123560 0.169406
v -0.039976 0.115057 0.173996
v -0.028201 0.154613 0.173410
v -0.052260 0.108466 0.152108
v -0.076635 0.135960 0.166378
v -0.085718 0.143992 0.146971
v -0.075743 0.131282 0.151864
v -0.081197 0.135663 0.138830
v -0.074451 0.144731 0.177599
v -0.083291 0.140562 0.113230
v -0.103618 0.171489 0.126771
v -0.112159 0.180351 0.107741
v -0.103910 0.164892 0.110585
v -0.104806 0.172209 0.098133
v -0.099337 0.180081 0.137521
v -0.093593 0.189125 0.082426
v -0.122100 0.210027 0.085187
v -0.129006 0.217354 0.064582
v -0.120509 0.202765 0.069277
v -0.119800 0.209416 0.056405
v -0.110701 0.216063 0.091379
v -0.110550 0.220346 0.038443
v -0.130459 0.241895 0.035042
v -0.135165 0.245834 0.012899
v -0.133066 0.230555 0.021739
v -0.127569 0.233984 0.008715
v -0.118159 0.247250 0.040336
v -0.109420 0.243162 -0.002175
v -0.118755 0.257562 -0.018037
v -0.107987 0.252497 -0.037679
v -0.123104 0.246324 -0.030517
v -0.116318 0.241687 -0.042181
v -0.120575 0.271417 -0.014902
v -0.099400 0.228182 -0.055665
v -0.082955 0.258092 -0.063714
v -0.069803 0.250219 -0.081526
v -0.086025 0.246227 -0.077080
v -0.077574 0.239576 -0.087678
v -0.086880 0.272023 -0.063022
v -0.062064 0.221425 -0.098295
v -0.042464 0.255295 -0.107257
v -0.028439 0.247006 -0.123535
v -0.039483 0.238818 -0.112947
v -0.029362 0.232505 -0.121464
v -0.048752 0.268167 -0.108800
v -0.008028 0.219244 -0.117370
v 0.008632 0.255085 -0.125484
v 0.030134 0.249941 -0.119947
v 0.016580 0.239519 -0.125116
v 0.030230 0.235581 -0.122246
v 0.005228 0.268633 -0.127887
v 0.049222 0.223811 -0.109041
v 0.065901 0.260207 -0.109961
v 0.084899 0.255742 -0.098135
v 0.071754 0.245135 -0.103320
v 0.080742 0.243493 -0.091962
v 0.060222 0.272526 -0.105335
v 0.084921 0.239393 -0.066964
v 0.105789 0.262162 -0.071289
v 0.112213 0.258659 -0.049618
v 0.098001 0.266407 -0.055692
v 0.102788 0.266297 -0.041599
v 0.110850 0.274073 -0.077433
v 0.104705 0.259892 -0.017383
v 0.134833 0.240668 -0.032770
v 0.136500 0.225121 -0.016460
v 0.126551 0.239414 -0.017342
v 0.132983 0.234109 -0.005395
v 0.141611 0.253298 -0.031391
v 0.131011 0.224052 0.018317
v 0.155649 0.205561 0.009579
v 0.155789 0.186357 0.022487
v 0.142598 0.195109 0.015508
v 0.142004 0.187036 0.027512
v 0.156225 0.218640 0.015672
v 0.138453 0.179828 0.050328
v 0.160607 0.166666 0.055466
v 0.156687 0.147413 0.068068
v 0.153825 0.150827 0.051185
v 0.146539 0.141418 0.059524
v 0.159279 0.179706 0.061141
v 0.128223 0.132295 0.074076
v 0.148039 0.131871 0.103167
v 0.136057 0.117351 0.116412
v 0.138571 0.117471 0.099114
v 0.129967 0.108178 0.106881
v 0.154146 0.143328 0.108475
v 0.109798 0.092627 0.114002
v 0.110291 0.118776 0.125732
v 0.087454 0.116701 0.124174
v 0.099286 0.107579 0.133796
v 0.084743 0.105320 0.133065
v 0.113894 0.132676 0.126860
v 0.061263 0.093991 0.132884
v 0.052374 0.127900 0.111585
v 0.029757 0.126548 0.111005
v 0.041618 0.115531 0.117988
v 0.027296 0.115298 0.120199
v 0.059408 0.139678 0.105904
v 0.005082 0.113161 0.134063
v -0.003895 0.143900 0.108285
v -0.021496 0.152571 0.120186
v -0.010991 0.138992 0.123499
v -0.025116 0.140243 0.127077
v 0.001738 0.151761 0.097601
v -0.042601 0.136177 0.113855
v -0.051857 0.175234 0.118653
v -0.061837 0.179416 0.098669
v -0.056667 0.164135 0.105995
v -0.048977 0.172659 0.097053
v -0.042816 0.186099 0.116394
v -0.032160 0.180158 0.079602
v -0.061881 0.208089 0.074125
v -0.051312 0.223551 0.061564
v -0.044794 0.209588 0.070881
v -0.044228 0.211909 0.056758
v -0.073522 0.213094 0.080960
v -0.068008 0.216571 0.008629
v -0.058138 0.201094 0.038965
v -0.073266 0.257723 -0.004098
v -0.071803 0.249600 0.009377
v -0.068062 0.238526 0.014766
v 0.081555 0.260525 -0.014955
v 0.071421 0.251292 -0.007168
v 0.076691 0.248115 0.010518
v 0.078957 0.271719 -0.048706
v 0.065172 0.259724 -0.051063
v 0.069337 0.254803 -0.034403
v 0.097250 0.270254 0.006780
v 0.086936 0.251135 0.022167
v 0.061831 0.199098 0.103262
v 0.053477 0.203523 0.087753
v 0.026554 0.159180 0.121461
v 0.018280 0.169306 0.108690
v -0.008187 0.134942 0.156450
v -0.010054 0.152735 0.152991
v -0.056660 0.120592 0.174819
v -0.056067 0.135923 0.180392
v -0.091034 0.148778 0.134617
v -0.091319 0.157653 0.150595
v -0.116169 0.185497 0.095178
v -0.112524 0.195586 0.109732
v -0.132342 0.220500 0.051160
v -0.122972 0.231235 0.062534
v -0.135092 0.245851 -0.001392
v -0.127985 0.259092 0.009147
v -0.105629 0.251836 -0.051916
v -0.101418 0.265549 -0.040673
v -0.062430 0.245468 -0.093031
v -0.063045 0.262555 -0.086400
v -0.015044 0.242464 -0.124642
v -0.020652 0.259746 -0.126116
v 0.044025 0.246745 -0.118587
v 0.036446 0.262968 -0.115124
v 0.084705 0.258679 -0.083952
v 0.092545 0.268642 -0.096984
v 0.119167 0.261972 -0.037706
v 0.126668 0.256647 -0.053446
v 0.136166 0.217075 -0.005044
v 0.150294 0.227138 -0.010327
v 0.154241 0.174533 0.030329
v 0.160317 0.190737 0.036193
v 0.150969 0.136469 0.075730
v 0.157184 0.152183 0.082249
v 0.127146 0.109206 0.124244
v 0.134848 0.124794 0.129507
v 0.073096 0.115341 0.124037
v 0.082871 0.128427 0.115695
v 0.015385 0.126728 0.114317
v 0.024730 0.137679 0.102444
v -0.034984 0.154797 0.124200
v -0.025066 0.165523 0.113349
v -0.055355 0.186130 0.088084
v -0.067310 0.193761 0.099341
v -0.056411 0.220950 0.048328
v -0.060132 0.235603 0.054538
v -0.069111 0.228582 0.060524
v -0.067305 0.244958 0.049768
v 0.079133 0.249567 -0.041644
v -0.065154 0.233378 0.042315
f 98 190 97
f 55 56 429
f 815 816 817
f 261 198 199
f 206 95 96
f 422 637 425
f 58 59 421
f 104 565 103
f 818 814 287
f 260 101 559
f 105 341 104
f 812 808 285
f 414 631 417
f 755 574 754
f 343 347 86
f 803 804 805
f 806 802 283
f 590 356 358
f 61 62 413
f 568 266 348
f 809 810 811
f 332 571 238
f 356 109 110
f 64 65 405
f 797 798 799
f 367 113 363
f 190 199 97
f 199 198 206
f 102 103 348
f 1 93 193
f 269 357 761
f 757 267 350
f 114 363 113
f 398 619 401
f 67 68 397
f 271 363 366
f 117 374 116
f 794 790 279
f 390 613 393
f 374 377 274
f 791 792 793
f 594 595 365
f 800 796 281
f 777 602 603
f 406 625 409
f 200 193 93
f 120 382 119
f 785 786 787
f 788 784 277
f 382 385 276
f 123 390 122
f 73 74 381
f 779 780 781
f 390 393 278
f 382 607 385
f 608 609 783
f 126 398 125
f 374 601 377
f 356 357 269
f 398 401 280
f 129 406 128
f 76 77 371
f 773 774 775
f 406 409 282
f 597 588 761
f 620 621 795
f 782 778 275
f 614 615 789
f 132 414 131
f 363 593 366
f 79 80 362
f 414 417 284
f 135 422 134
f 755 211 574
f 587 356 110
f 422 425 286
f 766 270 770
f 632 633 807
f 138 430 137
f 914 915 758
f 574 756 754
f 430 433 288
f 141 438 140
f 559 332 238
f 650 651 825
f 85 86 347
f 569 753 570
f 438 441 290
f 583 350 107
f 644 645 819
f 82 83 355
f 638 639 813
f 776 772 272
f 626 627 801
f 70 71 389
f 144 446 143
f 99 100 259
f 94 200 93
f 1 193 92
f 201 207 206
f 195 97 202
f 243 193 200
f 191 262 198
f 189 98 195
f 240 91 92
f 244 246 188
f 334 202 203
f 241 242 192
f 89 90 333
f 336 2 335
f 96 97 199
f 346 343 576
f 86 87 343
f 198 262 201
f 344 576 577
f 197 336 204
f 760 352 353
f 196 252 250
f 259 199 190
f 585 353 85
f 83 84 352
f 94 95 207
f 192 200 201
f 591 360 82
f 80 81 359
f 200 94 207
f 355 83 352
f 192 240 243
f 194 244 247
f 599 369 79
f 77 78 368
f 209 95 94
f 197 204 93
f 605 379 76
f 74 75 378
f 205 204 196
f 77 368 371
f 249 248 251
f 80 359 362
f 208 96 95
f 378 381 74
f 259 190 99
f 208 209 203
f 611 387 73
f 71 72 386
f 199 206 96
f 206 207 95
f 617 395 70
f 68 69 394
f 200 207 201
f 71 386 389
f 201 206 198
f 202 208 203
f 623 403 67
f 65 66 402
f 204 209 94
f 265 343 346
f 629 411 64
f 62 63 410
f 565 341 340
f 65 402 405
f 209 205 203
f 68 394 397
f 208 95 209
f 106 107 350
f 635 419 61
f 59 60 418
f 770 359 360
f 368 369 776
f 641 427 58
f 56 57 426
f 113 367 373
f 59 418 421
f 112 372 111
f 374 376 604
f 647 435 55
f 53 54 434
f 386 387 788
f 394 395 794
f 653 443 52
f 402 403 800
f 445 50 442
f 51 442 50
f 390 392 616
f 53 434 437
f 382 384 610
f 56 426 429
f 378 379 782
f 62 410 413
f 350 351 757
f 451 49 659
f 249 205 250
f 449 292 446
f 204 205 209
f 656 657 831
f 582 918 581
f 342 575 350
f 147 454 146
f 662 663 837
f 572 238 571
f 201 262 339
f 150 462 149
f 338 263 239
f 454 457 294
f 668 669 843
f 261 259 260
f 199 259 261
f 153 470 152
f 674 675 849
f 101 260 100
f 261 238 191
f 156 478 155
f 261 260 238
f 470 473 298
f 262 191 263
f 462 465 296
f 680 681 855
f 256 258 562
f 563 562 258
f 159 486 158
f 686 687 861
f 3 257 252
f 4 258 257
f 162 494 161
f 258 4 5
f 486 489 302
f 692 693 867
f 322 324 328
f 256 250 252
f 165 502 164
f 698 699 873
f 246 254 245
f 751 742 320
f 168 510 167
f 334 254 194
f 502 505 306
f 252 257 256
f 494 497 304
f 100 260 259
f 478 481 300
f 704 705 879
f 257 258 256
f 4 257 3
f 171 518 170
f 710 711 885
f 245 254 251
f 253 255 256
f 174 526 173
f 251 254 334
f 518 521 310
f 716 717 891
f 248 323 322
f 250 205 196
f 177 534 176
f 722 723 897
f 248 249 250
f 189 247 244
f 180 542 179
f 323 248 255
f 534 537 314
f 196 335 252
f 526 529 312
f 728 729 903
f 187 246 245
f 254 244 194
f 183 550 182
f 733 735 910
f 249 251 334
f 246 244 254
f 326 186 325
f 330 184 185
f 551 740 550
f 187 188 246
f 92 243 240
f 192 243 200
f 188 189 244
f 202 247 195
f 202 97 96
f 242 90 91
f 98 97 195
f 192 242 240
f 98 99 190
f 242 241 561
f 327 245 328
f 247 189 195
f 545 316 542
f 194 247 202
f 513 308 510
f 563 5 6
f 208 202 96
f 410 411 806
f 453 47 450
f 665 459 46
f 406 408 628
f 414 416 634
f 461 44 458
f 671 467 43
f 426 427 818
f 45 458 44
f 418 419 812
f 434 435 824
f 469 41 466
f 677 475 40
f 430 432 646
f 438 440 652
f 477 38 474
f 683 483 37
f 450 451 836
f 39 474 38
f 442 443 830
f 42 466 41
f 422 424 640
f 458 459 842
f 485 35 482
f 689 491 34
f 454 456 664
f 462 464 670
f 493 32 490
f 695 499 31
f 474 475 854
f 33 490 32
f 466 467 848
f 482 483 860
f 501 29 498
f 701 507 28
f 478 480 682
f 486 488 688
f 509 26 506
f 707 515 25
f 498 499 872
f 27 506 26
f 490 491 866
f 30 498 29
f 470 472 676
f 36 482 35
f 446 448 658
f 506 507 878
f 517 23 514
f 713 523 22
f 502 504 700
f 510 512 706
f 525 20 522
f 719 531 19
f 522 523 890
f 21 522 20
f 514 515 884
f 91 240 242
f 93 204 94
f 15 538 14
f 263 338 339
f 530 531 896
f 533 17 530
f 725 539 16
f 526 528 718
f 1 197 93
f 530 17 18
f 23 24 514
f 518 520 712
f 534 536 724
f 541 14 538
f 731 547 13
f 546 547 908
f 319 555 556
f 549 11 546
f 743 556 10
f 550 552 739
f 12 546 11
f 542 544 730
f 330 185 326
f 746 7 8
f 256 562 253
f 560 101 102
f 263 573 239
f 255 248 250
f 243 92 193
f 2 197 1
f 3 252 335
f 579 578 577
f 203 205 249
f 191 198 261
f 9 555 8
f 7 558 6
f 262 263 339
f 538 539 902
f 256 255 250
f 494 496 694
f 241 338 333
f 48 450 47
f 210 582 581
f 398 400 622
f 430 643 433
f 824 820 289
f 821 822 823
f 52 53 437
f 438 649 441
f 830 826 291
f 827 828 829
f 49 50 445
f 446 655 449
f 836 832 293
f 833 834 835
f 46 47 453
f 454 661 457
f 842 838 295
f 839 840 841
f 43 44 461
f 462 667 465
f 848 844 297
f 845 846 847
f 40 41 469
f 470 673 473
f 854 850 299
f 851 852 853
f 37 38 477
f 478 679 481
f 860 856 301
f 857 858 859
f 34 35 485
f 486 685 489
f 866 862 303
f 863 864 865
f 31 32 493
f 494 691 497
f 872 868 305
f 869 870 871
f 28 29 501
f 502 697 505
f 878 874 307
f 875 876 877
f 25 26 509
f 510 703 513
f 884 880 309
f 881 882 883
f 22 23 517
f 518 709 521
f 890 886 311
f 887 888 889
f 19 20 525
f 526 715 529
f 896 892 313
f 893 894 895
f 16 17 533
f 534 721 537
f 902 898 315
f 899 900 901
f 13 14 541
f 542 727 545
f 908 904 317
f 905 906 907
f 10 11 549
f 551 184 553
f 736 236 733
f 736 318 909
f 911 744 748
f 324 320 325
f 245 251 322
f 323 255 749
f 748 750 564
f 248 322 251
f 324 322 321
f 749 255 253
f 322 323 321
f 751 321 750
f 326 325 320
f 327 325 186
f 328 325 327
f 330 326 742
f 186 326 185
f 186 187 327
f 245 327 187
f 322 328 245
f 324 325 328
f 742 752 741
f 554 909 740
f 742 326 320
f 330 329 553
f 555 557 746
f 564 253 562
f 332 560 348
f 570 571 266
f 561 333 90
f 579 569 578
f 202 334 194
f 249 334 203
f 196 204 336
f 3 335 2
f 2 336 197
f 196 336 335
f 337 563 558
f 564 337 747
f 333 338 239
f 339 338 241
f 241 192 339
f 339 192 201
f 566 340 264
f 340 568 348
f 105 106 575
f 340 341 264
f 264 341 342
f 341 105 575
f 576 87 88
f 347 343 917
f 89 577 88
f 581 346 344
f 345 759 586
f 268 352 760
f 576 343 87
f 581 344 580
f 917 343 265
f 347 345 585
f 348 103 565
f 332 348 266
f 573 191 572
f 266 568 567
f 583 107 108
f 350 267 754
f 590 108 109
f 269 762 358
f 353 352 84
f 355 352 920
f 85 353 84
f 353 345 586
f 765 592 354
f 270 359 770
f 920 352 268
f 355 354 591
f 587 110 111
f 358 356 269
f 357 587 372
f 357 372 761
f 762 763 589
f 583 590 351
f 360 359 81
f 270 361 362
f 82 360 81
f 360 354 592
f 270 768 771
f 272 368 776
f 270 362 359
f 362 361 599
f 593 114 115
f 367 271 365
f 115 116 604
f 364 376 777
f 594 365 271
f 273 372 373
f 593 363 114
f 603 366 364
f 271 367 363
f 367 365 373
f 369 368 78
f 272 370 371
f 79 369 78
f 369 361 600
f 923 606 370
f 275 378 782
f 272 371 368
f 371 370 605
f 373 372 112
f 372 273 761
f 373 112 113
f 273 373 365
f 601 117 118
f 376 374 274
f 118 119 610
f 375 384 783
f 602 376 274
f 593 604 364
f 601 374 117
f 609 377 375
f 379 378 75
f 275 380 381
f 76 379 75
f 379 370 606
f 925 612 380
f 277 386 788
f 275 381 378
f 381 380 611
f 607 120 121
f 384 382 276
f 121 122 616
f 383 392 789
f 608 384 276
f 601 610 375
f 607 382 120
f 615 385 383
f 387 386 72
f 277 388 389
f 73 387 72
f 387 380 612
f 927 618 388
f 279 394 794
f 277 389 386
f 389 388 617
f 613 123 124
f 392 390 278
f 124 125 622
f 391 400 795
f 614 392 278
f 607 616 383
f 613 390 123
f 621 393 391
f 395 394 69
f 279 396 397
f 70 395 69
f 395 388 618
f 929 624 396
f 281 402 800
f 279 397 394
f 397 396 623
f 619 126 127
f 400 398 280
f 127 128 628
f 399 408 801
f 620 400 280
f 613 622 391
f 619 398 126
f 627 401 399
f 403 402 66
f 281 404 405
f 67 403 66
f 403 396 624
f 931 630 404
f 283 410 806
f 281 405 402
f 405 404 629
f 625 129 130
f 408 406 282
f 130 131 634
f 407 416 807
f 626 408 282
f 619 628 399
f 625 406 129
f 633 409 407
f 411 410 63
f 283 412 413
f 64 411 63
f 411 404 630
f 933 636 412
f 285 418 812
f 283 413 410
f 413 412 635
f 631 132 133
f 416 414 284
f 133 134 640
f 415 424 813
f 632 416 284
f 625 634 407
f 631 414 132
f 639 417 415
f 419 418 60
f 285 420 421
f 61 419 60
f 419 412 636
f 935 642 420
f 287 426 818
f 285 421 418
f 421 420 641
f 637 135 136
f 424 422 286
f 136 137 646
f 423 432 819
f 638 424 286
f 631 640 415
f 637 422 135
f 645 425 423
f 427 426 57
f 287 428 429
f 58 427 57
f 427 420 642
f 937 648 428
f 289 434 824
f 287 429 426
f 429 428 647
f 643 138 139
f 432 430 288
f 139 140 652
f 431 440 825
f 644 432 288
f 637 646 423
f 643 430 138
f 651 433 431
f 435 434 54
f 289 436 437
f 55 435 54
f 435 428 648
f 939 654 436
f 291 442 830
f 289 437 434
f 437 436 653
f 649 141 142
f 440 438 290
f 142 143 658
f 439 448 831
f 650 440 290
f 643 652 431
f 649 438 141
f 657 441 439
f 443 442 51
f 291 444 445
f 52 443 51
f 443 436 654
f 941 660 444
f 293 450 836
f 291 445 442
f 445 444 659
f 655 144 145
f 448 446 292
f 145 146 664
f 447 456 837
f 656 448 292
f 649 658 439
f 655 446 144
f 663 449 447
f 451 450 48
f 293 452 453
f 49 451 48
f 451 444 660
f 943 666 452
f 295 458 842
f 293 453 450
f 453 452 665
f 661 147 148
f 456 454 294
f 148 149 670
f 455 464 843
f 662 456 294
f 655 664 447
f 661 454 147
f 669 457 455
f 459 458 45
f 295 460 461
f 46 459 45
f 459 452 666
f 945 672 460
f 297 466 848
f 295 461 458
f 461 460 671
f 667 150 151
f 464 462 296
f 151 152 676
f 463 472 849
f 668 464 296
f 661 670 455
f 667 462 150
f 675 465 463
f 467 466 42
f 297 468 469
f 43 467 42
f 467 460 672
f 947 678 468
f 299 474 854
f 297 469 466
f 469 468 677
f 673 153 154
f 472 470 298
f 154 155 682
f 471 480 855
f 674 472 298
f 667 676 463
f 673 470 153
f 681 473 471
f 475 474 39
f 299 476 477
f 40 475 39
f 475 468 678
f 949 684 476
f 301 482 860
f 299 477 474
f 477 476 683
f 679 156 157
f 480 478 300
f 157 158 688
f 479 488 861
f 680 480 300
f 673 682 471
f 679 478 156
f 687 481 479
f 483 482 36
f 301 484 485
f 37 483 36
f 483 476 684
f 951 690 484
f 303 490 866
f 301 485 482
f 485 484 689
f 685 159 160
f 488 486 302
f 160 161 694
f 487 496 867
f 686 488 302
f 679 688 479
f 685 486 159
f 693 489 487
f 491 490 33
f 303 492 493
f 34 491 33
f 491 484 690
f 953 696 492
f 305 498 872
f 303 493 490
f 493 492 695
f 691 162 163
f 496 494 304
f 163 164 700
f 495 504 873
f 692 496 304
f 685 694 487
f 691 494 162
f 699 497 495
f 499 498 30
f 305 500 501
f 31 499 30
f 499 492 696
f 955 702 500
f 307 506 878
f 305 501 498
f 501 500 701
f 697 165 166
f 504 502 306
f 166 167 706
f 503 512 879
f 698 504 306
f 691 700 495
f 697 502 165
f 705 505 503
f 507 506 27
f 307 508 509
f 28 507 27
f 507 500 702
f 957 708 508
f 309 514 884
f 307 509 506
f 509 508 707
f 703 168 169
f 512 510 308
f 169 170 712
f 511 520 885
f 704 512 308
f 697 706 503
f 703 510 168
f 711 513 511
f 515 514 24
f 309 516 517
f 25 515 24
f 515 508 708
f 959 714 516
f 311 522 890
f 309 517 514
f 517 516 713
f 709 171 172
f 520 518 310
f 172 173 718
f 519 528 891
f 710 520 310
f 703 712 511
f 709 518 171
f 717 521 519
f 523 522 21
f 311 524 525
f 22 523 21
f 523 516 714
f 961 720 524
f 313 530 896
f 311 525 522
f 525 524 719
f 715 174 175
f 528 526 312
f 175 176 724
f 527 536 897
f 716 528 312
f 709 718 519
f 715 526 174
f 723 529 527
f 531 530 18
f 313 532 533
f 19 531 18
f 531 524 720
f 963 726 532
f 315 538 902
f 313 533 530
f 533 532 725
f 721 177 178
f 536 534 314
f 178 179 730
f 535 544 903
f 722 536 314
f 715 724 527
f 721 534 177
f 729 537 535
f 539 538 15
f 315 540 541
f 16 539 15
f 539 532 726
f 965 732 540
f 317 546 908
f 315 541 538
f 541 540 731
f 727 180 181
f 544 542 316
f 181 182 739
f 543 552 910
f 728 544 316
f 721 730 535
f 727 542 180
f 735 545 543
f 547 546 12
f 549 546 968
f 13 547 12
f 547 540 732
f 968 905 967
f 319 738 737
f 968 546 317
f 549 548 743
f 551 550 183
f 552 550 318
f 184 551 183
f 551 329 554
f 733 552 318
f 727 739 543
f 330 553 184
f 329 551 553
f 329 741 554
f 744 237 748
f 556 555 9
f 557 555 319
f 10 556 9
f 737 738 971
f 913 745 744
f 911 558 557
f 558 7 746
f 558 331 747
f 260 559 238
f 560 559 101
f 348 560 102
f 559 560 332
f 242 561 90
f 241 333 561
f 563 258 5
f 564 562 337
f 558 563 6
f 562 563 337
f 748 564 747
f 564 750 749
f 341 565 104
f 348 565 340
f 582 566 264
f 566 210 567
f 569 567 210
f 571 570 349
f 340 566 568
f 567 568 566
f 569 580 578
f 569 579 753
f 266 567 570
f 569 570 567
f 571 349 572
f 266 571 332
f 573 572 349
f 238 572 191
f 573 349 753
f 191 573 263
f 211 919 574
f 264 342 756
f 350 575 106
f 341 575 342
f 577 576 88
f 346 576 344
f 89 333 577
f 333 239 579
f 580 569 210
f 344 577 578
f 333 579 577
f 579 239 753
f 581 580 210
f 344 578 580
f 566 582 210
f 346 581 265
f 756 582 264
f 586 759 919
f 583 108 590
f 350 583 351
f 358 762 764
f 914 268 760
f 347 585 85
f 345 353 585
f 345 917 759
f 586 211 914
f 372 587 111
f 356 587 357
f 365 595 273
f 767 763 588
f 592 765 921
f 764 584 757
f 356 590 109
f 590 358 351
f 355 591 82
f 354 360 591
f 765 354 920
f 592 212 766
f 593 115 604
f 366 593 364
f 775 603 922
f 594 213 595
f 598 595 213
f 273 595 597
f 598 600 596
f 771 768 596
f 598 597 595
f 596 768 769
f 600 598 213
f 597 598 596
f 362 599 79
f 361 369 599
f 771 600 361
f 600 213 772
f 601 118 610
f 377 601 375
f 781 609 924
f 602 214 603
f 923 922 606
f 603 775 366
f 374 604 116
f 604 376 364
f 371 605 76
f 370 379 605
f 923 272 773
f 606 214 778
f 607 121 616
f 385 607 383
f 787 615 926
f 608 215 609
f 925 924 612
f 609 781 377
f 382 610 119
f 610 384 375
f 381 611 73
f 380 387 611
f 925 275 779
f 612 215 784
f 613 124 622
f 393 613 391
f 793 621 928
f 614 216 615
f 927 926 618
f 615 787 385
f 390 616 122
f 616 392 383
f 389 617 70
f 388 395 617
f 927 277 785
f 618 216 790
f 619 127 628
f 401 619 399
f 799 627 930
f 620 217 621
f 929 928 624
f 621 793 393
f 398 622 125
f 622 400 391
f 397 623 67
f 396 403 623
f 929 279 791
f 624 217 796
f 625 130 634
f 409 625 407
f 805 633 932
f 626 218 627
f 931 930 630
f 627 799 401
f 406 628 128
f 628 408 399
f 405 629 64
f 404 411 629
f 931 281 797
f 630 218 802
f 631 133 640
f 417 631 415
f 811 639 934
f 632 219 633
f 933 932 636
f 633 805 409
f 414 634 131
f 634 416 407
f 413 635 61
f 412 419 635
f 933 283 803
f 636 219 808
f 637 136 646
f 425 637 423
f 817 645 936
f 638 220 639
f 935 934 642
f 639 811 417
f 422 640 134
f 640 424 415
f 421 641 58
f 420 427 641
f 935 285 809
f 642 220 814
f 643 139 652
f 433 643 431
f 823 651 938
f 644 221 645
f 937 936 648
f 645 817 425
f 430 646 137
f 646 432 423
f 429 647 55
f 428 435 647
f 937 287 815
f 648 221 820
f 649 142 658
f 441 649 439
f 829 657 940
f 650 222 651
f 939 938 654
f 651 823 433
f 438 652 140
f 652 440 431
f 437 653 52
f 436 443 653
f 939 289 821
f 654 222 826
f 655 145 664
f 449 655 447
f 835 663 942
f 656 223 657
f 941 940 660
f 657 829 441
f 446 658 143
f 658 448 439
f 445 659 49
f 444 451 659
f 941 291 827
f 660 223 832
f 661 148 670
f 457 661 455
f 841 669 944
f 662 224 663
f 943 942 666
f 663 835 449
f 454 664 146
f 664 456 447
f 453 665 46
f 452 459 665
f 943 293 833
f 666 224 838
f 667 151 676
f 465 667 463
f 847 675 946
f 668 225 669
f 945 944 672
f 669 841 457
f 462 670 149
f 670 464 455
f 461 671 43
f 460 467 671
f 945 295 839
f 672 225 844
f 673 154 682
f 473 673 471
f 853 681 948
f 674 226 675
f 947 946 678
f 675 847 465
f 470 676 152
f 676 472 463
f 469 677 40
f 468 475 677
f 947 297 845
f 678 226 850
f 679 157 688
f 481 679 479
f 859 687 950
f 680 227 681
f 949 948 684
f 681 853 473
f 478 682 155
f 682 480 471
f 477 683 37
f 476 483 683
f 949 299 851
f 684 227 856
f 685 160 694
f 489 685 487
f 865 693 952
f 686 228 687
f 951 950 690
f 687 859 481
f 486 688 158
f 688 488 479
f 485 689 34
f 484 491 689
f 951 301 857
f 690 228 862
f 691 163 700
f 497 691 495
f 871 699 954
f 692 229 693
f 953 952 696
f 693 865 489
f 494 694 161
f 694 496 487
f 493 695 31
f 492 499 695
f 953 303 863
f 696 229 868
f 697 166 706
f 505 697 503
f 877 705 956
f 698 230 699
f 955 954 702
f 699 871 497
f 502 700 164
f 700 504 495
f 501 701 28
f 500 507 701
f 955 305 869
f 702 230 874
f 703 169 712
f 513 703 511
f 883 711 958
f 704 231 705
f 957 956 708
f 705 877 505
f 510 706 167
f 706 512 503
f 509 707 25
f 508 515 707
f 957 307 875
f 708 231 880
f 709 172 718
f 521 709 519
f 889 717 960
f 710 232 711
f 959 958 714
f 711 883 513
f 518 712 170
f 712 520 511
f 517 713 22
f 516 523 713
f 959 309 881
f 714 232 886
f 715 175 724
f 529 715 527
f 895 723 962
f 716 233 717
f 961 960 720
f 717 889 521
f 526 718 173
f 718 528 519
f 525 719 19
f 524 531 719
f 961 311 887
f 720 233 892
f 721 178 730
f 537 721 535
f 901 729 964
f 722 234 723
f 963 962 726
f 723 895 529
f 534 724 176
f 724 536 527
f 533 725 16
f 532 539 725
f 963 313 893
f 726 234 898
f 727 181 739
f 545 727 543
f 907 735 966
f 728 235 729
f 965 964 732
f 729 901 537
f 542 730 179
f 730 544 535
f 541 731 13
f 540 547 731
f 965 315 899
f 732 235 904
f 318 740 909
f 733 236 735
f 554 741 745
f 736 734 737
f 548 968 967
f 735 907 545
f 318 736 733
f 734 913 737
f 738 319 556
f 236 736 737
f 969 556 743
f 905 966 967
f 550 739 182
f 739 552 543
f 550 740 318
f 551 554 740
f 742 741 329
f 745 237 744
f 330 742 329
f 324 751 320
f 549 743 10
f 969 743 548
f 744 911 912
f 734 909 745
f 237 745 741
f 744 912 913
f 555 746 8
f 558 746 557
f 558 747 337
f 748 747 331
f 748 331 911
f 750 748 237
f 323 749 321
f 253 564 749
f 752 750 237
f 321 749 750
f 321 751 324
f 751 750 752
f 741 752 237
f 751 752 742
f 573 753 239
f 570 753 349
f 350 754 342
f 755 754 267
f 757 755 267
f 915 755 584
f 754 756 342
f 574 919 970
f 764 757 351
f 755 757 584
f 916 758 915
f 763 921 589
f 918 265 581
f 582 756 970
f 353 586 760
f 760 586 914
f 597 761 273
f 269 761 588
f 763 762 269
f 764 762 589
f 588 763 269
f 921 763 212
f 358 764 351
f 916 764 589
f 268 758 765
f 765 758 916
f 212 767 766
f 769 768 767
f 763 767 212
f 588 597 769
f 270 766 768
f 767 768 766
f 588 769 767
f 596 769 597
f 360 592 770
f 766 770 592
f 270 771 361
f 596 600 771
f 213 594 774
f 774 772 213
f 922 603 214
f 272 772 773
f 271 774 594
f 772 774 773
f 774 271 775
f 366 775 271
f 369 600 776
f 772 776 600
f 602 777 376
f 603 364 777
f 214 602 780
f 780 778 214
f 924 609 215
f 275 778 779
f 274 780 602
f 778 780 779
f 780 274 781
f 377 781 274
f 379 606 782
f 778 782 606
f 608 783 384
f 609 375 783
f 215 608 786
f 786 784 215
f 926 615 216
f 277 784 785
f 276 786 608
f 784 786 785
f 786 276 787
f 385 787 276
f 387 612 788
f 784 788 612
f 614 789 392
f 615 383 789
f 216 614 792
f 792 790 216
f 928 621 217
f 279 790 791
f 278 792 614
f 790 792 791
f 792 278 793
f 393 793 278
f 395 618 794
f 790 794 618
f 620 795 400
f 621 391 795
f 217 620 798
f 798 796 217
f 930 627 218
f 281 796 797
f 280 798 620
f 796 798 797
f 798 280 799
f 401 799 280
f 403 624 800
f 796 800 624
f 626 801 408
f 627 399 801
f 218 626 804
f 804 802 218
f 932 633 219
f 283 802 803
f 282 804 626
f 802 804 803
f 804 282 805
f 409 805 282
f 411 630 806
f 802 806 630
f 632 807 416
f 633 407 807
f 219 632 810
f 810 808 219
f 934 639 220
f 285 808 809
f 284 810 632
f 808 810 809
f 810 284 811
f 417 811 284
f 419 636 812
f 808 812 636
f 638 813 424
f 639 415 813
f 220 638 816
f 816 814 220
f 936 645 221
f 287 814 815
f 286 816 638
f 814 816 815
f 816 286 817
f 425 817 286
f 427 642 818
f 814 818 642
f 644 819 432
f 645 423 819
f 221 644 822
f 822 820 221
f 938 651 222
f 289 820 821
f 288 822 644
f 820 822 821
f 822 288 823
f 433 823 288
f 435 648 824
f 820 824 648
f 650 825 440
f 651 431 825
f 222 650 828
f 828 826 222
f 940 657 223
f 291 826 827
f 290 828 650
f 826 828 827
f 828 290 829
f 441 829 290
f 443 654 830
f 826 830 654
f 656 831 448
f 657 439 831
f 223 656 834
f 834 832 223
f 942 663 224
f 293 832 833
f 292 834 656
f 832 834 833
f 834 292 835
f 449 835 292
f 451 660 836
f 832 836 660
f 662 837 456
f 663 447 837
f 224 662 840
f 840 838 224
f 944 669 225
f 295 838 839
f 294 840 662
f 838 840 839
f 840 294 841
f 457 841 294
f 459 666 842
f 838 842 666
f 668 843 464
f 669 455 843
f 225 668 846
f 846 844 225
f 946 675 226
f 297 844 845
f 296 846 668
f 844 846 845
f 846 296 847
f 465 847 296
f 467 672 848
f 844 848 672
f 674 849 472
f 675 463 849
f 226 674 852
f 852 850 226
f 948 681 227
f 299 850 851
f 298 852 674
f 850 852 851
f 852 298 853
f 473 853 298
f 475 678 854
f 850 854 678
f 680 855 480
f 681 471 855
f 227 680 858
f 858 856 227
f 950 687 228
f 301 856 857
f 300 858 680
f 856 858 857
f 858 300 859
f 481 859 300
f 483 684 860
f 856 860 684
f 686 861 488
f 687 479 861
f 228 686 864
f 864 862 228
f 952 693 229
f 303 862 863
f 302 864 686
f 862 864 863
f 864 302 865
f 489 865 302
f 491 690 866
f 862 866 690
f 692 867 496
f 693 487 867
f 229 692 870
f 870 868 229
f 954 699 230
f 305 868 869
f 304 870 692
f 868 870 869
f 870 304 871
f 497 871 304
f 499 696 872
f 868 872 696
f 698 873 504
f 699 495 873
f 230 698 876
f 876 874 230
f 956 705 231
f 307 874 875
f 306 876 698
f 874 876 875
f 876 306 877
f 505 877 306
f 507 702 878
f 874 878 702
f 704 879 512
f 705 503 879
f 231 704 882
f 882 880 231
f 958 711 232
f 309 880 881
f 308 882 704
f 880 882 881
f 882 308 883
f 513 883 308
f 515 708 884
f 880 884 708
f 710 885 520
f 711 511 885
f 232 710 888
f 888 886 232
f 960 717 233
f 311 886 887
f 310 888 710
f 886 888 887
f 888 310 889
f 521 889 310
f 523 714 890
f 886 890 714
f 716 891 528
f 717 519 891
f 233 716 894
f 894 892 233
f 962 723 234
f 313 892 893
f 312 894 716
f 892 894 893
f 894 312 895
f 529 895 312
f 531 720 896
f 892 896 720
f 722 897 536
f 723 527 897
f 234 722 900
f 900 898 234
f 964 729 235
f 315 898 899
f 314 900 722
f 898 900 899
f 900 314 901
f 537 901 314
f 539 726 902
f 898 902 726
f 728 903 544
f 729 535 903
f 235 728 906
f 906 904 235
f 236 966 735
f 317 904 905
f 316 906 728
f 904 906 905
f 906 316 907
f 545 907 316
f 547 732 908
f 904 908 732
f 745 909 554
f 736 909 734
f 733 910 552
f 735 543 910
f 558 911 331
f 912 911 557
f 557 319 912
f 319 737 913
f 745 913 734
f 319 913 912
f 915 914 211
f 914 758 268
f 755 915 211
f 916 915 584
f 764 916 584
f 916 589 921
f 347 917 345
f 918 917 265
f 918 582 970
f 918 759 917
f 586 919 211
f 759 918 970
f 355 920 354
f 268 765 920
f 592 921 212
f 916 921 765
f 606 922 214
f 775 922 773
f 272 923 370
f 922 923 773
f 612 924 215
f 781 924 779
f 275 925 380
f 924 925 779
f 618 926 216
f 787 926 785
f 277 927 388
f 926 927 785
f 624 928 217
f 793 928 791
f 279 929 396
f 928 929 791
f 630 930 218
f 799 930 797
f 281 931 404
f 930 931 797
f 636 932 219
f 805 932 803
f 283 933 412
f 932 933 803
f 642 934 220
f 811 934 809
f 285 935 420
f 934 935 809
f 648 936 221
f 817 936 815
f 287 937 428
f 936 937 815
f 654 938 222
f 823 938 821
f 289 939 436
f 938 939 821
f 660 940 223
f 829 940 827
f 291 941 444
f 940 941 827
f 666 942 224
f 835 942 833
f 293 943 452
f 942 943 833
f 672 944 225
f 841 944 839
f 295 945 460
f 944 945 839
f 678 946 226
f 847 946 845
f 297 947 468
f 946 947 845
f 684 948 227
f 853 948 851
f 299 949 476
f 948 949 851
f 690 950 228
f 859 950 857
f 301 951 484
f 950 951 857
f 696 952 229
f 865 952 863
f 303 953 492
f 952 953 863
f 702 954 230
f 871 954 869
f 305 955 500
f 954 955 869
f 708 956 231
f 877 956 875
f 307 957 508
f 956 957 875
f 714 958 232
f 883 958 881
f 309 959 516
f 958 959 881
f 720 960 233
f 889 960 887
f 311 961 524
f 960 961 887
f 726 962 234
f 895 962 893
f 313 963 532
f 962 963 893
f 732 964 235
f 901 964 899
f 315 965 540
f 964 965 899
f 966 971 967
f 907 966 905
f 971 966 236
f 969 967 971
f 549 968 548
f 905 968 317
f 556 969 738
f 548 967 969
f 574 970 756
f 970 919 759
f 737 971 236
f 969 971 738